<svg width="28" height="28" viewBox="0 0 28 28" fill="none" xmlns="http://www.w3.org/2000/svg">
<g clip-path="url(#clip0_14_3010)">
<path d="M26.7273 15.2726L4.34539 15.2726L8.53631 19.4636C9.03335 19.9606 9.03335 20.7665 8.53631 21.2635C8.03935 21.7605 7.23346 21.7605 6.73642 21.2635L0.372781 14.8999C-0.124261 14.4029 -0.124261 13.597 0.372781 13.1L6.73642 6.73635C6.98502 6.48783 7.31067 6.36352 7.6364 6.36352C7.96214 6.36352 8.28787 6.48783 8.53631 6.73635C9.03335 7.23331 9.03335 8.0392 8.53631 8.53624L4.34539 12.7272L26.7273 12.7272C27.4302 12.7272 28 13.297 28 13.9999C28 14.7028 27.4302 15.2726 26.7273 15.2726Z" fill="#141415"/>
</g>
<defs>
<clipPath id="clip0_14_3010">
<rect width="28" height="28" fill="white" transform="matrix(1 -8.74228e-08 -8.74228e-08 -1 0 28)"/>
</clipPath>
</defs>
</svg>
