<svg width="28" height="28" viewBox="0 0 28 28" fill="none" xmlns="http://www.w3.org/2000/svg">
<g clip-path="url(#clip0_4_152)">
<path d="M1.27269 15.2726L23.6546 15.2726L19.4637 19.4636C18.9666 19.9606 18.9666 20.7665 19.4637 21.2635C19.9606 21.7605 20.7665 21.7605 21.2636 21.2635L27.6272 14.8999C28.1243 14.4029 28.1243 13.597 27.6272 13.1L21.2636 6.73635C21.015 6.48783 20.6893 6.36352 20.3636 6.36352C20.0379 6.36352 19.7121 6.48783 19.4637 6.73635C18.9667 7.23331 18.9667 8.0392 19.4637 8.53624L23.6546 12.7272L1.27269 12.7272C0.569804 12.7272 -3.93253e-05 13.297 -3.93867e-05 13.9999C-3.94482e-05 14.7028 0.569804 15.2726 1.27269 15.2726Z" fill="#694338"/>
</g>
<defs>
<clipPath id="clip0_4_152">
<rect width="28" height="28" fill="white" transform="translate(28 28) rotate(-180)"/>
</clipPath>
</defs>
</svg>
