<svg width="32" height="32" viewBox="0 0 32 32" fill="none" xmlns="http://www.w3.org/2000/svg">
<path d="M30.75 20.4375C31.4404 20.4375 32 19.8779 32 19.1875V11.0625C32 8.3055 29.757 6.0625 27 6.0625H25.1024C24.5671 6.0625 24.0916 5.72206 23.9191 5.21525L23.5409 4.10419C23.0234 2.58394 21.5968 1.5625 19.9909 1.5625H12.0052C10.4304 1.5625 9.013 2.55769 8.47819 4.03881L8.0455 5.23706C7.86719 5.73075 7.39475 6.0625 6.86981 6.0625H5C2.243 6.0625 0 8.3055 0 11.0625V25.4375C0 28.1945 2.243 30.4375 5 30.4375H27C29.757 30.4375 32 28.1945 32 25.4375C32 24.7471 31.4404 24.1875 30.75 24.1875C30.0596 24.1875 29.5 24.7471 29.5 25.4375C29.5 26.816 28.3785 27.9375 27 27.9375H5C3.6215 27.9375 2.5 26.816 2.5 25.4375V11.0625C2.5 9.684 3.6215 8.5625 5 8.5625H6.86981C8.44456 8.5625 9.862 7.56731 10.3968 6.08619L10.8295 4.88794C11.0078 4.39425 11.4802 4.0625 12.0052 4.0625H19.9909C20.5262 4.0625 21.0017 4.403 21.1742 4.90975L21.5524 6.02081C22.0699 7.54106 23.4965 8.5625 25.1024 8.5625H27C28.3785 8.5625 29.5 9.684 29.5 11.0625V19.1875C29.5 19.8779 30.0596 20.4375 30.75 20.4375Z" fill="#694338"/>
<path d="M16.0625 9.8125C11.7547 9.8125 8.25 13.3172 8.25 17.625C8.25 21.9328 11.7547 25.4375 16.0625 25.4375C20.3703 25.4375 23.875 21.9328 23.875 17.625C23.875 13.3172 20.3703 9.8125 16.0625 9.8125ZM16.0625 22.9375C13.1332 22.9375 10.75 20.5543 10.75 17.625C10.75 14.6957 13.1332 12.3125 16.0625 12.3125C18.9918 12.3125 21.375 14.6957 21.375 17.625C21.375 20.5543 18.9918 22.9375 16.0625 22.9375Z" fill="#694338"/>
</svg>
