<svg width="32" height="32" viewBox="0 0 32 32" fill="none" xmlns="http://www.w3.org/2000/svg">
<path d="M29.6442 3.81445C28.7908 3.81445 28.0394 4.27005 27.628 4.98405H26.693C26.2204 4.98405 25.7784 4.80045 25.4418 4.46725L22.8578 1.88325C22.3954 1.42085 21.8582 1.06045 21.2598 0.812248C19.8046 0.213848 18.1182 0.356648 16.7888 1.17265C16.3162 1.20665 15.8674 1.41405 15.524 1.77785L10.8626 6.71465C10.1384 7.47965 9.82902 8.51325 10.016 9.55025C10.1996 10.5872 10.849 11.4474 11.7908 11.9166L13.042 12.5388C13.45 12.7428 13.8852 12.8516 14.3306 12.8754V13.7288C14.3306 14.1232 14.1538 14.4904 13.841 14.7318L6.39842 20.556C5.14722 21.5862 4.42982 23.1094 4.42982 24.7278V25.401C4.42982 27.3424 5.33422 29.073 6.73842 30.2018H5.85102C3.38602 30.2018 1.38002 28.1958 1.38002 25.7308V24.1566C1.38002 23.3508 2.03282 22.698 2.83862 22.698C3.21262 22.698 3.51862 22.392 3.51862 22.018C3.51862 21.644 3.21262 21.338 2.83862 21.338C1.28482 21.338 0.0200195 22.6028 0.0200195 24.1566V25.7308C0.0200195 28.9472 2.63462 31.5618 5.85102 31.5618H10.5906H16.0034C16.799 31.5618 17.4484 30.9124 17.4484 30.1168V29.549C17.4484 28.5358 16.6256 27.713 15.6124 27.713H15.439C15.7416 27.3968 15.9932 27.0296 16.1836 26.6352H18.4242V29.8414C18.4242 30.79 19.196 31.5618 20.1446 31.5618H23.9084C24.704 31.5618 25.35 30.9124 25.35 30.1168V29.3756C25.35 28.3624 24.5272 27.5396 23.514 27.5396H22.6776V25.4962C22.6776 25.3296 22.7422 25.1698 22.8578 25.0542L23.9934 23.9186C24.5068 23.4052 24.9114 22.8 25.1902 22.1234C25.469 21.4536 25.6084 20.743 25.6084 20.0052C25.6084 18.55 25.0202 17.1254 23.99 16.0952L23.2386 15.3472C23.1196 15.2282 23.055 15.065 23.055 14.9018V12.9094H24.5272C27.3628 12.9094 29.8346 10.985 30.5656 8.28205C31.402 7.91825 31.9766 7.07845 31.9766 6.14005C31.98 4.86165 30.9328 3.81445 29.6442 3.81445ZM17.5198 3.20925L16.408 9.90725C16.2754 10.713 15.6702 11.3318 14.8678 11.4882C14.453 11.5664 14.0314 11.5086 13.6506 11.3182L12.3994 10.696C11.8452 10.4206 11.4644 9.91745 11.359 9.30885C11.2502 8.70025 11.4304 8.09505 11.8554 7.64625L16.51 2.71285C16.629 2.58705 16.765 2.52585 16.9112 2.52585C16.9384 2.52585 16.9622 2.52585 16.9894 2.53265C16.9928 2.53265 16.9996 2.53265 17.003 2.53605C17.1662 2.55645 17.3192 2.64485 17.4178 2.77065C17.513 2.89305 17.547 3.04265 17.5198 3.20925ZM21.0864 7.50685C20.335 7.50685 19.7264 6.89825 19.7264 6.14685C19.7264 5.39545 20.335 4.78685 21.0864 4.78685C21.8378 4.78685 22.4464 5.39545 22.4464 6.14685C22.4464 6.89825 21.8344 7.50685 21.0864 7.50685ZM29.8584 7.09885C29.2396 7.22805 28.6718 6.75545 28.6718 6.14685C28.6718 6.04825 28.6854 5.95305 28.7126 5.86805V5.86465C28.8384 5.46005 29.2192 5.17445 29.6442 5.17445C30.1814 5.17445 30.62 5.60965 30.62 6.14685C30.62 6.60245 30.297 7.00365 29.8584 7.09885Z" fill="#694338"/>
</svg>
