<svg width="18" height="18" viewBox="0 0 18 18" fill="none" xmlns="http://www.w3.org/2000/svg">
<g clip-path="url(#clip0_60_456)">
<path d="M3.51387 14.8624C3.6853 14.8624 3.71959 14.8453 3.87387 14.811L6.95959 14.1938C7.2853 14.1081 7.61102 13.9538 7.86816 13.6967L15.3424 6.2224C16.491 5.07383 16.491 3.1024 15.3424 1.95383L14.7082 1.28526C13.5596 0.136685 11.571 0.136685 10.4224 1.28526L2.94816 8.77669C2.70816 9.01669 2.53673 9.35954 2.45101 9.68526L1.79958 12.8053C1.71387 13.3881 1.8853 13.9538 2.29673 14.3653C2.62244 14.691 3.10244 14.8624 3.51387 14.8624ZM4.09673 10.011L11.571 2.51954C12.0682 2.0224 12.9767 2.0224 13.4567 2.51954L14.1082 3.17097C14.691 3.75383 14.691 4.57669 14.1082 5.1424L6.65102 12.6338L3.47959 13.1653L4.09673 10.011Z" fill="#141415"/>
<path d="M15.2738 15.9253H2.62242C2.12527 15.9253 1.79956 16.251 1.79956 16.7481C1.79956 17.2453 2.21099 17.571 2.62242 17.571H15.2053C15.7024 17.571 16.1138 17.2453 16.1138 16.7481C16.0967 16.251 15.6853 15.9253 15.2738 15.9253Z" fill="#141415"/>
</g>
<defs>
<clipPath id="clip0_60_456">
<rect width="17.1429" height="17.1429" fill="white" transform="translate(0.428223 0.428223)"/>
</clipPath>
</defs>
</svg>
