<svg width="18" height="18" viewBox="0 0 18 18" fill="none" xmlns="http://www.w3.org/2000/svg">
<g clip-path="url(#clip0_270_1576)">
<path d="M3.51399 14.8624C3.68542 14.8624 3.71971 14.8453 3.87399 14.811L6.95971 14.1938C7.28542 14.1081 7.61114 13.9538 7.86828 13.6967L15.3426 6.2224C16.4911 5.07383 16.4911 3.1024 15.3426 1.95383L14.7083 1.28526C13.5597 0.136685 11.5711 0.136685 10.4226 1.28526L2.94828 8.77669C2.70828 9.01669 2.53685 9.35954 2.45114 9.68526L1.79971 12.8053C1.71399 13.3881 1.88542 13.9538 2.29685 14.3653C2.62256 14.691 3.10256 14.8624 3.51399 14.8624ZM4.09685 10.011L11.5711 2.51954C12.0683 2.0224 12.9769 2.0224 13.4569 2.51954L14.1083 3.17097C14.6911 3.75383 14.6911 4.57669 14.1083 5.1424L6.65114 12.6338L3.47971 13.1653L4.09685 10.011Z" fill="white"/>
<path d="M15.274 15.9253H2.62254C2.1254 15.9253 1.79968 16.251 1.79968 16.7481C1.79968 17.2453 2.21111 17.571 2.62254 17.571H15.2054C15.7025 17.571 16.114 17.2453 16.114 16.7481C16.0968 16.251 15.6854 15.9253 15.274 15.9253Z" fill="white"/>
</g>
<defs>
<clipPath id="clip0_270_1576">
<rect width="17.1429" height="17.1429" fill="white" transform="translate(0.428223 0.428223)"/>
</clipPath>
</defs>
</svg>
