<svg width="16" height="17" viewBox="0 0 16 17" fill="none" xmlns="http://www.w3.org/2000/svg">
<g clip-path="url(#clip0_148_2930)">
<path d="M12.4801 1.69531H7.56757C7.25665 1.69531 6.95805 1.81909 6.73806 2.03909L0.343627 8.43234C-0.114542 8.89051 -0.114542 9.6332 0.343627 10.092L5.25619 15.0045C5.71436 15.4627 6.45705 15.4627 6.91522 15.0045L13.3096 8.61127C13.5296 8.39069 13.6534 8.09209 13.6534 7.78058V2.8686C13.6534 2.22036 13.1284 1.69531 12.4801 1.69531ZM10.4269 5.80182C9.94114 5.80182 9.54691 5.4076 9.54691 4.92186C9.54691 4.43612 9.94114 4.04189 10.4269 4.04189C10.9126 4.04189 11.3068 4.43612 11.3068 4.92186C11.3068 5.4076 10.9126 5.80182 10.4269 5.80182Z" fill="#694338"/>
<path d="M14.8267 2.86865L14.8262 8.32973C14.8262 8.60017 14.7188 8.86005 14.527 9.0513L8.0293 15.549L8.12903 15.6487C8.5872 16.1069 9.32989 16.1069 9.78806 15.6487L15.6557 9.78226C15.8763 9.56227 16 9.26367 16 8.95274V4.04194C16 3.3937 15.475 2.86865 14.8267 2.86865Z" fill="#694338"/>
</g>
<defs>
<clipPath id="clip0_148_2930">
<rect width="16" height="16" fill="white" transform="translate(0 0.84375)"/>
</clipPath>
</defs>
</svg>
