<svg width="23" height="23" viewBox="0 0 23 23" fill="none" xmlns="http://www.w3.org/2000/svg">
<path d="M17.5788 0H5.42117C3.98339 0 2.60449 0.571158 1.58782 1.58782C0.571158 2.60449 0 3.98339 0 5.42117L0 17.5788C0 19.0166 0.571158 20.3955 1.58782 21.4122C2.60449 22.4288 3.98339 23 5.42117 23H17.5788C19.0166 23 20.3955 22.4288 21.4122 21.4122C22.4288 20.3955 23 19.0166 23 17.5788V5.42117C23 3.98339 22.4288 2.60449 21.4122 1.58782C20.3955 0.571158 19.0166 0 17.5788 0ZM17.834 8.20588C17.829 8.41626 17.742 8.61636 17.5914 8.7634C17.4408 8.91044 17.2388 8.99275 17.0283 8.99275C16.8179 8.99275 16.6158 8.91044 16.4652 8.7634C16.3147 8.61636 16.2276 8.41626 16.2226 8.20588V7.92871L14.4648 9.6883C15.1836 11.4079 14.0956 13.5264 12.2906 13.9473V14.8381H12.9793C13.0867 14.8356 13.1935 14.8546 13.2935 14.8939C13.3934 14.9333 13.4845 14.9922 13.5614 15.0673C13.6383 15.1423 13.6993 15.232 13.741 15.331C13.7827 15.43 13.8042 15.5364 13.8042 15.6438C13.8042 15.7513 13.7827 15.8576 13.741 15.9566C13.6993 16.0556 13.6383 16.1453 13.5614 16.2204C13.4845 16.2954 13.3934 16.3544 13.2935 16.3937C13.1935 16.4331 13.0867 16.452 12.9793 16.4495H12.2884V17.0187C12.2909 17.1261 12.272 17.2329 12.2326 17.3328C12.1933 17.4328 12.1343 17.5239 12.0592 17.6008C11.9842 17.6776 11.8945 17.7387 11.7955 17.7804C11.6965 17.8221 11.5901 17.8436 11.4827 17.8436C11.3753 17.8436 11.2689 17.8221 11.1699 17.7804C11.0709 17.7387 10.9812 17.6776 10.9062 17.6008C10.8311 17.5239 10.7722 17.4328 10.7328 17.3328C10.6935 17.2329 10.6745 17.1261 10.677 17.0187V16.4495H9.98838C9.88098 16.452 9.77415 16.4331 9.67418 16.3937C9.57421 16.3544 9.48312 16.2954 9.40626 16.2204C9.32941 16.1453 9.26833 16.0556 9.22663 15.9566C9.18494 15.8576 9.16346 15.7513 9.16346 15.6438C9.16346 15.5364 9.18494 15.43 9.22663 15.331C9.26833 15.232 9.32941 15.1423 9.40626 15.0673C9.48312 14.9922 9.57421 14.9333 9.67418 14.8939C9.77415 14.8546 9.88098 14.8356 9.98838 14.8381H10.677V13.9473C8.85635 13.5381 7.77777 11.3338 8.51449 9.66539L6.77736 7.92871V8.20588C6.75041 9.26918 5.19252 9.26693 5.16602 8.20588V5.98359C5.16602 5.96023 5.16602 5.93867 5.16916 5.91352C5.18558 5.72425 5.2684 5.5469 5.40297 5.41281C5.53755 5.27873 5.71521 5.19656 5.90453 5.18084C5.92699 5.18084 5.94945 5.1777 5.97146 5.1777H8.18791C9.33881 5.24418 9.26199 6.94582 7.91838 6.78904L9.48615 8.35682C10.6092 7.42199 12.3859 7.42873 13.5017 8.37209L15.0848 6.78904C13.7398 6.94627 13.6621 5.24463 14.8152 5.1777C14.8835 5.18578 17.2221 5.15748 17.2136 5.19881C17.3886 5.24067 17.5446 5.3397 17.657 5.48022C17.7693 5.62073 17.8316 5.79471 17.834 5.97461C17.834 5.98314 17.8308 8.1942 17.834 8.20588Z" fill="#694338"/>
</svg>
