<svg width="18" height="13" viewBox="0 0 18 13" fill="none" xmlns="http://www.w3.org/2000/svg">
<path d="M5.79921 7.33531C6.25997 7.33531 6.63484 6.96045 6.63484 6.49969C6.63484 6.03893 6.25997 5.66406 5.79921 5.66406C5.33845 5.66406 4.96362 6.03893 4.96362 6.49969C4.96362 6.96045 5.33845 7.33531 5.79921 7.33531Z" fill="#694338"/>
<path d="M5.79929 8.33154C5.07088 8.33154 4.45217 8.81007 4.24097 9.46931H7.35758C7.14641 8.81007 6.52767 8.33154 5.79929 8.33154Z" fill="#694338"/>
<path d="M15.935 0.400391H2.065C1.19053 0.400391 0.5 1.11061 0.5 1.96539V11.0343C0.5 11.9087 1.21021 12.5992 2.065 12.5992H15.935C16.8095 12.5992 17.5 11.889 17.5 11.0342V1.96539C17.5 1.09088 16.7898 0.400391 15.935 0.400391ZM7.93305 10.4654H3.66535C3.3903 10.4654 3.16731 10.2424 3.16731 9.96734C3.16731 9.0159 3.67478 8.18085 4.43324 7.71846C4.14388 7.39443 3.96754 6.9674 3.96754 6.49984C3.96754 5.48983 4.78921 4.66812 5.79922 4.66812C6.80922 4.66812 7.63094 5.48983 7.63094 6.49984C7.63094 6.96744 7.45459 7.39446 7.1652 7.71849C7.92365 8.18088 8.43113 9.01597 8.43113 9.96737C8.4311 10.2424 8.20811 10.4654 7.93305 10.4654ZM13.2677 10.4654H10.6004C10.3253 10.4654 10.1023 10.2424 10.1023 9.96734C10.1023 9.69228 10.3253 9.46929 10.6004 9.46929H13.2677C13.5428 9.46929 13.7657 9.69228 13.7657 9.96734C13.7657 10.2424 13.5428 10.4654 13.2677 10.4654ZM14.3346 8.33152H10.6004C10.3253 8.33152 10.1023 8.10853 10.1023 7.83347C10.1023 7.55842 10.3253 7.33543 10.6004 7.33543H14.3346C14.6097 7.33543 14.8327 7.55842 14.8327 7.83347C14.8327 8.10853 14.6097 8.33152 14.3346 8.33152ZM14.3346 6.19766H10.6004C10.3253 6.19766 10.1023 5.97466 10.1023 5.69961C10.1023 5.42455 10.3253 5.20156 10.6004 5.20156H14.3346C14.6097 5.20156 14.8327 5.42455 14.8327 5.69961C14.8327 5.97466 14.6097 6.19766 14.3346 6.19766ZM14.3346 3.53032H3.66535C3.3903 3.53032 3.16731 3.30732 3.16731 3.03227C3.16731 2.75721 3.3903 2.53422 3.66535 2.53422H14.3346C14.6097 2.53422 14.8327 2.75721 14.8327 3.03227C14.8327 3.30732 14.6097 3.53032 14.3346 3.53032Z" fill="#694338"/>
</svg>
