<svg width="48" height="48" viewBox="0 0 48 48" fill="none" xmlns="http://www.w3.org/2000/svg">
<path d="M34.6554 11.5311C34.1578 11.0325 33.4961 10.7578 32.792 10.7578H31.6233V11.9297C31.6233 13.222 30.5731 14.2734 29.2822 14.2734H18.747C17.4561 14.2734 16.4058 13.222 16.4058 11.9297V10.7578H15.2333C13.7827 10.7578 12.6012 11.9393 12.5995 13.3916L12.5742 36.3604C12.5734 37.0652 12.847 37.728 13.3446 38.2267C13.8422 38.7254 14.5039 39 15.208 39H32.7666C34.2173 39 35.3988 37.8185 35.4004 36.3662L35.4258 13.3975C35.4266 12.6926 35.153 12.0298 34.6554 11.5311ZM24.2985 19.5469H30.536C31.0208 19.5469 31.4139 19.9404 31.4139 20.4258C31.4139 20.9112 31.0208 21.3047 30.536 21.3047H24.2985C23.8136 21.3047 23.4206 20.9112 23.4206 20.4258C23.4206 19.9404 23.8136 19.5469 24.2985 19.5469ZM24.2985 25.4062H30.536C31.0208 25.4062 31.4139 25.7998 31.4139 26.2852C31.4139 26.7705 31.0208 27.1641 30.536 27.1641H24.2985C23.8136 27.1641 23.4206 26.7705 23.4206 26.2852C23.4206 25.7998 23.8136 25.4062 24.2985 25.4062ZM24.2985 31.2656H30.561C31.0459 31.2656 31.4389 31.6591 31.4389 32.1445C31.4389 32.6299 31.0459 33.0234 30.561 33.0234H24.2985C23.8136 33.0234 23.4206 32.6299 23.4206 32.1445C23.4206 31.6591 23.8136 31.2656 24.2985 31.2656ZM16.8182 19.5816C17.1611 19.2383 17.7169 19.2383 18.0598 19.5816L18.5372 20.0595L20.5618 18.0326C20.9047 17.6895 21.4605 17.6893 21.8034 18.0326C22.1462 18.3758 22.1462 18.9323 21.8034 19.2756L19.1579 21.9239C18.9933 22.0887 18.77 22.1814 18.5371 22.1814C18.3043 22.1814 18.081 22.0888 17.9163 21.9239L16.8182 20.8245C16.4753 20.4813 16.4753 19.9247 16.8182 19.5816ZM16.8182 25.8884C17.1611 25.5452 17.7169 25.5452 18.0598 25.8884L18.5372 26.3663L20.5618 24.3394C20.9047 23.9963 21.4605 23.9963 21.8034 24.3394C22.1462 24.6826 22.1462 25.2391 21.8034 25.5824L19.1579 28.2308C18.9933 28.3956 18.77 28.4882 18.5371 28.4882C18.3043 28.4882 18.081 28.3956 17.9163 28.2308L16.8182 27.1313C16.4753 26.7881 16.4753 26.2317 16.8182 25.8884ZM16.8182 31.7478C17.1611 31.4046 17.7169 31.4046 18.0598 31.7478L18.5372 32.2257L20.5618 30.1988C20.9047 29.8556 21.4605 29.8556 21.8034 30.1988C22.1462 30.542 22.1462 31.0985 21.8034 31.4418L19.1579 34.0901C18.9933 34.255 18.77 34.3476 18.5371 34.3476C18.3043 34.3476 18.081 34.255 17.9163 34.0901L16.8182 32.9907C16.4753 32.6475 16.4753 32.091 16.8182 31.7478Z" fill="#AEAEAE"/>
<path d="M18.1618 11.9297C18.1618 12.2533 18.4238 12.5156 18.7471 12.5156H29.2822C29.6055 12.5156 29.8675 12.2533 29.8675 11.9297V9.58594C29.8675 9.26232 29.6055 9 29.2822 9H18.7471C18.4238 9 18.1618 9.26232 18.1618 9.58594V11.9297Z" fill="#AEAEAE"/>
</svg>
