<svg width="18" height="18" viewBox="0 0 18 18" fill="none" xmlns="http://www.w3.org/2000/svg">
<path d="M7.03125 17.4376L3.375 17.7188L1.96875 6.96385L4.9275 3.3976L4.99781 3.38916L3.03187 7.47572L7.03125 17.4376Z" fill="#694338"/>
<path d="M11.9869 4.1625L7.71752 2.53125L7.18877 2.74219L6.73314 2.925L5.97377 3.22875C6.25037 3.66451 6.59947 4.04975 7.00596 4.36781C7.06268 4.32167 7.12626 4.28467 7.19439 4.25813C7.40189 4.18042 7.63159 4.18728 7.83407 4.27722C8.03656 4.36716 8.19565 4.53299 8.27711 4.73904C8.35857 4.94508 8.35589 5.17487 8.26964 5.37896C8.1834 5.58304 8.02049 5.74512 7.81596 5.83031C7.64307 5.90011 7.45174 5.90978 7.27271 5.85775C7.09367 5.80572 6.93732 5.69502 6.82877 5.54344C6.28596 5.34094 5.72064 4.78125 5.25377 4.15687L3.64502 7.49813L7.68939 17.7188L16.0313 14.3831L11.9869 4.1625ZM13.0416 13.455C12.9869 13.4757 12.928 13.4824 12.87 13.4747L10.7185 13.1681L9.36564 14.8753C9.32919 14.9222 9.28054 14.9582 9.22502 14.9794C9.17491 14.9993 9.12077 15.007 9.0671 15.0018C9.01342 14.9966 8.96175 14.9787 8.91638 14.9496C8.87101 14.9204 8.83325 14.8809 8.80622 14.8342C8.77919 14.7875 8.76367 14.7351 8.76096 14.6813L8.63721 12.4847L6.59252 12.1922C6.53335 12.1837 6.47747 12.1597 6.43055 12.1227C6.38363 12.0856 6.34733 12.0368 6.32533 11.9812L6.30283 11.925C6.27157 11.8472 6.27006 11.7606 6.29859 11.6817C6.32712 11.6029 6.3837 11.5373 6.45752 11.4975L8.43189 10.44L8.38971 8.26875C8.38778 8.19941 8.40726 8.13115 8.44551 8.07328C8.48376 8.0154 8.53891 7.97072 8.60346 7.94531L8.68783 7.91156C8.75194 7.88521 8.82265 7.87945 8.89017 7.89507C8.95769 7.91069 9.01869 7.94692 9.06471 7.99875L10.5188 9.6075L12.676 9.01125C12.7565 8.9897 12.8422 8.9984 12.9169 9.03571C12.9915 9.07302 13.0498 9.13635 13.081 9.21375L13.1035 9.27C13.1255 9.3262 13.1325 9.3872 13.1236 9.44692C13.1147 9.50663 13.0903 9.56297 13.0528 9.61031L11.7647 11.2331L13.1766 12.9178C13.2112 12.9593 13.2356 13.0083 13.2477 13.061C13.2597 13.1136 13.2591 13.1684 13.246 13.2208C13.2328 13.2732 13.2074 13.3217 13.1719 13.3624C13.1364 13.4031 13.0917 13.4349 13.0416 13.455Z" fill="#694338"/>
<path d="M7.24254 5.34371C6.58497 5.34371 5.70325 4.40968 5.08141 3.40618C4.44354 2.37596 4.11672 1.3494 4.24863 0.790552C4.26508 0.704271 4.29885 0.622222 4.34792 0.549371C4.39699 0.476519 4.46032 0.414379 4.5341 0.366708C5.19813 -0.0411043 6.28375 1.04171 7.01247 2.21649C7.05022 2.27985 7.06157 2.3555 7.04408 2.42715C7.02659 2.49879 6.98165 2.5607 6.91896 2.59954C6.85626 2.63838 6.78081 2.65103 6.70887 2.63478C6.63694 2.61852 6.57426 2.57466 6.53435 2.51265C5.73475 1.2234 4.9526 0.772271 4.82857 0.847364C4.81105 0.8686 4.79984 0.894325 4.79622 0.921614C4.71494 1.26558 4.95119 2.12761 5.5601 3.11086C6.35913 4.40152 7.14269 4.85461 7.26532 4.77755C7.29671 4.75557 7.33227 4.74024 7.3698 4.7325C7.40734 4.72476 7.44606 4.72477 7.48359 4.73254C7.52112 4.7403 7.55667 4.75565 7.58805 4.77765C7.61943 4.79965 7.64599 4.82783 7.66609 4.86047C7.68619 4.8931 7.6994 4.92949 7.70493 4.96742C7.71045 5.00534 7.70816 5.044 7.69821 5.08101C7.68825 5.11802 7.67084 5.1526 7.64704 5.18264C7.62323 5.21268 7.59354 5.23753 7.55979 5.25568C7.46441 5.31426 7.35446 5.34477 7.24254 5.34371Z" fill="#694338"/>
</svg>
