<svg width="42" height="42" viewBox="0 0 42 42" fill="none" xmlns="http://www.w3.org/2000/svg">
<rect width="42" height="42" rx="21" fill="#FFD0A6"/>
<g clip-path="url(#clip0_16_605)">
<path d="M27.7544 30.0513H29.0228C29.5202 30.0513 29.9235 29.648 29.9235 29.1506V19.7126C29.9235 19.263 30.2466 18.8533 30.6938 18.8082C31.2081 18.7563 31.6422 19.1595 31.6422 19.6631V29.1506C31.6422 30.5971 30.4693 31.77 29.0228 31.77H27.7544C27.2797 31.77 26.895 31.3853 26.895 30.9106C26.895 30.4359 27.2797 30.0513 27.7544 30.0513Z" fill="#694338"/>
<path d="M12.9768 31.7698C11.5303 31.7698 10.3574 30.597 10.3574 29.1505V13.6645C10.3574 12.218 11.5303 11.0452 12.9768 11.0452H14.5477C14.5718 10.5914 14.943 10.2305 15.4002 10.2305C15.8609 10.2305 16.2321 10.5914 16.2562 11.0452C16.2596 11.0452 16.2596 11.0761 16.2596 11.0761V11.0898V12.7158V12.7295V12.7639C16.2321 13.2142 15.8609 13.5752 15.4002 13.5752C14.943 13.5752 14.5718 13.2142 14.5477 12.7639H12.9768C12.4794 12.7639 12.0762 13.1671 12.0762 13.6645V15.7098H29.9237V13.6645C29.9237 13.1671 29.5205 12.7639 29.023 12.7639H27.4521C27.428 13.2142 27.0568 13.5752 26.5996 13.5752C26.139 13.5752 25.7677 13.2142 25.7437 12.7639H21.8559C21.8284 13.2142 21.4571 13.5752 20.9999 13.5752C20.5427 13.5752 20.1715 13.2142 20.144 12.7639H18.5593C18.122 12.7639 17.7181 12.4652 17.6477 12.0338C17.5576 11.4838 18.023 11.0452 18.5459 11.0452H20.1443C20.1718 10.5914 20.5431 10.2305 21.0003 10.2305C21.4575 10.2305 21.8287 10.5914 21.8562 11.0452H25.7437C25.7677 10.5914 26.139 10.2305 26.5996 10.2305C27.0568 10.2305 27.428 10.5914 27.4521 11.0452H29.023C30.4695 11.0452 31.6424 12.218 31.6424 13.6645V16.2461C31.6424 16.8992 31.113 17.4286 30.4599 17.4286H12.0762V29.1505C12.0762 29.6479 12.4794 30.0511 12.9768 30.0511H14.2452C14.72 30.0511 15.1046 30.4357 15.1046 30.9105C15.1046 31.3852 14.72 31.7698 14.2452 31.7698H12.9768Z" fill="#694338"/>
<path d="M21.0003 20.1665C17.8014 20.1665 15.1992 22.769 15.1992 25.9673C15.1992 29.1662 17.8017 31.7684 21.0003 31.7684C24.1989 31.7684 26.8011 29.1659 26.8011 25.9673C26.8011 22.769 24.1986 20.1665 21.0003 20.1665ZM21.0003 30.2133C18.6591 30.2133 16.7547 28.3089 16.7547 25.9676C16.7547 23.6267 18.6591 21.7223 21.0003 21.7223C23.3413 21.7223 25.2457 23.6267 25.2457 25.9676C25.2453 28.3086 23.3409 30.2133 21.0003 30.2133Z" fill="#694338"/>
<path d="M22.9412 23.7754C22.7095 23.7754 22.4775 23.8606 22.3074 24.0311L20.3274 26.0111L19.679 25.3628C19.3432 25.0277 18.7561 25.0284 18.4213 25.3628C18.0768 25.7069 18.0785 26.2769 18.4213 26.6206L19.7041 27.9028C19.8715 28.0709 20.0953 28.1634 20.3329 28.1634C20.579 28.1634 20.8079 28.0702 20.9764 27.9004C20.9764 27.9004 23.5675 25.3089 23.5758 25.3006C23.9213 24.9551 23.9206 24.3752 23.5758 24.0315C23.4053 23.8606 23.1733 23.7754 22.9412 23.7754Z" fill="#694338"/>
</g>
<defs>
<clipPath id="clip0_16_605">
<rect width="22" height="22" fill="white" transform="translate(10 10)"/>
</clipPath>
</defs>
</svg>
