<svg width="18" height="18" viewBox="0 0 18 18" fill="none" xmlns="http://www.w3.org/2000/svg">
<path fill-rule="evenodd" clip-rule="evenodd" d="M3.42634 12.5073C4.82996 14.813 6.75968 16.7505 8.85974 17.9625C8.90284 17.9877 8.9503 18 8.99988 18C9.0473 18 9.09691 17.9877 9.14001 17.9625C11.2401 16.7505 13.1698 14.8131 14.5734 12.5073C16.059 10.0677 16.8459 7.4437 16.8459 4.91934C16.8459 4.82168 16.7942 4.7309 16.7123 4.67979L9.14648 0.0417988C9.05591 -0.0136074 8.9438 -0.0136074 8.85324 0.0417988L1.28747 4.67979C1.20338 4.7309 1.15381 4.82164 1.15381 4.91934C1.15381 7.4437 1.93864 10.0677 3.42634 12.5073ZM5.83905 9.9271C4.65752 8.55042 4.22625 7.40274 4.55616 6.51463C4.86448 5.68149 5.63852 5.12114 6.5247 5.08686C6.5549 5.08577 6.58292 5.08514 6.61094 5.08514C7.45181 5.08514 8.25175 5.56724 8.76057 6.38849C8.81232 6.47107 8.90288 6.52131 8.99988 6.52131C9.09691 6.52131 9.18747 6.47107 9.23922 6.38849C9.7653 5.53964 10.6019 5.05276 11.4729 5.08686C12.3613 5.12114 13.1353 5.68153 13.4436 6.51463C13.7735 7.40271 13.3401 8.55042 12.1607 9.9271C11.1431 11.1134 9.81272 12.1813 9.01928 12.8195C9.01281 12.8247 9.00634 12.8301 8.99988 12.8353C8.99341 12.8301 8.98694 12.8247 8.97832 12.8195C8.18488 12.1813 6.85671 11.1134 5.83905 9.9271ZM10.6062 9.263H9.28014V10.589C9.28014 10.7445 9.15509 10.8704 8.99984 10.8704C8.84459 10.8704 8.71739 10.7445 8.71739 10.589V9.263H7.39141C7.23616 9.263 7.11111 9.13707 7.11111 8.98186C7.11111 8.8264 7.23616 8.70047 7.39141 8.70047H8.71739V7.37402C8.71739 7.21898 8.84459 7.09288 8.99984 7.09288C9.15509 7.09288 9.28014 7.21902 9.28014 7.37402V8.70047H10.6062C10.7614 8.70047 10.8886 8.82636 10.8886 8.98186C10.8886 9.13711 10.7614 9.263 10.6062 9.263ZM8.62687 13.2578C7.81831 12.6073 6.4643 11.5189 5.41211 10.2934C4.08827 8.75007 3.62255 7.41287 4.0279 6.31909C4.41599 5.27231 5.38841 4.56788 6.50311 4.52478C7.45395 4.48769 8.36383 4.94005 8.99988 5.75008C9.63592 4.94001 10.5437 4.4879 11.4945 4.52478C12.6113 4.56792 13.5816 5.27231 13.9718 6.31909C14.3772 7.41287 13.9115 8.75011 12.5876 10.2934C11.5354 11.519 10.1814 12.6074 9.3707 13.2578C9.30173 13.3137 9.23704 13.3661 9.17664 13.4154C9.12489 13.4568 9.06235 13.4775 8.99984 13.4775C8.93733 13.4775 8.87479 13.4568 8.82304 13.4154C8.76271 13.3661 8.69588 13.3137 8.62687 13.2578Z" fill="#694338"/>
</svg>
