<svg width="18" height="18" viewBox="0 0 18 18" fill="none" xmlns="http://www.w3.org/2000/svg">
<path d="M16.688 3.18359H14.9674V3.99676C14.967 4.34685 14.8278 4.6825 14.5803 4.93006C14.3327 5.17761 13.997 5.31685 13.647 5.31723H13.5214C13.1713 5.31685 12.8357 5.17761 12.5881 4.93006C12.3406 4.6825 12.2013 4.34685 12.201 3.99676V3.18359H6.12527V3.99676C6.1249 4.34685 5.98566 4.6825 5.73811 4.93006C5.49055 5.17761 5.1549 5.31685 4.8048 5.31723H4.6793C4.3292 5.31685 3.99355 5.17761 3.746 4.93006C3.49844 4.6825 3.3592 4.34685 3.35883 3.99676V3.18359H1.31168C1.12239 3.18387 0.940942 3.25919 0.807097 3.39303C0.673252 3.52688 0.597935 3.70833 0.597656 3.89762V5.82664C0.598307 6.01568 0.673787 6.19677 0.807592 6.33032C0.941397 6.46386 1.12264 6.53898 1.31168 6.53926H16.688C16.8771 6.53917 17.0585 6.46411 17.1924 6.33054C17.3263 6.19697 17.4018 6.01577 17.4023 5.82664V3.89762C17.4022 3.70824 17.3268 3.52668 17.1929 3.39281C17.0589 3.25893 16.8773 3.18369 16.688 3.18359Z" fill="#694338"/>
<path d="M4.80437 1.2832H4.67887C4.18259 1.2832 3.78027 1.68552 3.78027 2.1818V3.99691C3.78027 4.49319 4.18259 4.89551 4.67887 4.89551H4.80437C5.30065 4.89551 5.70297 4.49319 5.70297 3.99691V2.1818C5.70297 1.68552 5.30065 1.2832 4.80437 1.2832Z" fill="#694338"/>
<path d="M13.6471 1.2832H13.5216C13.0254 1.2832 12.623 1.68552 12.623 2.1818V3.99691C12.623 4.49319 13.0254 4.89551 13.5216 4.89551H13.6471C14.1434 4.89551 14.5457 4.49319 14.5457 3.99691V2.1818C14.5457 1.68552 14.1434 1.2832 13.6471 1.2832Z" fill="#694338"/>
<path d="M1.44531 6.96289V15.0186C1.44578 15.4689 1.62487 15.9006 1.94328 16.219C2.26169 16.5374 2.69341 16.7165 3.14371 16.717H14.8557C15.306 16.7165 15.7377 16.5374 16.0561 16.219C16.3745 15.9006 16.5536 15.4689 16.5541 15.0186V6.96289H1.44531ZM11.1361 8.18773C11.2472 8.23977 10.9509 8.76148 11.2064 9.07754C11.4075 9.32363 11.7391 9.19074 11.8681 9.39395C12.0692 9.71035 11.622 10.5995 11.1347 10.5995C10.7297 10.5995 10.4014 10.0598 10.4014 9.39395C10.4028 8.68379 11.011 8.12902 11.1361 8.18773ZM6.81367 8.18773C6.92477 8.23977 6.62875 8.76148 6.88574 9.07754C7.08684 9.32363 7.41836 9.19074 7.54703 9.39395C7.74848 9.71035 7.30094 10.5995 6.81367 10.5995C6.40867 10.5995 6.08031 10.0598 6.08031 9.39395C6.08172 8.68379 6.68887 8.12902 6.81367 8.18773ZM13.0075 13.9323C13.0073 14.2066 12.8983 14.4697 12.7043 14.6638C12.5103 14.8578 12.2472 14.967 11.9729 14.9673H6.02758C5.75304 14.9672 5.48977 14.8581 5.29558 14.6641C5.10139 14.47 4.99215 14.2068 4.99188 13.9323V12.8009L5.08715 12.7552C5.27488 12.6652 5.45207 12.5795 5.81594 12.5795C6.1798 12.5795 6.35734 12.6649 6.54508 12.7552C6.74477 12.8512 6.95148 12.95 7.36035 12.95C7.76922 12.95 7.97629 12.8512 8.17598 12.7552C8.36371 12.6652 8.5409 12.5795 8.90477 12.5795C9.26863 12.5795 9.44617 12.6649 9.63391 12.7552C9.83359 12.8512 10.0403 12.95 10.4492 12.95C10.858 12.95 11.0651 12.8512 11.2648 12.7552C11.4525 12.6652 11.6297 12.5795 11.9936 12.5795C12.3575 12.5795 12.5354 12.6649 12.7238 12.7552C12.8146 12.8013 12.9086 12.8409 13.005 12.8737L13.0075 13.9323ZM12.9062 12.3752C12.6953 12.2736 12.4541 12.1583 11.9946 12.1583C11.5352 12.1583 11.2947 12.2736 11.083 12.3752C10.9041 12.461 10.7631 12.5288 10.4502 12.5288C10.1373 12.5288 9.99602 12.461 9.81742 12.3752C9.60649 12.2736 9.36566 12.1583 8.90582 12.1583C8.44598 12.1583 8.20621 12.2736 7.99422 12.3752C7.81527 12.461 7.6743 12.5288 7.36141 12.5288C7.04852 12.5288 6.90754 12.461 6.72859 12.3752C6.51766 12.2736 6.27684 12.1583 5.81699 12.1583C5.35715 12.1583 5.11738 12.2736 4.90539 12.3752L4.6716 12.4877V11.8626C4.67188 11.7013 4.7361 11.5467 4.85017 11.4327C4.96425 11.3187 5.11888 11.2546 5.28016 11.2544H12.7192C12.8806 11.2545 13.0353 11.3186 13.1494 11.4326C13.2636 11.5466 13.3278 11.7013 13.3281 11.8626V12.5158C13.1509 12.4923 13.0374 12.4378 12.9062 12.3752Z" fill="#694338"/>
</svg>
