<svg width="18" height="18" viewBox="0 0 18 18" fill="none" xmlns="http://www.w3.org/2000/svg">
<path d="M16.688 3.18359H14.9674V3.99676C14.967 4.34685 14.8278 4.6825 14.5803 4.93006C14.3327 5.17761 13.997 5.31685 13.647 5.31723H13.5214C13.1713 5.31685 12.8357 5.17761 12.5881 4.93006C12.3406 4.6825 12.2013 4.34685 12.201 3.99676V3.18359H6.12527V3.99676C6.1249 4.34685 5.98566 4.6825 5.73811 4.93006C5.49055 5.17761 5.1549 5.31685 4.8048 5.31723H4.6793C4.3292 5.31685 3.99355 5.17761 3.746 4.93006C3.49844 4.6825 3.3592 4.34685 3.35883 3.99676V3.18359H1.31168C1.12239 3.18387 0.940942 3.25919 0.807097 3.39303C0.673252 3.52688 0.597935 3.70833 0.597656 3.89762V5.82664C0.598307 6.01568 0.673787 6.19677 0.807592 6.33032C0.941397 6.46386 1.12264 6.53898 1.31168 6.53926H16.688C16.8771 6.53917 17.0585 6.46411 17.1924 6.33054C17.3263 6.19697 17.4018 6.01577 17.4023 5.82664V3.89762C17.4022 3.70824 17.3268 3.52668 17.1929 3.39281C17.0589 3.25893 16.8773 3.18369 16.688 3.18359Z" fill="#694338"/>
<path d="M4.80486 1.2832H4.67936C4.18308 1.2832 3.78076 1.68552 3.78076 2.1818V3.99691C3.78076 4.49319 4.18308 4.89551 4.67936 4.89551H4.80486C5.30114 4.89551 5.70346 4.49319 5.70346 3.99691V2.1818C5.70346 1.68552 5.30114 1.2832 4.80486 1.2832Z" fill="#694338"/>
<path d="M13.6471 1.2832H13.5216C13.0254 1.2832 12.623 1.68552 12.623 2.1818V3.99691C12.623 4.49319 13.0254 4.89551 13.5216 4.89551H13.6471C14.1434 4.89551 14.5457 4.49319 14.5457 3.99691V2.1818C14.5457 1.68552 14.1434 1.2832 13.6471 1.2832Z" fill="#694338"/>
<path d="M1.4458 6.96289V15.0186C1.44627 15.4689 1.62535 15.9006 1.94376 16.219C2.26217 16.5374 2.6939 16.7165 3.1442 16.717H14.8562C15.3065 16.7165 15.7382 16.5374 16.0566 16.219C16.375 15.9006 16.5541 15.4689 16.5546 15.0186V6.96289H1.4458ZM11.1366 8.18773C11.2477 8.23977 10.9513 8.76148 11.2069 9.07754C11.408 9.32363 11.7396 9.19074 11.8686 9.39395C12.0697 9.71035 11.6225 10.5995 11.1352 10.5995C10.7302 10.5995 10.4019 10.0598 10.4019 9.39395C10.4033 8.68379 11.0115 8.12902 11.1366 8.18773ZM6.81416 8.18773C6.92525 8.23977 6.62924 8.76148 6.88623 9.07754C7.08732 9.32363 7.41885 9.19074 7.54752 9.39395C7.74896 9.71035 7.30143 10.5995 6.81416 10.5995C6.40916 10.5995 6.0808 10.0598 6.0808 9.39395C6.08221 8.68379 6.68936 8.12902 6.81416 8.18773ZM13.008 13.9323C13.0078 14.2066 12.8987 14.4697 12.7048 14.6638C12.5108 14.8578 12.2477 14.967 11.9733 14.9673H6.02807C5.75353 14.9672 5.49026 14.8581 5.29607 14.6641C5.10187 14.47 4.99264 14.2068 4.99236 13.9323V12.8009L5.08764 12.7552C5.27537 12.6652 5.45256 12.5795 5.81643 12.5795C6.18029 12.5795 6.35783 12.6649 6.54557 12.7552C6.74525 12.8512 6.95197 12.95 7.36084 12.95C7.76971 12.95 7.97678 12.8512 8.17647 12.7552C8.3642 12.6652 8.54139 12.5795 8.90525 12.5795C9.26912 12.5795 9.44666 12.6649 9.63439 12.7552C9.83408 12.8512 10.0408 12.95 10.4497 12.95C10.8585 12.95 11.0656 12.8512 11.2653 12.7552C11.453 12.6652 11.6302 12.5795 11.9941 12.5795C12.3579 12.5795 12.5358 12.6649 12.7243 12.7552C12.8151 12.8013 12.9091 12.8409 13.0055 12.8737L13.008 13.9323ZM12.9067 12.3752C12.6958 12.2736 12.4546 12.1583 11.9951 12.1583C11.5356 12.1583 11.2952 12.2736 11.0835 12.3752C10.9046 12.461 10.7636 12.5288 10.4507 12.5288C10.1378 12.5288 9.9965 12.461 9.81791 12.3752C9.60697 12.2736 9.36615 12.1583 8.90631 12.1583C8.44647 12.1583 8.2067 12.2736 7.99471 12.3752C7.81576 12.461 7.67479 12.5288 7.36189 12.5288C7.049 12.5288 6.90803 12.461 6.72908 12.3752C6.51814 12.2736 6.27732 12.1583 5.81748 12.1583C5.35764 12.1583 5.11787 12.2736 4.90588 12.3752L4.67209 12.4877V11.8626C4.67237 11.7013 4.73659 11.5467 4.85066 11.4327C4.96474 11.3187 5.11936 11.2546 5.28064 11.2544H12.7197C12.881 11.2545 13.0358 11.3186 13.1499 11.4326C13.2641 11.5466 13.3283 11.7013 13.3286 11.8626V12.5158C13.1514 12.4923 13.0379 12.4378 12.9067 12.3752Z" fill="#694338"/>
</svg>
