<svg width="17" height="17" viewBox="0 0 17 17" fill="none" xmlns="http://www.w3.org/2000/svg">
<path d="M4.25882 1.71165L3.45986 0H3.40348L1.79578 3.43503C1.66436 3.71583 1.61572 4.01934 1.64421 4.31415C1.93527 3.76842 2.30449 3.27001 2.74679 2.82771C3.19596 2.37851 3.70307 2.00477 4.25882 1.71165Z" fill="#694338"/>
<path d="M15.2043 3.43503L13.5966 0H13.5402L12.7412 1.71165C13.297 2.00477 13.8041 2.37851 14.2533 2.82771C14.6956 3.27001 15.0648 3.76842 15.3559 4.31415C15.3843 4.01934 15.3357 3.71583 15.2043 3.43503Z" fill="#694338"/>
<path d="M8.50011 15.7002C7.94438 16.2163 7.2004 16.5323 6.38394 16.5323H6.11572C6.47863 16.8247 6.93976 16.9999 7.44205 16.9999H9.55822C10.0605 16.9999 10.5215 16.8246 10.8844 16.5323H10.6163C9.79981 16.5323 9.05583 16.2164 8.50011 15.7002Z" fill="#694338"/>
<path d="M9.23643 11.3663C9.23643 10.9602 8.90609 10.6299 8.50005 10.6299C8.09401 10.6299 7.76367 10.9602 7.76367 11.3663C7.76367 11.7723 8.09401 12.1027 8.50005 12.1027C8.90609 12.1027 9.23643 11.7723 9.23643 11.3663Z" fill="#694338"/>
<path d="M9.80811 1.98242H7.19206C4.27022 1.98242 1.90161 4.35103 1.90161 7.27287V10.3684V10.3684L4.08312 12.6772C4.26873 12.8736 4.37212 13.1337 4.37212 13.4039V14.4782C4.37212 15.0625 4.84583 15.5362 5.43021 15.5362H6.3839C7.03319 15.5362 7.61384 15.2436 8.00202 14.7833V13.0253C7.24798 12.7985 6.70859 12.0711 6.77278 11.2308C6.83739 10.3848 7.52061 9.70241 8.36659 9.6387C9.38188 9.56223 10.2325 10.3667 10.2325 11.3661C10.2325 12.1483 9.71135 12.8108 8.99812 13.0253V14.7833C9.38629 15.2436 9.96698 15.5362 10.6162 15.5362H11.5699C12.1543 15.5362 12.628 15.0625 12.628 14.4782V13.4039C12.628 13.1337 12.7314 12.8736 12.917 12.6772L15.0985 10.3684V7.27291C15.0986 4.35103 12.7299 1.98242 9.80811 1.98242ZM6.10463 7.72039H5.10854V6.72429H6.10463V7.72039ZM11.8917 7.72039H10.8956V6.72429H11.8917V7.72039Z" fill="#694338"/>
</svg>
