<svg width="20" height="20" viewBox="0 0 20 20" fill="none" xmlns="http://www.w3.org/2000/svg">
<g clip-path="url(#clip0_247_2383)">
<path d="M17.0711 2.92895C15.1823 1.0402 12.6711 0 10 0C7.32891 0 4.81766 1.0402 2.92891 2.92895C1.04016 4.8177 0 7.32891 0 10C0 12.6711 1.04016 15.1823 2.92891 17.0711C4.81766 18.9598 7.32891 20 10 20C12.6711 20 15.1823 18.9598 17.0711 17.0711C18.9598 15.1823 20 12.6711 20 10C20 7.32891 18.9598 4.81766 17.0711 2.92895ZM10 18.0372C5.56824 18.0372 1.96281 14.4317 1.96281 10C1.96281 9.99273 1.96305 9.98555 1.96309 9.97836C1.96309 9.97652 1.96281 9.97477 1.96281 9.97293C1.96281 9.96984 1.9632 9.96688 1.96328 9.96383C1.98277 5.5852 5.52133 2.02281 9.89078 1.96422C9.89992 1.96379 9.90898 1.96285 9.91824 1.96285C9.92379 1.96285 9.92918 1.96352 9.93469 1.96367C9.95648 1.96352 9.9782 1.96285 10 1.96285C14.4318 1.96285 18.0372 5.56832 18.0372 10C18.0372 14.4318 14.4318 18.0372 10 18.0372Z" fill="#694338"/>
<path d="M16.1049 10.4829C15.7781 10.4829 15.5132 10.218 15.5132 9.89118C15.5132 9.56439 15.7781 9.29946 16.1049 9.29946H16.8181C16.4831 6.01524 13.8196 3.40989 10.5099 3.16528V3.78618C10.5099 4.11298 10.2449 4.3779 9.91815 4.3779C9.59135 4.3779 9.32643 4.11298 9.32643 3.78618V3.17942C6.06565 3.49896 3.46827 6.1131 3.1744 9.38122H3.81315C4.13995 9.38122 4.40487 9.64614 4.40487 9.97294C4.40487 10.2997 4.13995 10.5647 3.81315 10.5647H3.16956C3.44163 13.8854 6.09108 16.543 9.40823 16.828V16.0779C9.40823 15.7511 9.67315 15.4862 9.99995 15.4862C10.3267 15.4862 10.5917 15.7511 10.5917 16.0779V16.828C13.936 16.5406 16.6015 13.8417 16.8365 10.4829H16.1049ZM12.3953 8.44157L10.4184 10.4185C10.3074 10.5295 10.1569 10.5918 9.99999 10.5918C9.84307 10.5918 9.69252 10.5295 9.58159 10.4185L6.14045 6.97735C5.90936 6.7463 5.90936 6.37165 6.14045 6.14056C6.37151 5.90946 6.74616 5.90946 6.97725 6.14056L10 9.16329L11.5585 7.60478C11.7896 7.37368 12.1642 7.37368 12.3953 7.60478C12.6264 7.83583 12.6264 8.21052 12.3953 8.44157Z" fill="#694338"/>
</g>
<defs>
<clipPath id="clip0_247_2383">
<rect width="20" height="20" fill="white"/>
</clipPath>
</defs>
</svg>
