<svg width="42" height="42" viewBox="0 0 42 42" fill="none" xmlns="http://www.w3.org/2000/svg">
<rect opacity="0.4" width="42" height="42" rx="21" fill="#FFD0A6"/>
<path d="M21 14.5672C19.4523 14.5672 18.193 15.8265 18.193 17.3743V18.5613C17.0351 18.7005 16.1345 19.6883 16.1345 20.883V25.5614C16.1345 26.0782 16.5534 26.4971 17.0702 26.4971H24.9299C25.4466 26.4971 25.8655 26.0782 25.8655 25.5614V20.883C25.8655 19.6882 24.965 18.7005 23.8071 18.5613V17.3743C23.8071 15.8265 22.5478 14.5672 21 14.5672ZM21 16.4386C21.516 16.4386 21.9357 16.8583 21.9357 17.3743V18.5438H20.0644V17.3743C20.0644 16.8583 20.4841 16.4386 21 16.4386ZM23.9942 20.883V24.6257H18.0059V20.883C18.0059 20.6251 18.2158 20.4152 18.4737 20.4152H23.5264C23.7843 20.4152 23.9942 20.6251 23.9942 20.883ZM31.4796 14.193V21.5848C31.4796 23.6441 30.8938 25.7183 29.7855 27.5832C29.5215 28.0275 28.9475 28.1736 28.5032 27.9097C28.0589 27.6457 27.9128 27.0715 28.1768 26.6273C29.1133 25.0514 29.6082 23.3078 29.6082 21.5848V14.8013L20.9551 10.9602L12.3919 14.7989V21.5848C12.3919 26.5797 16.4948 31.1286 21 31.1286C22.5924 31.1286 24.1492 30.6082 25.5021 29.6236C25.9199 29.3195 26.5051 29.4117 26.8092 29.8295C27.1133 30.2473 27.0211 30.8325 26.6033 31.1366C24.9283 32.3556 22.9907 33 21 33C19.5783 33 18.1877 32.6653 16.8668 32.005C15.6337 31.3887 14.5175 30.5188 13.5493 29.4195C11.6245 27.234 10.5205 24.3783 10.5205 21.5848V14.193C10.5205 13.8243 10.737 13.49 11.0734 13.3392L20.5705 9.08186C20.8129 8.97318 21.0901 8.97271 21.3329 9.08046L30.9235 13.3378C31.2617 13.4878 31.4796 13.8231 31.4796 14.193Z" fill="#694338"/>
</svg>
