<svg width="23" height="23" viewBox="0 0 23 23" fill="none" xmlns="http://www.w3.org/2000/svg">
<g clip-path="url(#clip0_122_98)">
<path d="M2.96484 0H4.3125V1.34766H2.96484V0Z" fill="#694338"/>
<path d="M8.35547 0H9.70312V1.34766H8.35547V0Z" fill="#694338"/>
<path d="M13.7461 0H15.0938V1.34766H13.7461V0Z" fill="#694338"/>
<path d="M3.35966 19.6311H21.3923L20.2421 18.4808C20.017 18.2108 19.7798 17.9124 19.5496 17.6096H4.1493L3.55705 17.0173C2.1483 15.6089 1.04996 13.931 0.269531 12.1611V12.405C0.269531 15.0431 1.29671 17.5682 3.16228 19.4337L3.35966 19.6311Z" fill="#694338"/>
<path d="M17.7891 20.9787H2.80164L2.20939 20.3864C1.42941 19.6067 0.780922 18.7308 0.269531 17.7876V23.0002H17.7891V20.9787Z" fill="#694338"/>
<path d="M4.70328 16.2617H22.7305L21.5849 15.1162C19.1053 12.6365 17.7891 9.28984 17.7891 5.78594V1.34766H15.0938V4.04297H13.7461V1.34766H9.70312V4.04297H8.35547V1.34766H4.3125V4.04297H2.96484V1.34766H0.269531V5.78594C0.269531 9.65371 1.77891 13.3238 4.51469 16.0595L4.70328 16.2617ZM15.7676 11.5V12.8477H13.0723V11.5H15.7676ZM15.0938 10.1523H12.3984V8.80469H15.0938V10.1523ZM11.7246 6.10938H14.4199V7.45703H11.7246V6.10938ZM11.7246 12.8477H9.0293V11.5H11.7246V12.8477ZM11.0508 10.1523H8.35547V8.80469H11.0508V10.1523ZM7.68164 6.10938H10.377V7.45703H7.68164V6.10938ZM7.68164 12.8477H4.98633V11.5H7.68164V12.8477ZM3.63867 6.10938H6.33398V7.45703H3.63867V6.10938ZM4.3125 8.80469H7.00781V10.1523H4.3125V8.80469Z" fill="#694338"/>
</g>
<defs>
<clipPath id="clip0_122_98">
<rect width="23" height="23" fill="white"/>
</clipPath>
</defs>
</svg>
