<svg width="42" height="42" viewBox="0 0 42 42" fill="none" xmlns="http://www.w3.org/2000/svg">
<rect width="42" height="42" rx="21" fill="#FFD0A6"/>
<path d="M24.0851 25.0643L23.8858 25.453C23.6621 25.9003 23.1536 26.1127 22.6764 25.958C19.4653 24.917 16.9267 22.3784 15.8857 19.1673C15.7335 18.6979 15.9507 18.178 16.3925 17.957L16.7812 17.7627V12.4062H11.1562V15.9219C11.1562 19.8659 12.6922 23.5739 15.481 26.3628C18.2699 29.1516 21.9778 30.6875 25.9219 30.6875H26.625V31.3906C26.625 31.7783 26.3096 32.0938 25.9219 32.0938H23.1094C21.9463 32.0938 21 33.04 21 34.2031V35H22.4062V34.2031C22.4062 33.8154 22.7217 33.5 23.1094 33.5H25.9219C27.085 33.5 28.0312 32.5537 28.0312 31.3906V30.6875H29.4375V25.0625C29.357 25.0625 30.1982 25.0623 24.0851 25.0643ZM24.9033 26.4688H28.0312V29.2812H25.9219C18.5555 29.2812 12.5625 23.2882 12.5625 15.9219V13.8125H15.375V16.942C15.0429 17.1964 14.7803 17.5349 14.617 17.9259C14.3947 18.4578 14.3702 19.0527 14.548 19.601C15.7276 23.2396 18.6042 26.1161 22.2427 27.2958C23.2388 27.6187 24.293 27.2731 24.9033 26.4688Z" fill="#694338"/>
<path d="M24.5156 23.6562C28.005 23.6562 30.8438 20.8175 30.8438 17.3281C30.8438 13.8388 28.005 11 24.5156 11C21.0263 11 18.1875 13.8388 18.1875 17.3281C18.1875 20.8175 21.0263 23.6562 24.5156 23.6562ZM22.4062 21.7745V21.5469C22.4062 20.3838 23.3525 19.4375 24.5156 19.4375C25.6787 19.4375 26.625 20.3838 26.625 21.5469V21.7745C25.9853 22.0791 25.2701 22.25 24.5156 22.25C23.7612 22.25 23.0459 22.0791 22.4062 21.7745ZM24.5156 12.4062C27.2295 12.4062 29.4375 14.6142 29.4375 17.3281C29.4375 18.7023 28.8712 19.9466 27.9599 20.8404C27.632 19.2393 26.2122 18.0312 24.5156 18.0312C22.819 18.0312 21.3993 19.2393 21.0713 20.8404C20.1601 19.9466 19.5938 18.7023 19.5938 17.3281C19.5938 14.6142 21.8017 12.4062 24.5156 12.4062Z" fill="#694338"/>
<path d="M26.625 15.9219C26.625 14.7588 25.6787 13.8125 24.5156 13.8125C23.3525 13.8125 22.4062 14.7588 22.4062 15.9219C22.4062 17.085 23.3525 18.0312 24.5156 18.0312C25.6787 18.0312 26.625 17.085 26.625 15.9219ZM24.5156 16.625C24.1279 16.625 23.8125 16.3096 23.8125 15.9219C23.8125 15.5342 24.1279 15.2188 24.5156 15.2188C24.9033 15.2188 25.2188 15.5342 25.2188 15.9219C25.2188 16.3096 24.9033 16.625 24.5156 16.625Z" fill="#694338"/>
</svg>
