<svg width="61" height="61" viewBox="0 0 61 61" fill="none" xmlns="http://www.w3.org/2000/svg">
<g clip-path="url(#clip0_442_209)">
<path d="M52.0668 8.93328C46.3061 3.1726 38.6468 0 30.5 0C22.3532 0 14.6939 3.1726 8.93316 8.93328C3.17248 14.694 0 22.3532 0 30.5C0 38.6468 3.17248 46.3061 8.93316 52.0667C14.6939 57.8273 22.3532 61 30.5 61C38.6468 61 46.3061 57.8274 52.0668 52.0667C57.8275 46.306 61 38.6468 61 30.5C61 22.3532 57.8275 14.6939 52.0668 8.93328ZM30.5 55.0134C16.9831 55.0134 5.98658 44.0167 5.98658 30.5C5.98658 30.4778 5.98729 30.4559 5.98741 30.434C5.98741 30.4284 5.98658 30.423 5.98658 30.4174C5.98658 30.408 5.98777 30.399 5.98801 30.3897C6.04746 17.0348 16.84 6.16958 30.1669 5.99087C30.1948 5.98956 30.2224 5.9867 30.2506 5.9867C30.2676 5.9867 30.284 5.98872 30.3008 5.9892C30.3673 5.98872 30.4335 5.9867 30.5001 5.9867C44.017 5.9867 55.0135 16.9834 55.0135 30.5001C55.0135 44.0169 44.0169 55.0134 30.5 55.0134Z" fill="#694338" fill-opacity="0.11"/>
<path d="M49.1198 31.9725C48.1231 31.9725 47.3151 31.1645 47.3151 30.1678C47.3151 29.1711 48.1231 28.3631 49.1198 28.3631H51.2952C50.2735 18.3462 42.1497 10.3999 32.0549 9.65381V11.5475C32.0549 12.5443 31.2469 13.3523 30.2502 13.3523C29.2535 13.3523 28.4455 12.5443 28.4455 11.5475V9.69694C18.5001 10.6715 10.5781 18.6446 9.68177 28.6124H11.63C12.6267 28.6124 13.4347 29.4204 13.4347 30.4172C13.4347 31.4139 12.6267 32.2219 11.63 32.2219H9.66699C10.4968 42.3502 18.5776 50.4558 28.6949 51.3252V49.0373C28.6949 48.0406 29.503 47.2326 30.4997 47.2326C31.4964 47.2326 32.3044 48.0406 32.3044 49.0373V51.3252C42.5045 50.4486 50.6346 42.2167 51.3511 31.9725H49.1198ZM37.8054 25.7465L31.7759 31.7761C31.4374 32.1146 30.9785 32.3047 30.4998 32.3047C30.0212 32.3047 29.562 32.1146 29.2237 31.7761L18.7282 21.2806C18.0234 20.5759 18.0234 19.4332 18.7282 18.7284C19.433 18.0236 20.5756 18.0236 21.2805 18.7284L30.4999 27.9477L35.2534 23.1943C35.9581 22.4894 37.1008 22.4894 37.8056 23.1943C38.5102 23.899 38.5102 25.0418 37.8054 25.7465Z" fill="#694338" fill-opacity="0.11"/>
</g>
<defs>
<clipPath id="clip0_442_209">
<rect width="61" height="61" fill="white"/>
</clipPath>
</defs>
</svg>
