<svg width="23" height="23" viewBox="0 0 23 23" fill="none" xmlns="http://www.w3.org/2000/svg">
<path d="M1.20329 11.9143L3.10861 12.7083C3.36713 12.8159 3.64035 12.8702 3.91361 12.8702C4.18318 12.8702 4.45455 12.8168 4.71124 12.711L6.01397 12.1746C6.30561 12.055 6.62671 12.0559 6.9174 12.1783L8.1594 12.7009C8.68197 12.9217 9.25697 12.9226 9.7795 12.7046L11.0482 12.1765C11.3389 12.055 11.6609 12.055 11.9516 12.1765L13.2203 12.7046C13.7419 12.9226 14.3169 12.9217 14.8404 12.7009L16.0815 12.1783C16.3731 12.055 16.6942 12.055 16.9859 12.1746L18.2886 12.711C18.8057 12.9244 19.3751 12.9235 19.8922 12.7073L21.7966 11.9143C21.9687 11.8425 22.08 11.6751 22.08 11.4902V8.73015C22.08 7.96841 21.4608 7.35015 20.7 7.35015H16.56V6.34458C17.0945 6.15415 17.48 5.64815 17.48 5.05015C17.48 3.97005 16.5333 2.9921 16.4247 2.88447C16.2453 2.70505 15.9546 2.70505 15.7743 2.88447C15.6666 2.9921 14.72 3.97005 14.72 5.05015C14.72 5.64815 15.1054 6.15415 15.64 6.34458V7.35015H11.96V5.42458C12.4945 5.23415 12.88 4.72815 12.88 4.13015C12.88 3.1301 12.0105 1.36189 11.9112 1.1641C11.7548 0.852203 11.2451 0.852203 11.0888 1.1641C10.9894 1.36189 10.12 3.13015 10.12 4.13015C10.12 4.72815 10.5055 5.23415 11.04 5.42458V7.35015H7.36001V6.34458C7.89454 6.15415 8.28001 5.64815 8.28001 5.05015C8.28001 3.97005 7.33333 2.9921 7.22475 2.88447C7.04533 2.70505 6.75464 2.70505 6.57433 2.88447C6.4667 2.9921 5.52001 3.97005 5.52001 5.05015C5.52001 5.64815 5.90549 6.15415 6.44001 6.34458V7.35015H2.29992C1.53908 7.35015 0.919922 7.96841 0.919922 8.73015V11.4902C0.919922 11.6751 1.03124 11.8425 1.20329 11.9143Z" fill="#694338"/>
<path d="M21.62 18.3901H1.38C0.619158 18.3901 0 19.0084 0 19.7701C0 21.0379 1.03132 22.0701 2.3 22.0701H20.7C21.9687 22.0701 23 21.0379 23 19.7701C23 19.0084 22.3808 18.3901 21.62 18.3901Z" fill="#694338"/>
<path d="M17.9382 13.5611L16.6355 13.0247C16.6042 13.0118 16.571 13.0054 16.5389 13.0054C16.5039 13.0054 16.4717 13.0118 16.4386 13.0257L15.1975 13.5492C14.8222 13.7074 14.4293 13.7874 14.0264 13.7874C13.6271 13.7874 13.2379 13.7083 12.8653 13.5537L11.5985 13.0256C11.5663 13.0118 11.5322 13.0054 11.5 13.0054C11.4678 13.0054 11.4338 13.0118 11.4025 13.0247L10.1329 13.5537C9.7622 13.7083 9.37209 13.7874 8.97373 13.7874C8.57078 13.7874 8.17794 13.7073 7.80167 13.5491L6.56151 13.0256C6.53025 13.0127 6.49525 13.0054 6.46125 13.0054C6.42814 13.0054 6.39499 13.0127 6.36282 13.0256L5.06193 13.5611C4.69393 13.7128 4.30751 13.7901 3.91377 13.7901C3.5154 13.7901 3.12625 13.7119 2.75551 13.5574L1.84009 13.1765V17.4701H21.1601V13.1765L20.2456 13.5574C19.8749 13.7119 19.4857 13.7901 19.0864 13.7901C18.6926 13.7902 18.3053 13.7129 17.9382 13.5611Z" fill="#694338"/>
</svg>
