<svg width="15" height="15" viewBox="0 0 15 15" fill="none" xmlns="http://www.w3.org/2000/svg">
<path d="M13.3645 0H11.9626V1.40187C11.9626 1.68224 11.729 1.86916 11.4953 1.86916C11.2617 1.86916 11.028 1.68224 11.028 1.40187V0H3.5514V1.40187C3.5514 1.68224 3.31776 1.86916 3.08411 1.86916C2.85047 1.86916 2.61682 1.68224 2.61682 1.40187V0H1.21495C0.514019 0 0 0.607477 0 1.40187V3.08411H14.9533V1.40187C14.9533 0.607477 14.1122 0 13.3645 0ZM0 4.06542V12.6168C0 13.4579 0.514019 14.0187 1.26168 14.0187H13.4112C14.1589 14.0187 15 13.4112 15 12.6168V4.06542H0ZM4.15888 11.9159H3.03738C2.85047 11.9159 2.66355 11.7757 2.66355 11.5421V10.3738C2.66355 10.1869 2.80374 10 3.03738 10H4.20561C4.39252 10 4.57944 10.1402 4.57944 10.3738V11.5421C4.53271 11.7757 4.39252 11.9159 4.15888 11.9159ZM4.15888 7.71028H3.03738C2.85047 7.71028 2.66355 7.57009 2.66355 7.33645V6.16822C2.66355 5.98131 2.80374 5.79439 3.03738 5.79439H4.20561C4.39252 5.79439 4.57944 5.93458 4.57944 6.16822V7.33645C4.53271 7.57009 4.39252 7.71028 4.15888 7.71028ZM7.8972 11.9159H6.72897C6.54206 11.9159 6.35514 11.7757 6.35514 11.5421V10.3738C6.35514 10.1869 6.49533 10 6.72897 10H7.8972C8.08411 10 8.27103 10.1402 8.27103 10.3738V11.5421C8.27103 11.7757 8.13084 11.9159 7.8972 11.9159ZM7.8972 7.71028H6.72897C6.54206 7.71028 6.35514 7.57009 6.35514 7.33645V6.16822C6.35514 5.98131 6.49533 5.79439 6.72897 5.79439H7.8972C8.08411 5.79439 8.27103 5.93458 8.27103 6.16822V7.33645C8.27103 7.57009 8.13084 7.71028 7.8972 7.71028ZM11.6355 11.9159H10.4673C10.2804 11.9159 10.0935 11.7757 10.0935 11.5421V10.3738C10.0935 10.1869 10.2336 10 10.4673 10H11.6355C11.8224 10 12.0093 10.1402 12.0093 10.3738V11.5421C12.0093 11.7757 11.8692 11.9159 11.6355 11.9159ZM11.6355 7.71028H10.4673C10.2804 7.71028 10.0935 7.57009 10.0935 7.33645V6.16822C10.0935 5.98131 10.2336 5.79439 10.4673 5.79439H11.6355C11.8224 5.79439 12.0093 5.93458 12.0093 6.16822V7.33645C12.0093 7.57009 11.8692 7.71028 11.6355 7.71028Z" fill="#694338"/>
</svg>
