<svg width="42" height="42" viewBox="0 0 42 42" fill="none" xmlns="http://www.w3.org/2000/svg">
<circle cx="21" cy="21" r="21" fill="#FFD0A6"/>
<path d="M16.4729 16.9869L14.6316 18.8094L13.9529 18.0495C13.6941 17.7599 13.2498 17.7345 12.9601 17.9933C12.6704 18.2516 12.6455 18.6964 12.9038 18.9861L14.0757 20.2986C14.3434 20.5981 14.8088 20.6131 15.0952 20.3295L17.4624 17.9858C17.738 17.713 17.7404 17.2677 17.4671 16.9916C17.1938 16.7155 16.749 16.7136 16.4729 16.9869Z" fill="#694338" stroke="#694338" stroke-width="0.6"/>
<path d="M19.4751 19.7515H23.4595C23.8481 19.7515 24.1626 19.4369 24.1626 19.0483C24.1626 18.6602 23.8481 18.3452 23.4595 18.3452H19.4751C19.087 18.3452 18.772 18.6602 18.772 19.0483C18.772 19.4369 19.087 19.7515 19.4751 19.7515Z" fill="#694338" stroke="#694338" stroke-width="0.6"/>
<path d="M16.4729 21.4207L14.6316 23.2437L13.9529 22.4834C13.6941 22.1937 13.2498 22.1684 12.9601 22.4271C12.6704 22.6859 12.6455 23.1303 12.9038 23.42L14.0757 24.7325C14.3434 25.0325 14.8088 25.0475 15.0952 24.7639L17.4624 22.4201C17.738 22.1468 17.7404 21.7015 17.4671 21.4259C17.1938 21.1498 16.749 21.1475 16.4729 21.4207Z" fill="#694338" stroke="#694338" stroke-width="0.6"/>
<path d="M16.4729 25.8555L14.6316 27.678L13.9529 26.9182C13.6941 26.6285 13.2498 26.6032 12.9601 26.8619C12.6704 27.1202 12.6455 27.5651 12.9038 27.8548L14.0757 29.1673C14.3434 29.4668 14.8088 29.4818 15.0952 29.1982L17.4624 26.8544C17.738 26.5816 17.7404 26.1363 17.4671 25.8602C17.1938 25.5841 16.749 25.5823 16.4729 25.8555Z" fill="#694338" stroke="#694338" stroke-width="0.6"/>
<path d="M19.4949 24.1855H21.4485C21.8368 24.1855 22.1516 23.8707 22.1516 23.4824C22.1516 23.0941 21.8368 22.7793 21.4485 22.7793H19.4751C19.076 22.7793 18.7542 23.112 18.7727 23.5157C18.7902 23.8942 19.116 24.1855 19.4949 24.1855Z" fill="#694338" stroke="#694338" stroke-width="0.6"/>
<path d="M30.7972 24.7178C31.5567 23.9319 31.7926 22.7595 31.4977 21.2313C31.4433 20.9492 31.2226 20.7286 30.9405 20.6742C29.6723 20.4293 28.649 20.5501 27.8883 21.0323V13.9819C27.8883 13.0772 27.1519 12.3412 26.2477 12.3412H23.7146C23.424 11.5186 22.6388 10.9275 21.7182 10.9275H20.6911C20.5242 9.83766 19.5802 9 18.4439 9C17.3081 9 16.3641 9.83766 16.1967 10.9275H15.1702C14.2495 10.9275 13.4639 11.5186 13.1737 12.3412H10.6406C9.73594 12.3412 9 13.0772 9 13.9819V31.3594C9 32.2641 9.73594 33 10.6406 33H29.4561C29.6947 33 30.486 32.8112 31.0528 32.1104C33.5235 29.0564 32.6307 25.9256 30.7972 24.7178ZM30.1904 21.9815C30.2771 22.7952 30.1361 23.3917 29.7693 23.7583C29.3184 24.2089 28.5249 24.3085 27.8918 24.2803C27.8107 22.4758 28.6282 21.8149 30.1904 21.9815ZM15.0656 12.3412C15.143 12.3305 15.0136 12.3338 16.8736 12.3338C17.2622 12.3338 17.5767 12.0192 17.5767 11.6306V11.2734C17.5767 10.7953 17.9658 10.4062 18.4439 10.4062C18.922 10.4062 19.3111 10.7953 19.3111 11.2734V11.6306C19.3111 12.0192 19.6261 12.3338 20.0142 12.3338C21.8737 12.3338 21.7463 12.3305 21.8222 12.3412C22.1644 12.3919 22.4283 12.6881 22.4283 13.0444C22.4283 13.4006 22.1644 13.6969 21.8222 13.7475C21.7397 13.7587 15.1556 13.7597 15.0656 13.7475C14.7234 13.6969 14.4595 13.4006 14.4595 13.0444C14.4595 12.6881 14.7234 12.3919 15.0656 12.3412ZM19.4752 28.6195H21.8152C21.8917 29.6114 22.2689 30.6278 22.9314 31.5938H10.6406C10.5113 31.5938 10.4062 31.4888 10.4062 31.3594V13.9819C10.4062 13.8525 10.5113 13.7475 10.6406 13.7475H13.1737C13.4639 14.5702 14.2495 15.1613 15.1702 15.1613H21.7181C22.6388 15.1613 23.4239 14.5702 23.7145 13.7475H26.2477C26.3766 13.7475 26.482 13.8525 26.482 13.9819V24.5009C25.9817 24.2523 25.4362 24.1537 24.8814 24.2239C23.5119 24.3972 22.2936 25.5549 21.9153 27.2133H19.4752C19.087 27.2133 18.772 27.5283 18.772 27.9164C18.772 28.305 19.087 28.6195 19.4752 28.6195ZM29.9595 31.226C29.8138 31.4062 29.6055 31.5381 29.3814 31.5938C28.9616 31.5938 25.4944 31.5938 25.0529 31.5938C24.795 31.5468 24.5626 31.4143 24.4103 31.2259C22.1083 28.3804 23.5674 25.8077 25.058 25.619C25.6344 25.5462 26.174 25.827 26.6185 26.4314C26.8994 26.8132 27.4707 26.813 27.7514 26.4314C28.1959 25.827 28.7354 25.5461 29.312 25.619C30.8019 25.8076 32.2621 28.3797 29.9595 31.226Z" fill="#694338" stroke="#694338" stroke-width="0.6"/>
</svg>
