<svg width="17" height="17" viewBox="0 0 17 17" fill="none" xmlns="http://www.w3.org/2000/svg">
<g clip-path="url(#clip0_150_3416)">
<path d="M14.8218 11.8482L11.9466 10.0444C11.9395 10.0516 11.9327 10.0588 11.9256 10.0659C11.8591 10.1324 11.7907 10.1961 11.7207 10.2575V12.8162H12.2519C12.8927 12.8162 13.414 13.3375 13.414 13.9783V14.8416C13.414 15.2993 13.0417 15.6716 12.584 15.6716H12.0859C11.8108 15.6716 11.5879 15.4486 11.5879 15.1736C11.5879 14.8985 11.8108 14.6755 12.0859 14.6755H12.4179V13.9783C12.4179 13.8867 12.3435 13.8123 12.2519 13.8123H10.1269C10.0354 13.8123 9.9609 13.8867 9.9609 13.9783V14.6755H10.2929C10.568 14.6755 10.791 14.8985 10.791 15.1736C10.791 15.4486 10.568 15.6716 10.2929 15.6716H9.79489C9.33718 15.6716 8.96481 15.2993 8.96481 14.8416V13.9783C8.96481 13.3375 9.48613 12.8162 10.1269 12.8162H10.7246V10.9059C10.1827 11.1565 9.58823 11.2888 8.97338 11.2888H8.02659C7.40546 11.2888 6.80511 11.1539 6.25876 10.8983V12.9407C6.82982 13.1509 7.23825 13.7004 7.23825 14.3435C7.23825 15.1674 6.56798 15.8376 5.74411 15.8376C4.92024 15.8376 4.24997 15.1674 4.24997 14.3435C4.24997 13.6881 4.67437 13.1303 5.26266 12.9294V10.2428C5.19845 10.1859 5.13556 10.1271 5.07437 10.066C5.06726 10.0589 5.06042 10.0516 5.05335 10.0445L2.17812 11.8482C0.82284 12.6984 0 14.1859 0 15.7859V16.9998H17V15.7859C17 14.1859 16.1772 12.6984 14.8218 11.8482Z" fill="#694338"/>
<path d="M5.74414 14.8418C6.01876 14.8418 6.24219 14.6184 6.24219 14.3438C6.24219 14.0691 6.01876 13.8457 5.74414 13.8457C5.46952 13.8457 5.24609 14.0691 5.24609 14.3438C5.24609 14.6184 5.46952 14.8418 5.74414 14.8418Z" fill="#694338"/>
<path d="M4.84766 5.0754H12.1523V1.99219C12.1523 0.891936 11.2604 0 10.1602 0H6.83984C5.73959 0 4.84766 0.891936 4.84766 1.99219V5.0754ZM7.66992 2.29102H8.00195V1.95898C8.00195 1.68393 8.22495 1.46094 8.5 1.46094C8.77505 1.46094 8.99805 1.68393 8.99805 1.95898V2.29102H9.33008C9.60513 2.29102 9.82812 2.51401 9.82812 2.78906C9.82812 3.06412 9.60513 3.28711 9.33008 3.28711H8.99805V3.61914C8.99805 3.8942 8.77505 4.11719 8.5 4.11719C8.22495 4.11719 8.00195 3.8942 8.00195 3.61914V3.28711H7.66992C7.39487 3.28711 7.17188 3.06412 7.17188 2.78906C7.17188 2.51401 7.39487 2.29102 7.66992 2.29102Z" fill="#694338"/>
<path d="M8.02662 10.2928H8.97341C10.7291 10.2928 12.1523 8.86952 12.1523 7.1138V6.07129H4.84766V7.1138C4.84766 8.86952 6.27091 10.2928 8.02662 10.2928Z" fill="#694338"/>
</g>
<defs>
<clipPath id="clip0_150_3416">
<rect width="17" height="17" fill="white"/>
</clipPath>
</defs>
</svg>
