<svg width="79" height="79" viewBox="0 0 79 79" fill="none" xmlns="http://www.w3.org/2000/svg">
<circle opacity="0.5" cx="39.5" cy="39.5" r="39.5" fill="#FFD0A6"/>
<circle cx="39.5" cy="39.5" r="32.5" fill="#FFD0A6"/>
<g clip-path="url(#clip0_14_2401)">
<path d="M50.2609 34.6317H36.3855L42.5991 28.4182C42.9423 28.0749 42.9423 27.5184 42.5991 27.1752L41.0246 25.6007C40.2237 24.7998 38.9252 24.7998 38.1243 25.6007L36.5054 27.2196L35.6766 26.3909C34.7628 25.477 33.2758 25.4771 32.362 26.3909L29.1302 29.6227C28.2163 30.5366 28.2163 32.0236 29.1302 32.9374L29.9588 33.7662L28.3399 35.3851C27.539 36.1859 27.539 37.4845 28.3399 38.2854L29.9144 39.8599C30.2576 40.2031 30.8141 40.2032 31.1574 39.8599L33.3851 37.6322V51.1913C33.3851 53.2948 35.0904 55 37.1939 55H46.4521C48.5556 55 50.2609 53.2948 50.2609 51.1913V34.6317ZM31.2019 32.5231L30.3732 31.6944C30.1447 31.466 30.1447 31.0942 30.3732 30.8657L33.605 27.6339C33.8335 27.4054 34.2053 27.4054 34.4337 27.6339L35.2623 28.4626L31.2019 32.5231ZM38.7914 50.0779C38.7914 50.5633 38.3979 50.9568 37.9125 50.9568C37.4271 50.9568 37.0336 50.5633 37.0336 50.0779V39.5539C37.0336 39.0684 37.4271 38.6749 37.9125 38.6749C38.3979 38.6749 38.7914 39.0684 38.7914 39.5539V50.0779ZM42.7019 50.0779C42.7019 50.5633 42.3084 50.9568 41.823 50.9568C41.3375 50.9568 40.944 50.5633 40.944 50.0779V39.5539C40.944 39.0684 41.3375 38.6749 41.823 38.6749C42.3084 38.6749 42.7019 39.0684 42.7019 39.5539V50.0779ZM46.6124 50.0779C46.6124 50.5633 46.2189 50.9568 45.7335 50.9568C45.248 50.9568 44.8545 50.5633 44.8545 50.0779V39.5539C44.8545 39.0684 45.248 38.6749 45.7335 38.6749C46.2189 38.6749 46.6124 39.0684 46.6124 39.5539V50.0779Z" fill="black"/>
<path d="M42.8021 31.6529C42.2659 31.8398 41.8897 32.3186 41.8276 32.8741H50.2609V31.4133C50.2609 30.4103 49.2739 29.7044 48.3261 30.0257L42.8203 31.6471C42.8144 31.6488 42.8079 31.6511 42.8021 31.6529Z" fill="black"/>
</g>
<defs>
<clipPath id="clip0_14_2401">
<rect width="30" height="30" fill="white" transform="translate(24 25)"/>
</clipPath>
</defs>
</svg>
