<svg width="27" height="26" viewBox="0 0 27 26" fill="none" xmlns="http://www.w3.org/2000/svg">
<path fill-rule="evenodd" clip-rule="evenodd" d="M3.58984 8.74656H7.82134C8.15853 8.74656 8.43072 8.47356 8.43072 8.13719V3.73994C8.43072 2.23519 7.21116 1.01562 5.70641 1.01562H5.70478C4.20003 1.01562 2.98047 2.23519 2.98047 3.73994V8.13719C2.98047 8.47356 3.25266 8.74656 3.58984 8.74656Z" fill="#694338"/>
<path fill-rule="evenodd" clip-rule="evenodd" d="M9.77845 9.40633C9.77845 8.36877 8.93751 7.52783 7.89995 7.52783H3.51082C2.47326 7.52783 1.63232 8.36877 1.63232 9.40633V9.40796C1.63232 10.4455 2.47326 11.2865 3.51082 11.2865H7.89995C8.93751 11.2865 9.77845 10.4455 9.77845 9.40796V9.40633Z" fill="#694338"/>
<path fill-rule="evenodd" clip-rule="evenodd" d="M15.5132 4.4785C15.5132 4.65644 15.5912 4.82544 15.7269 4.94163C15.8617 5.057 16.0413 5.10819 16.2176 5.07975C16.2859 5.06919 16.3549 5.0635 16.4256 5.0635H20.077C20.1477 5.0635 20.2167 5.06919 20.285 5.07975C20.4613 5.10819 20.6401 5.057 20.7757 4.94163C20.9114 4.82544 20.9894 4.65644 20.9894 4.4785V3.08344C20.9894 2.535 20.7717 2.00931 20.3833 1.62094C19.9957 1.23338 19.4701 1.01562 18.9216 1.01562C18.4886 1.01562 18.0141 1.01562 17.581 1.01562C17.0326 1.01562 16.5069 1.23338 16.1185 1.62094C15.7309 2.00931 15.5132 2.535 15.5132 3.08344V4.4785Z" fill="#694338"/>
<path fill-rule="evenodd" clip-rule="evenodd" d="M22.6315 6.0791C22.6315 4.84573 21.6313 3.84473 20.3971 3.84473H16.1055C14.8713 3.84473 13.8711 4.84573 13.8711 6.0791V7.0411C13.8711 7.37748 14.1441 7.65048 14.4805 7.65048H22.0221C22.3585 7.65048 22.6315 7.37748 22.6315 7.0411V6.0791ZM21.4127 6.0791V6.43173H15.0898V6.0791C15.0898 5.51848 15.5448 5.06348 16.1055 5.06348H20.3971C20.9577 5.06348 21.4127 5.51848 21.4127 6.0791Z" fill="#694338"/>
<path fill-rule="evenodd" clip-rule="evenodd" d="M24.5758 21.0696H11.9268V22.7515C11.9268 23.3438 12.1616 23.9118 12.5808 24.331C13.0001 24.7503 13.568 24.9859 14.1611 24.9859H22.3414C22.9345 24.9859 23.5024 24.7503 23.9217 24.331C24.3409 23.9118 24.5758 23.3438 24.5758 22.7515V21.0696ZM24.5758 19.8509H11.9268V11.6438H24.5758V19.8509ZM18.7908 13.0316C18.6851 12.8317 18.4771 12.7066 18.2513 12.7066C18.0254 12.7066 17.8174 12.8317 17.7118 13.0316C17.7118 13.0316 17.0618 14.2674 16.6718 15.3789C16.4833 15.9143 16.3606 16.427 16.3606 16.7918C16.3606 17.8351 17.2072 18.6825 18.2513 18.6825C19.2945 18.6825 20.1419 17.8351 20.1419 16.7918C20.1419 16.427 20.0193 15.9143 19.8308 15.3789C19.4408 14.2674 18.7908 13.0316 18.7908 13.0316ZM18.2513 14.7191C18.3398 14.9174 18.43 15.1286 18.5153 15.3431C18.729 15.8786 18.9232 16.4295 18.9232 16.7918C18.9232 17.1623 18.6226 17.4638 18.2513 17.4638C17.8799 17.4638 17.5793 17.1623 17.5793 16.7918C17.5793 16.4295 17.7735 15.8786 17.9872 15.3431C18.0725 15.1286 18.1627 14.9174 18.2513 14.7191ZM11.9268 10.4251H24.5758V8.66602C24.5758 8.0737 24.3409 7.50495 23.9217 7.0857C23.5024 6.66727 22.9345 6.43164 22.3414 6.43164C20.1679 6.43164 16.3346 6.43164 14.1611 6.43164C13.568 6.43164 13.0001 6.66727 12.5808 7.0857C12.1616 7.50495 11.9268 8.0737 11.9268 8.66602V10.4251Z" fill="#694338"/>
<path fill-rule="evenodd" clip-rule="evenodd" d="M3.2583 12.0869V13.0002H4.50061C4.83699 13.0002 5.10999 13.2732 5.10999 13.6095C5.10999 13.9459 4.83699 14.2189 4.50061 14.2189H3.2583V15.7602H4.08949C4.42586 15.7602 4.69886 16.0332 4.69886 16.3696C4.69886 16.706 4.42586 16.979 4.08949 16.979H3.2583V18.5203H4.50061C4.83699 18.5203 5.10999 18.7933 5.10999 19.1297C5.10999 19.466 4.83699 19.739 4.50061 19.739H3.25911C3.26643 20.8189 3.44193 21.4485 3.7783 22.4755L4.1228 23.5253C4.34705 24.2094 4.98568 24.6717 5.70555 24.6717C6.42543 24.6717 7.06405 24.2094 7.2883 23.5253L7.6328 22.4755C7.9773 21.4242 8.1528 20.3257 8.1528 19.2199V12.0869C8.06993 12.095 7.98543 12.0991 7.90011 12.0991H3.51099C3.42568 12.0991 3.34118 12.095 3.2583 12.0869Z" fill="#694338"/>
</svg>
