<svg width="16" height="16" viewBox="0 0 16 16" fill="none" xmlns="http://www.w3.org/2000/svg">
<path d="M13.8333 3.83333H12.1667V3C12.1667 2.33696 11.9033 1.70107 11.4344 1.23223C10.9656 0.763392 10.3297 0.5 9.66667 0.5H6.33333C5.67029 0.5 5.03441 0.763392 4.56557 1.23223C4.09673 1.70107 3.83333 2.33696 3.83333 3V3.83333H2.16667C1.72504 3.83465 1.30189 4.01067 0.989612 4.32295C0.677337 4.63522 0.501319 5.05838 0.5 5.5V13.8333C0.501319 14.275 0.677337 14.6981 0.989612 15.0104C1.30189 15.3227 1.72504 15.4987 2.16667 15.5H13.8333C14.275 15.4987 14.6981 15.3227 15.0104 15.0104C15.3227 14.6981 15.4987 14.275 15.5 13.8333V5.5C15.4987 5.05838 15.3227 4.63522 15.0104 4.32295C14.6981 4.01067 14.275 3.83465 13.8333 3.83333ZM5.5 3C5.5 2.77899 5.5878 2.56702 5.74408 2.41074C5.90036 2.25446 6.11232 2.16667 6.33333 2.16667H9.66667C9.88768 2.16667 10.0996 2.25446 10.2559 2.41074C10.4122 2.56702 10.5 2.77899 10.5 3V3.83333H5.5V3ZM10.5 10.5H8.83333V12.1667H7.16667V10.5H5.5V8.83333H7.16667V7.16667H8.83333V8.83333H10.5V10.5Z" fill="#694338"/>
</svg>
