<svg width="30" height="29" viewBox="0 0 30 29" fill="none" xmlns="http://www.w3.org/2000/svg">
<path d="M20.0944 16.943V11.1073C20.0944 10.9978 20.0903 10.8886 20.083 10.7798V16.9464C20.0869 16.9453 20.0906 16.944 20.0944 16.943Z" fill="#694338"/>
<path d="M22.0003 24.5162C21.6166 24.5957 21.2305 24.5883 20.8525 24.4942C20.803 24.4819 20.7565 24.456 20.725 24.4159C20.6646 24.3392 20.6626 24.2361 20.7133 24.1588L21.3286 23.2222C21.3605 23.1737 21.3256 23.1093 21.2676 23.1096L16.7796 23.1245C16.7275 23.1247 16.6925 23.178 16.713 23.2259L18.0191 26.2703C18.0192 26.2706 18.0193 26.2709 18.0195 26.2712L18.4821 27.3497C18.505 27.4029 18.5779 27.4094 18.6097 27.361L19.2116 26.4447C19.2792 26.3417 19.4115 26.3038 19.524 26.3542C20.4437 26.7656 21.4535 26.8745 22.446 26.669C24.6691 26.2087 26.2745 24.2304 26.2632 21.965C26.263 21.9402 26.2679 21.9168 26.2754 21.8945H24.1416C24.0994 21.8945 24.0651 21.929 24.0654 21.9712L24.0654 21.9721C24.0703 23.1975 23.2018 24.2675 22.0003 24.5162Z" fill="#694338"/>
<path d="M5.06754 10.0282H11.2325C11.3199 10.0282 11.3909 9.95715 11.3909 9.86981V7.68563C11.3909 7.59935 11.3207 7.52918 11.2345 7.52918C10.9064 7.52918 10.6395 7.26229 10.6395 6.93423V6.49138C10.4816 5.24078 9.4139 4.29932 8.15066 4.29932C6.88687 4.29932 5.81866 5.24078 5.66058 6.49145V6.93423C5.66058 7.26229 5.3937 7.52918 5.06563 7.52918C4.97935 7.52918 4.90918 7.59936 4.90918 7.68563V9.86981C4.90918 9.95714 4.98021 10.0282 5.06754 10.0282ZM6.45703 6.80801C6.45703 6.35062 6.63688 5.92205 6.96343 5.60121C7.29021 5.28015 7.72267 5.10783 8.18122 5.11591C9.09756 5.1321 9.84306 5.91303 9.84306 6.85673C9.84306 7.41018 9.39278 7.86047 8.83932 7.86047H7.46077C6.90732 7.86047 6.45703 7.41018 6.45703 6.85673V6.80802L6.45703 6.80801Z" fill="#694338"/>
<path d="M25.0255 11.7816C25.0278 11.7816 25.0301 11.7816 25.0324 11.7816C25.3983 11.7816 25.7572 11.6187 25.9738 11.3554C26.4584 10.7663 26.2507 9.8461 26.1388 9.47784C26.1388 9.47784 26.1388 9.47783 26.1388 9.47781C25.9348 8.80587 25.5836 8.03161 25.2893 7.43581C25.1821 7.21866 24.8721 7.21866 24.7648 7.43581C24.4705 8.03161 24.1193 8.80587 23.9153 9.47781C23.8035 9.84611 23.5958 10.7663 24.0804 11.3554C24.2984 11.6204 24.6604 11.7835 25.0255 11.7816Z" fill="#694338"/>
<path d="M23.0373 6.91112C23.255 6.91218 23.4657 6.81742 23.5924 6.66346C23.8837 6.30932 23.7537 5.73948 23.6844 5.51092C23.5706 5.13606 23.3862 4.712 23.215 4.3538C23.1442 4.20564 22.9336 4.20564 22.8628 4.3538C22.6914 4.7122 22.507 5.1364 22.3933 5.51092C22.324 5.73948 22.194 6.30931 22.4853 6.66342C22.612 6.81743 22.8212 6.91202 23.0373 6.91112Z" fill="#694338"/>
<path d="M19.1815 2.0564C19.1815 1.8052 18.9778 1.60156 18.7266 1.60156H14.3665C14.1153 1.60156 13.9116 1.8052 13.9116 2.0564V4.25199C13.9116 4.38671 14.0208 4.49592 14.1555 4.49592H18.9375C19.0723 4.49592 19.1815 4.38671 19.1815 4.25199V2.0564Z" fill="#694338"/>
<path d="M12.5981 13.4029C12.4366 13.1802 12.245 12.9769 12.0248 12.7998L11.8303 12.6439C11.319 12.233 10.9995 11.6216 10.9539 10.9666C10.9537 10.9617 10.9535 10.9568 10.9534 10.952V10.6619C10.9534 10.5542 10.866 10.4668 10.7582 10.4668H5.51213C5.40435 10.4668 5.31699 10.5542 5.31699 10.6619V10.952C5.31682 10.9569 5.31665 10.9617 5.31649 10.9666C5.27082 11.6216 4.9514 12.233 4.44029 12.6438L4.24529 12.8C3.50485 13.3953 3.08008 14.2825 3.08008 15.2339V15.3279C3.08008 15.4605 3.20992 15.555 3.3358 15.513C4.74577 15.0433 6.04513 15.4119 7.41132 15.7997C7.65803 15.8697 9.07123 16.2171 9.18502 16.2378C10.6796 16.5104 11.9786 16.4731 13.0533 16.1289C13.1346 16.1029 13.1903 16.0279 13.1903 15.9424V15.2339C13.1903 14.5659 12.9801 13.9299 12.5989 13.404C12.5987 13.4036 12.5984 13.4032 12.5981 13.4029Z" fill="#694338"/>
<path d="M12.1407 26.1373C12.7204 26.1373 13.1903 25.6674 13.1903 25.0877V16.8711C13.1903 16.7121 13.0404 16.5946 12.8866 16.6349C12.3232 16.7827 11.709 16.8568 11.0474 16.8568C10.4395 16.8568 9.79172 16.7944 9.10645 16.6694C8.98882 16.648 7.54032 16.2923 7.29157 16.2217C5.91726 15.8316 4.61438 15.4621 3.23332 16.0189C3.14085 16.0561 3.08008 16.146 3.08008 16.2457V25.0878C3.08008 25.6674 3.54999 26.1373 4.12964 26.1373L12.1407 26.1373Z" fill="#694338"/>
<path d="M16.4708 22.2178C16.4705 22.2178 16.4701 22.2178 16.4697 22.2178C16.3491 22.2178 16.2511 22.1204 16.2505 21.9997C16.239 19.7013 17.7515 17.675 19.9122 16.9967C20.0138 16.9649 20.0828 16.8709 20.0828 16.7645V10.7895C20.0826 10.783 20.0824 10.7766 20.0822 10.7702C20.0571 10.4076 19.9921 10.0493 19.887 9.70144C19.7474 9.24361 19.5431 8.81175 19.28 8.4185C18.6997 7.54582 18.3931 6.53194 18.3931 5.4859V5.1785C18.3931 5.04378 18.2839 4.93457 18.1492 4.93457H14.9438C14.8091 4.93457 14.6999 5.04378 14.6999 5.1785V5.48548C14.6999 6.00715 14.624 6.52275 14.4742 7.01792C14.3217 7.51698 14.0991 7.98781 13.8124 8.41783C13.28 9.21714 12.9985 10.1471 12.9985 11.107L12.9991 13.1354C12.9991 13.1837 13.0141 13.2306 13.0407 13.2709C13.4209 13.8456 13.6287 14.524 13.6287 15.234V25.0877C13.6287 25.2128 13.6131 25.3344 13.5839 25.4506C13.4962 25.7992 13.7596 26.1372 14.1191 26.1372H17.1145C17.2897 26.1372 17.4077 25.9581 17.3387 25.7972L16.1359 22.9936C16.0949 22.898 16.1256 22.7823 16.2214 22.7206C16.2572 22.6975 16.3002 22.688 16.3428 22.6879C17.0953 22.6854 17.8479 22.6828 18.6004 22.6803C18.7321 22.6799 18.8406 22.5752 18.8434 22.4436C18.8434 22.442 18.8435 22.4404 18.8435 22.4388C18.8463 22.3171 18.7494 22.2163 18.6277 22.2163H16.4851C16.4803 22.2167 16.4757 22.2178 16.4708 22.2178Z" fill="#694338"/>
<path d="M26.1348 20.4989L24.5943 16.9056C24.5176 16.7269 24.273 16.7053 24.1662 16.8678L23.7351 17.5241C23.6692 17.6243 23.5404 17.6613 23.431 17.612C22.5104 17.1978 21.4991 17.0876 20.5049 17.2934C18.438 17.7213 16.9054 19.4623 16.7101 21.5262C16.6968 21.6659 16.8059 21.7872 16.9463 21.7872H18.744C18.8502 21.7872 18.9422 21.7162 18.972 21.6143C19.3238 20.4113 20.3203 19.5766 20.9506 19.4462C21.3358 19.3664 21.7234 19.3742 22.1027 19.4692C22.1425 19.4792 22.1804 19.498 22.2091 19.5273C22.2856 19.6053 22.2927 19.7197 22.2376 19.8036L21.7972 20.474C21.6904 20.6365 21.8074 20.8524 22.0019 20.8518L25.9114 20.839C26.0862 20.8384 26.2036 20.6596 26.1348 20.4989Z" fill="#694338"/>
</svg>
