<svg width="40" height="40" viewBox="0 0 40 40" fill="none" xmlns="http://www.w3.org/2000/svg">
<rect opacity="0.4" width="40" height="40" rx="20" fill="#FFD0A6"/>
<g clip-path="url(#clip0_60_454)">
<path d="M14.5139 25.8624C14.6853 25.8624 14.7196 25.8453 14.8739 25.811L17.9596 25.1938C18.2853 25.1081 18.611 24.9538 18.8682 24.6967L26.3424 17.2224C27.491 16.0738 27.491 14.1024 26.3424 12.9538L25.7082 12.2853C24.5596 11.1367 22.571 11.1367 21.4224 12.2853L13.9482 19.7767C13.7082 20.0167 13.5367 20.3595 13.451 20.6853L12.7996 23.8053C12.7139 24.3881 12.8853 24.9538 13.2967 25.3653C13.6224 25.691 14.1024 25.8624 14.5139 25.8624ZM15.0967 21.011L22.571 13.5195C23.0682 13.0224 23.9767 13.0224 24.4567 13.5195L25.1082 14.171C25.691 14.7538 25.691 15.5767 25.1082 16.1424L17.651 23.6338L14.4796 24.1653L15.0967 21.011Z" fill="#141415"/>
<path d="M26.2738 26.9253H13.6224C13.1253 26.9253 12.7996 27.251 12.7996 27.7481C12.7996 28.2453 13.211 28.571 13.6224 28.571H26.2053C26.7024 28.571 27.1138 28.2453 27.1138 27.7481C27.0967 27.251 26.6853 26.9253 26.2738 26.9253Z" fill="#141415"/>
</g>
<defs>
<clipPath id="clip0_60_454">
<rect width="17.1429" height="17.1429" fill="white" transform="translate(11.4282 11.4282)"/>
</clipPath>
</defs>
</svg>
