<svg width="42" height="42" viewBox="0 0 42 42" fill="none" xmlns="http://www.w3.org/2000/svg">
<circle cx="21" cy="21" r="21" fill="#FFD0A6"/>
<path d="M30.75 10.5H27.75C27.75 9.67163 27.0784 9 26.25 9H24.75C23.9216 9 23.25 9.67163 23.25 10.5H18.75C18.75 9.67163 18.0784 9 17.25 9H15.75C14.9216 9 14.25 9.67163 14.25 10.5H11.25C10.0073 10.5 9 11.5074 9 12.75V30.75C9 31.9926 10.0073 33 11.25 33H22.5C22.9142 33 23.25 32.6642 23.25 32.25C23.25 31.8358 22.9142 31.5 22.5 31.5H11.25C10.8358 31.5 10.5 31.1642 10.5 30.75V16.5H31.5V22.5C31.5 22.9142 31.8358 23.25 32.25 23.25C32.6642 23.25 33 22.9142 33 22.5V12.75C33 11.5074 31.9926 10.5 30.75 10.5ZM10.5 15V12.75C10.5 12.3358 10.8358 12 11.25 12H14.25V12.75C14.25 13.1642 14.5858 13.5 15 13.5C15.4142 13.5 15.75 13.1642 15.75 12.75V10.5H17.25V12.75C17.25 13.1642 17.5858 13.5 18 13.5C18.4142 13.5 18.75 13.1642 18.75 12.75V12H23.25V12.75C23.25 13.1642 23.5858 13.5 24 13.5C24.4142 13.5 24.75 13.1642 24.75 12.75V10.5H26.25V12.75C26.25 13.1642 26.5858 13.5 27 13.5C27.4142 13.5 27.75 13.1642 27.75 12.75V12H30.75C31.1642 12 31.5 12.3358 31.5 12.75V15H10.5Z" fill="#694338" stroke="#694338" stroke-width="0.4"/>
<path d="M17.25 19.5C17.25 19.0858 16.9142 18.75 16.5 18.75H13.5C13.0858 18.75 12.75 19.0858 12.75 19.5V22.5C12.75 22.9142 13.0858 23.25 13.5 23.25H16.5C16.9142 23.25 17.25 22.9142 17.25 22.5V19.5ZM15.75 21.75H14.25V20.25H15.75V21.75Z" fill="#694338" stroke="#694338" stroke-width="0.4"/>
<path d="M19.5 23.25H22.5C22.9142 23.25 23.25 22.9142 23.25 22.5V19.5C23.25 19.0858 22.9142 18.75 22.5 18.75H19.5C19.0858 18.75 18.75 19.0858 18.75 19.5V22.5C18.75 22.9142 19.0858 23.25 19.5 23.25ZM20.25 20.25H21.75V21.75H20.25V20.25Z" fill="#694338" stroke="#694338" stroke-width="0.4"/>
<path d="M28.5 21.75C28.9142 21.75 29.25 21.4142 29.25 21V19.5C29.25 19.0858 28.9142 18.75 28.5 18.75H25.5C25.0858 18.75 24.75 19.0858 24.75 19.5V21.75C24.75 22.1642 25.0858 22.5 25.5 22.5C25.9142 22.5 26.25 22.1642 26.25 21.75V20.25H27.75V21C27.75 21.4142 28.0858 21.75 28.5 21.75Z" fill="#694338" stroke="#694338" stroke-width="0.4"/>
<path d="M16.5 24.75H13.5C13.0858 24.75 12.75 25.0858 12.75 25.5V28.5C12.75 28.9142 13.0858 29.25 13.5 29.25H16.5C16.9142 29.25 17.25 28.9142 17.25 28.5V25.5C17.25 25.0858 16.9142 24.75 16.5 24.75ZM15.75 27.75H14.25V26.25H15.75V27.75Z" fill="#694338" stroke="#694338" stroke-width="0.4"/>
<path d="M21.75 26.25C22.1642 26.25 22.5 25.9142 22.5 25.5C22.5 25.0858 22.1642 24.75 21.75 24.75H19.5C19.0858 24.75 18.75 25.0858 18.75 25.5V28.5C18.75 28.9142 19.0858 29.25 19.5 29.25H21C21.4142 29.25 21.75 28.9142 21.75 28.5C21.75 28.0858 21.4142 27.75 21 27.75H20.25V26.25H21.75Z" fill="#694338" stroke="#694338" stroke-width="0.4"/>
<path d="M27.75 22.5C24.8505 22.5 22.5 24.8505 22.5 27.75C22.5 30.6495 24.8505 33 27.75 33C30.6495 33 33 30.6495 33 27.75C32.9967 24.8518 30.6482 22.5033 27.75 22.5ZM27.75 31.5C25.6789 31.5 24 29.8211 24 27.75C24 25.6789 25.6789 24 27.75 24C29.8211 24 31.5 25.6789 31.5 27.75C31.4974 29.82 29.82 31.4974 27.75 31.5Z" fill="#694338" stroke="#694338" stroke-width="0.4"/>
<path d="M28.5 27.4395V25.5C28.5 25.0858 28.1642 24.75 27.75 24.75C27.3358 24.75 27 25.0858 27 25.5V27.75C27 27.9489 27.0791 28.1396 27.2197 28.2803L28.7197 29.7803C29.0176 30.0679 29.4924 30.0597 29.7803 29.7618C30.061 29.4712 30.061 29.0103 29.7803 28.7197L28.5 27.4395Z" fill="#694338" stroke="#694338" stroke-width="0.4"/>
</svg>
