<svg width="14" height="16" viewBox="0 0 14 16" fill="none" xmlns="http://www.w3.org/2000/svg">
<path d="M12.625 0.40625V2.375H1.375V0.40625C1.375 0.251 1.501 0.125 1.65625 0.125H12.3438C12.499 0.125 12.625 0.251 12.625 0.40625Z" fill="#694338"/>
<path d="M12.8826 3.21875H1.11738C0.303438 6.09594 0.252813 8.94669 0.25 14.75C0.249438 15.3716 0.753438 15.875 1.375 15.875H12.625C13.2466 15.875 13.7506 15.3716 13.75 14.75C13.7472 8.94669 13.6966 6.09594 12.8826 3.21875ZM8.72856 7.62762C8.85906 7.12025 9.26125 6.79119 9.62687 6.89356C9.9925 6.99594 10.1832 7.48981 10.0521 7.99719C9.92163 8.50456 9.51944 8.83362 9.15381 8.73125C8.78875 8.62944 8.59806 8.13556 8.72856 7.62762ZM7.32231 6.30069C7.45281 5.79331 7.855 5.46425 8.22063 5.56662C8.58625 5.66844 8.77694 6.16287 8.64588 6.67025C8.51538 7.17762 8.11319 7.50669 7.74756 7.40431C7.38194 7.30194 7.19181 6.80862 7.32231 6.30069ZM8.96875 10.7C8.96875 11.0966 8.68919 11.375 8.31231 11.375C7.96863 11.375 7.62494 11.1899 7.37575 11.0133C7.14794 10.8519 6.85206 10.8519 6.62425 11.0133C6.37506 11.1899 6.03138 11.375 5.68769 11.375C5.31081 11.375 5.03125 11.0966 5.03125 10.7C5.03125 9.35 6.06456 8 7 8C7.93544 8 8.96875 9.35 8.96875 10.7ZM5.77938 5.56662C6.145 5.46481 6.54719 5.79331 6.67769 6.30069C6.80819 6.80806 6.6175 7.3025 6.25244 7.40431C5.88738 7.50612 5.48463 7.17762 5.35413 6.67025C5.22306 6.16287 5.41375 5.66844 5.77938 5.56662ZM4.37313 6.89356C4.73875 6.79175 5.14094 7.12025 5.27144 7.62762C5.40194 8.135 5.21125 8.62944 4.84563 8.73125C4.48 8.83306 4.07781 8.50456 3.94731 7.99719C3.81681 7.48981 4.0075 6.99537 4.37313 6.89356ZM10.9375 13.9062C10.9375 14.0615 10.8115 14.1875 10.6562 14.1875H3.34375C3.1885 14.1875 3.0625 14.0615 3.0625 13.9062V13.3438C3.0625 13.1885 3.1885 13.0625 3.34375 13.0625H10.6562C10.8115 13.0625 10.9375 13.1885 10.9375 13.3438V13.9062Z" fill="#694338"/>
</svg>
