<svg width="18" height="18" viewBox="0 0 18 18" fill="none" xmlns="http://www.w3.org/2000/svg">
<g clip-path="url(#clip0_66_2773)">
<path d="M18 6.54541C18 4.06412 15.9813 2.04541 13.5 2.04541C11.0187 2.04541 9 4.06412 9 6.54541C9 8.73446 10.5717 10.5612 12.6453 10.9618V12.5548H11.6835C11.2116 12.5548 10.8288 12.9374 10.8288 13.4095C10.8288 13.8815 11.2116 14.2642 11.6835 14.2642H12.6453V15.0999C12.6453 15.5719 13.0281 15.9546 13.5 15.9546C13.9719 15.9546 14.3547 15.5719 14.3547 15.0999V14.2642H15.3165C15.7884 14.2642 16.1712 13.8815 16.1712 13.4095C16.1712 12.9374 15.7884 12.5548 15.3165 12.5548H14.3547V10.9618C16.4283 10.5612 18 8.73446 18 6.54541ZM10.7093 6.54541C10.7093 5.00671 11.9613 3.75475 13.5 3.75475C15.0387 3.75475 16.2907 5.00671 16.2907 6.54541C16.2907 8.0843 15.0387 9.33626 13.5 9.33626C11.9613 9.33626 10.7093 8.0843 10.7093 6.54541ZM5.35467 7.03833V4.82916L5.71338 5.15453C5.87697 5.3031 6.08247 5.37618 6.28724 5.37618C6.52019 5.37618 6.75204 5.28158 6.92082 5.09573C7.23761 4.74611 7.21128 4.20564 6.86184 3.88848L5.07423 2.26705C5.07314 2.26761 5.07254 2.2681 5.07145 2.26865C4.91977 2.13131 4.72062 2.04541 4.5 2.04541C4.27896 2.04541 4.07941 2.13161 3.92764 2.26939C3.92688 2.26851 3.92653 2.26794 3.92577 2.26705L2.13816 3.88848C1.78872 4.20564 1.76238 4.74612 2.07917 5.09573C2.24796 5.28177 2.4798 5.37618 2.71276 5.37618C2.91752 5.37618 3.12303 5.30291 3.28662 5.15453L3.64533 4.82916V7.03833C1.57167 7.43899 0 9.26569 0 11.4546C0 13.9359 2.01871 15.9546 4.5 15.9546C6.98129 15.9546 9 13.9359 9 11.4546C9 9.26569 7.42833 7.43899 5.35467 7.03833ZM4.5 14.2452C2.9613 14.2452 1.70934 12.9933 1.70934 11.4546C1.70934 9.91587 2.9613 8.66391 4.5 8.66391C6.0387 8.66391 7.29066 9.91587 7.29066 11.4546C7.29066 12.9933 6.0387 14.2452 4.5 14.2452Z" fill="#694338"/>
</g>
<defs>
<clipPath id="clip0_66_2773">
<rect width="18" height="18" fill="white"/>
</clipPath>
</defs>
</svg>
