<svg width="17" height="17" viewBox="0 0 17 17" fill="none" xmlns="http://www.w3.org/2000/svg">
<g clip-path="url(#clip0_247_2846)">
<path d="M2.2262 6.18872H0.498047C0.222992 6.18872 0 6.41171 0 6.68677V16.9999H2.2262V6.18872Z" fill="#694338"/>
<path d="M16.502 6.18872H14.7738V16.9999H17V6.68677C17 6.41171 16.777 6.18872 16.502 6.18872Z" fill="#694338"/>
<path d="M9.36609 13.6721V17H7.63395V13.6721H9.36609Z" fill="#694338"/>
<path d="M13.2796 2.04564H11.7117V0.498047C11.7117 0.222992 11.4887 0 11.2136 0H5.85689C5.58184 0 5.35884 0.222992 5.35884 0.498047V2.04564H3.72034C3.44528 2.04564 3.22229 2.26864 3.22229 2.54369V17H6.63783V13.1741C6.63783 12.899 6.86082 12.676 7.13588 12.676H9.86411C10.1392 12.676 10.3622 12.899 10.3622 13.1741V17H13.7777V2.54369C13.7777 2.26864 13.5547 2.04564 13.2796 2.04564ZM6.24474 10.9549H5.70837C5.43332 10.9549 5.21033 10.7319 5.21033 10.4568C5.21033 10.1818 5.43332 9.95878 5.70837 9.95878H6.24474C6.51979 9.95878 6.74278 10.1818 6.74278 10.4568C6.74278 10.7319 6.51979 10.9549 6.24474 10.9549ZM6.24474 8.96269H5.70837C5.43332 8.96269 5.21033 8.73969 5.21033 8.46464C5.21033 8.18958 5.43332 7.96659 5.70837 7.96659H6.24474C6.51979 7.96659 6.74278 8.18958 6.74278 8.46464C6.74278 8.73969 6.51979 8.96269 6.24474 8.96269ZM6.24474 6.9705H5.70837C5.43332 6.9705 5.21033 6.74751 5.21033 6.47245C5.21033 6.1974 5.43332 5.9744 5.70837 5.9744H6.24474C6.51979 5.9744 6.74278 6.1974 6.74278 6.47245C6.74278 6.74751 6.51979 6.9705 6.24474 6.9705ZM8.76817 10.9549H8.23181C7.95676 10.9549 7.73376 10.7319 7.73376 10.4568C7.73376 10.1818 7.95676 9.95878 8.23181 9.95878H8.76817C9.04323 9.95878 9.26622 10.1818 9.26622 10.4568C9.26622 10.7319 9.04323 10.9549 8.76817 10.9549ZM8.76817 8.96269H8.23181C7.95676 8.96269 7.73376 8.73969 7.73376 8.46464C7.73376 8.18958 7.95676 7.96659 8.23181 7.96659H8.76817C9.04323 7.96659 9.26622 8.18958 9.26622 8.46464C9.26622 8.73969 9.04323 8.96269 8.76817 8.96269ZM8.76817 6.9705H8.23181C7.95676 6.9705 7.73376 6.74751 7.73376 6.47245C7.73376 6.1974 7.95676 5.9744 8.23181 5.9744H8.76817C9.04323 5.9744 9.26622 6.1974 9.26622 6.47245C9.26622 6.74751 9.04323 6.9705 8.76817 6.9705ZM9.50376 3.99204H8.99804V4.49776C8.99804 4.77282 8.77505 4.99581 8.49999 4.99581C8.22494 4.99581 8.00195 4.77282 8.00195 4.49776V3.99204H7.49623C7.22117 3.99204 6.99818 3.76905 6.99818 3.494C6.99818 3.21894 7.22117 2.99595 7.49623 2.99595H8.00195V2.49023C8.00195 2.21518 8.22494 1.99219 8.49999 1.99219C8.77505 1.99219 8.99804 2.21518 8.99804 2.49023V2.99595H9.50376C9.77881 2.99595 10.0018 3.21894 10.0018 3.494C10.0018 3.76905 9.77881 3.99204 9.50376 3.99204ZM11.2916 10.9549H10.7552C10.4802 10.9549 10.2572 10.7319 10.2572 10.4568C10.2572 10.1818 10.4802 9.95878 10.7552 9.95878H11.2916C11.5667 9.95878 11.7897 10.1818 11.7897 10.4568C11.7897 10.7319 11.5667 10.9549 11.2916 10.9549ZM11.2916 8.96269H10.7552C10.4802 8.96269 10.2572 8.73969 10.2572 8.46464C10.2572 8.18958 10.4802 7.96659 10.7552 7.96659H11.2916C11.5667 7.96659 11.7897 8.18958 11.7897 8.46464C11.7897 8.73969 11.5667 8.96269 11.2916 8.96269ZM11.2916 6.9705H10.7552C10.4802 6.9705 10.2572 6.74751 10.2572 6.47245C10.2572 6.1974 10.4802 5.9744 10.7552 5.9744H11.2916C11.5667 5.9744 11.7897 6.1974 11.7897 6.47245C11.7897 6.74751 11.5667 6.9705 11.2916 6.9705Z" fill="#694338"/>
</g>
<defs>
<clipPath id="clip0_247_2846">
<rect width="17" height="17" fill="white"/>
</clipPath>
</defs>
</svg>
