<svg width="50" height="58" viewBox="0 0 50 58" fill="none" xmlns="http://www.w3.org/2000/svg">
<path d="M38.5229 29.8472C38.5263 29.537 38.6521 29.2407 38.8731 29.0228C39.094 28.805 39.3921 28.6834 39.7024 28.6844C39.8552 28.6842 40.0065 28.7142 40.1477 28.7726C40.289 28.8309 40.4173 28.9166 40.5254 29.0246C40.6335 29.1326 40.7193 29.2608 40.7778 29.402C40.8363 29.5431 40.8665 29.6944 40.8665 29.8472C40.8637 30.1566 40.7406 30.4526 40.5233 30.6728C40.3061 30.8929 40.0116 31.0199 39.7024 31.0267C39.3915 31.0206 39.095 30.8944 38.8751 30.6745C38.6552 30.4546 38.529 30.1581 38.5229 29.8472ZM40.596 32.7212C39.9859 32.3683 38.5272 32.3882 38.4528 33.2732V39.4594C38.5824 40.5149 40.8156 40.4928 40.9695 39.4594V33.2732C40.9655 33.1554 40.9283 33.0411 40.8622 32.9434C40.7962 32.8458 40.7039 32.7687 40.596 32.7212ZM49.4574 36.2876C49.1184 38.4274 48.112 40.4053 46.5819 41.9391C45.0519 43.4729 43.0764 44.4841 40.9375 44.8284V48.6875C40.9367 49.4332 40.6401 50.1481 40.1128 50.6753C39.5856 51.2026 38.8707 51.4992 38.125 51.5H35.3125V54.3125C35.3117 55.0582 35.0151 55.7731 34.4878 56.3003C33.9606 56.8276 33.2457 57.1242 32.5 57.125H3.4375C2.69183 57.1242 1.97693 56.8276 1.44966 56.3003C0.922392 55.7731 0.625814 55.0582 0.625 54.3125V9.3125C0.625814 8.56683 0.922392 7.85193 1.44966 7.32466C1.97693 6.79739 2.69183 6.50081 3.4375 6.5H6.25V3.6875C6.25081 2.94183 6.54739 2.22693 7.07466 1.69966C7.60193 1.17239 8.31683 0.875814 9.0625 0.875H27.9288C28.3169 0.87553 28.7007 0.956135 29.0563 1.11178C29.4118 1.26742 29.7314 1.49474 29.9951 1.77954L40.1913 12.8254C40.6717 13.3444 40.9382 14.0257 40.9375 14.7329V24.459C43.6347 24.9001 46.0467 26.3934 47.644 28.6111C49.2413 30.8288 49.8935 33.5896 49.4574 36.2876ZM29.6875 4.21009V12.125C29.6877 12.3736 29.7866 12.6119 29.9624 12.7876C30.1381 12.9634 30.3764 13.0623 30.625 13.0625H37.8589L29.6875 4.21009ZM33.4375 51.5H9.0625C8.31683 51.4992 7.60193 51.2026 7.07466 50.6753C6.54739 50.1481 6.25081 49.4332 6.25 48.6875V8.375H3.4375C3.18894 8.37525 2.95062 8.4741 2.77486 8.64986C2.5991 8.82562 2.50025 9.06394 2.5 9.3125V54.3125C2.50025 54.5611 2.5991 54.7994 2.77486 54.9751C2.95062 55.1509 3.18894 55.2498 3.4375 55.25H32.5C32.7486 55.2498 32.9869 55.1509 33.1626 54.9751C33.3384 54.7994 33.4373 54.5611 33.4375 54.3125V51.5ZM39.0625 48.6875V44.9651C37.8244 44.9425 36.6006 44.6967 35.4498 44.2394L32.1356 45.658C31.7995 45.802 31.4286 45.8446 31.0686 45.7805C30.7086 45.7164 30.3752 45.5484 30.1095 45.2972C29.8438 45.046 29.6573 44.7226 29.573 44.3668C29.4888 44.011 29.5104 43.6383 29.6353 43.2946L30.0608 42.125H18.4375C18.1889 42.125 17.9504 42.0262 17.7746 41.8504C17.5988 41.6746 17.5 41.4361 17.5 41.1875C17.5 40.9389 17.5988 40.7004 17.7746 40.5246C17.9504 40.3488 18.1889 40.25 18.4375 40.25H30.6014C29.5082 38.5782 28.9292 36.6225 28.9361 34.625H18.4375C18.1889 34.625 17.9504 34.5262 17.7746 34.3504C17.5988 34.1746 17.5 33.9361 17.5 33.6875C17.5 33.4389 17.5988 33.2004 17.7746 33.0246C17.9504 32.8488 18.1889 32.75 18.4375 32.75H29.1017C29.5047 30.5936 30.5867 28.6226 32.1897 27.125H18.4375C18.1889 27.125 17.9504 27.0262 17.7746 26.8504C17.5988 26.6746 17.5 26.4361 17.5 26.1875C17.5 25.9389 17.5988 25.7004 17.7746 25.5246C17.9504 25.3488 18.1889 25.25 18.4375 25.25H34.9588C36.2441 24.6499 37.644 24.3349 39.0625 24.3266V14.9375H30.625C30.0453 14.9357 29.4803 14.7545 29.0077 14.4188C28.535 14.0831 28.1779 13.6093 27.9853 13.0625H16.5625C15.8168 13.0617 15.1019 12.7651 14.5747 12.2378C14.0474 11.7106 13.7508 10.9957 13.75 10.25V9.3125C13.7508 8.56683 14.0474 7.85193 14.5747 7.32466C15.1019 6.79739 15.8168 6.50081 16.5625 6.5H27.8125V2.75H9.0625C8.81394 2.75025 8.57562 2.8491 8.39986 3.02486C8.2241 3.20062 8.12525 3.43894 8.125 3.6875V48.6875C8.12525 48.9361 8.2241 49.1744 8.39986 49.3501C8.57562 49.5259 8.81394 49.6248 9.0625 49.625H38.125C38.3736 49.6248 38.6119 49.5259 38.7876 49.3501C38.9634 49.1744 39.0623 48.9361 39.0625 48.6875ZM27.8125 8.375H16.5625C16.3139 8.37525 16.0756 8.4741 15.8999 8.64986C15.7241 8.82562 15.6252 9.06394 15.625 9.3125V10.25C15.6252 10.4986 15.7241 10.7369 15.8999 10.9126C16.0756 11.0884 16.3139 11.1873 16.5625 11.1875H27.8125V8.375ZM45.2112 28.6411C43.6998 27.1356 41.6747 26.2577 39.5426 26.1837C37.4106 26.1097 35.3295 26.8451 33.7174 28.2422C32.1052 29.6394 31.0814 31.5947 30.8515 33.7156C30.6216 35.8365 31.2027 37.9658 32.4781 39.676C32.5702 39.8051 32.6309 39.9541 32.6552 40.1109C32.6796 40.2678 32.6669 40.4281 32.6181 40.5791L31.3968 43.9355L35.0781 42.3589C35.1967 42.308 35.3246 42.2823 35.4536 42.2832C35.5826 42.2842 35.7101 42.3118 35.8279 42.3644C37.4705 43.0928 39.3015 43.2822 41.0584 42.9055C42.5447 42.5819 43.9161 41.8633 45.0281 40.8254C46.1402 39.7875 46.9515 38.4688 47.3767 37.0083C47.8019 35.5478 47.8252 33.9996 47.4441 32.527C47.0629 31.0544 46.2915 29.7119 45.2112 28.6411ZM15.625 17.75V19.625C15.6244 20.1221 15.4267 20.5987 15.0752 20.9502C14.7237 21.3017 14.2471 21.4994 13.75 21.5H11.875C11.3779 21.4994 10.9013 21.3017 10.5498 20.9502C10.1983 20.5987 10.0006 20.1221 10 19.625V17.75C10.0006 17.2529 10.1983 16.7763 10.5498 16.4248C10.9013 16.0733 11.3779 15.8756 11.875 15.875H13.75C14.2471 15.8756 14.7237 16.0733 15.0752 16.4248C15.4267 16.7763 15.6244 17.2529 15.625 17.75ZM13.7509 19.625L13.75 17.75H11.875V19.625H13.7509ZM18.4375 19.625H36.25C36.4986 19.625 36.7371 19.5262 36.9129 19.3504C37.0887 19.1746 37.1875 18.9361 37.1875 18.6875C37.1875 18.4389 37.0887 18.2004 36.9129 18.0246C36.7371 17.8488 36.4986 17.75 36.25 17.75H18.4375C18.1889 17.75 17.9504 17.8488 17.7746 18.0246C17.5988 18.2004 17.5 18.4389 17.5 18.6875C17.5 18.9361 17.5988 19.1746 17.7746 19.3504C17.9504 19.5262 18.1889 19.625 18.4375 19.625ZM15.625 25.25V27.125C15.6244 27.6221 15.4267 28.0987 15.0752 28.4502C14.7237 28.8017 14.2471 28.9994 13.75 29H11.875C11.3779 28.9994 10.9013 28.8017 10.5498 28.4502C10.1983 28.0987 10.0006 27.6221 10 27.125V25.25C10.0006 24.7529 10.1983 24.2763 10.5498 23.9248C10.9013 23.5733 11.3779 23.3756 11.875 23.375H13.75C14.2471 23.3756 14.7237 23.5733 15.0752 23.9248C15.4267 24.2763 15.6244 24.7529 15.625 25.25ZM13.7509 27.125L13.75 25.25H11.875V27.125H13.7509ZM15.625 32.75V34.625C15.6244 35.1221 15.4267 35.5987 15.0752 35.9502C14.7237 36.3017 14.2471 36.4994 13.75 36.5H11.875C11.3779 36.4994 10.9013 36.3017 10.5498 35.9502C10.1983 35.5987 10.0006 35.1221 10 34.625V32.75C10.0006 32.2529 10.1983 31.7763 10.5498 31.4248C10.9013 31.0733 11.3779 30.8756 11.875 30.875H13.75C14.2471 30.8756 14.7237 31.0733 15.0752 31.4248C15.4267 31.7763 15.6244 32.2529 15.625 32.75ZM13.7509 34.625L13.75 32.75H11.875V34.625H13.7509ZM15.625 40.25V42.125C15.6244 42.6221 15.4267 43.0987 15.0752 43.4502C14.7237 43.8017 14.2471 43.9994 13.75 44H11.875C11.3779 43.9994 10.9013 43.8017 10.5498 43.4502C10.1983 43.0987 10.0006 42.6221 10 42.125V40.25C10.0006 39.7529 10.1983 39.2763 10.5498 38.9248C10.9013 38.5733 11.3779 38.3756 11.875 38.375H13.75C14.2471 38.3756 14.7237 38.5733 15.0752 38.9248C15.4267 39.2763 15.6244 39.7529 15.625 40.25ZM13.7509 42.125L13.75 40.25H11.875V42.125H13.7509Z" fill="#694338"/>
</svg>
