<svg width="29" height="29" viewBox="0 0 29 29" fill="none" xmlns="http://www.w3.org/2000/svg">
<g clip-path="url(#clip0_154_3719)">
<path d="M14.5 0C11.6169 0.00382444 8.85307 1.15081 6.81444 3.18944C4.77581 5.22807 3.62882 7.99195 3.625 10.875C3.625 18.6823 13.7569 28.4608 14.1873 28.8731C14.2711 28.9545 14.3832 29 14.5 29C14.6168 29 14.7289 28.9545 14.8127 28.8731C15.2431 28.4608 25.375 18.6823 25.375 10.875C25.3712 7.99195 24.2242 5.22807 22.1856 3.18944C20.1469 1.15081 17.3831 0.00382444 14.5 0ZM14.5 15.8594C13.5142 15.8594 12.5505 15.567 11.7308 15.0194C10.9112 14.4717 10.2723 13.6932 9.89504 12.7824C9.51778 11.8717 9.41908 10.8695 9.6114 9.9026C9.80372 8.93572 10.2784 8.04759 10.9755 7.35052C11.6726 6.65344 12.5607 6.17872 13.5276 5.9864C14.4945 5.79408 15.4967 5.89278 16.4074 6.27004C17.3182 6.64729 18.0967 7.28615 18.6444 8.10583C19.192 8.92551 19.4844 9.88918 19.4844 10.875C19.4836 12.1967 18.9582 13.464 18.0236 14.3986C17.089 15.3332 15.8217 15.8586 14.5 15.8594Z" fill="#694338"/>
</g>
<defs>
<clipPath id="clip0_154_3719">
<rect width="29" height="29" fill="white"/>
</clipPath>
</defs>
</svg>
