<svg width="79" height="79" viewBox="0 0 79 79" fill="none" xmlns="http://www.w3.org/2000/svg">
<circle opacity="0.5" cx="39.5" cy="39.5" r="39.5" fill="#FFD0A6"/>
<circle cx="39.5" cy="39.5" r="32.5" fill="#FFD0A6"/>
<g clip-path="url(#clip0_306_1433)">
<path d="M46.014 31.86V26.802C46.014 25.9957 45.3546 25.3359 44.548 25.3359H26.4661C25.6597 25.3359 25 25.9957 25 26.802V27.755V46.8629V47.5229C25 48.0602 25.3177 48.5734 25.7819 48.8177L36.9243 54.5846C37.413 54.8289 37.9994 54.4871 37.9994 53.9248V48.3048H44.548C45.3546 48.3048 46.014 47.6453 46.014 46.8388V38.8242H43.0819V44.6396C43.0819 45.055 42.7642 45.3727 42.3488 45.3727H38.0238V37.8468V33.082V32.9354C38.0238 32.3978 37.7062 31.8847 37.2419 31.6403L30.6689 28.2684H42.3488C42.7642 28.2684 43.0819 28.586 43.0819 29.0014V31.8847H46.014V31.86Z" fill="#141415"/>
<path d="M49.7771 29.4649L54.5419 34.2297C55.1527 34.8406 55.1527 35.7447 54.5419 36.3555L49.7771 41.1203C49.1662 41.7312 48.2374 41.7558 47.6265 41.145C47.0403 40.5588 47.1134 39.5812 47.6757 38.9947L49.8257 36.8689H41.4936C41.0785 36.8689 40.6628 36.6979 40.394 36.3802C39.7099 35.6472 39.8809 34.3521 40.7606 33.8634C40.9805 33.7413 41.2493 33.6679 41.4936 33.6679H49.8259C49.8259 33.6679 47.7003 31.5421 47.6759 31.5421C47.1137 30.9801 47.0403 29.9783 47.6268 29.4163C48.2132 28.8299 49.1662 28.8541 49.7771 29.4649Z" fill="#141415"/>
</g>
<defs>
<clipPath id="clip0_306_1433">
<rect width="30" height="30" fill="white" transform="translate(25 25)"/>
</clipPath>
</defs>
</svg>
