<svg width="42" height="42" viewBox="0 0 42 42" fill="none" xmlns="http://www.w3.org/2000/svg">
<circle cx="21" cy="21" r="21" fill="#FFD0A6"/>
<path fill-rule="evenodd" clip-rule="evenodd" d="M14.1849 14.1641H15.2249C15.7277 13.2948 15.0948 11.8301 14.085 12.0279C12.7494 12.2903 12.029 12.6536 11.3076 13.9892C11.115 14.3452 11.0682 14.7897 11.0619 15.2051C10.9859 20.0624 10.9734 24.9219 11.0609 29.7792C11.0931 31.5604 12.6599 32.9022 14.1839 32.9022H28.757C30.3174 32.9022 31.881 31.6249 31.88 29.7782L31.8758 15.204C31.8748 13.4801 30.4767 12.0821 28.7528 12.0821H27.7305C27.208 12.0821 26.9331 12.9638 26.9696 13.1501C27.0872 13.7674 27.0456 14.1318 27.6639 14.163L27.717 14.1641H28.7528C29.3274 14.1641 29.7928 14.6304 29.7938 15.2051C29.7949 20.0624 29.901 24.9219 29.798 29.7792C29.7845 30.4132 29.2848 30.8202 28.757 30.8202H14.1839C13.6665 30.8202 13.1429 30.409 13.1429 29.7792C13.1429 24.9208 13.0398 20.0614 13.1439 15.2051C13.1575 14.5711 13.6582 14.1641 14.1849 14.1641Z" fill="#694338"/>
<path fill-rule="evenodd" clip-rule="evenodd" d="M28.758 13.123C28.758 11.3981 27.3599 10 25.6349 10H17.3069C15.5819 10 14.1838 11.3981 14.1838 13.123C14.1838 14.848 15.5819 16.246 17.3069 16.246H25.6349C27.3599 16.246 28.758 14.848 28.758 13.123ZM26.6759 13.123C26.6759 13.6977 26.2096 14.164 25.6349 14.164H17.3069C16.7812 14.164 16.2659 13.7716 16.2659 13.123C16.2659 12.5484 16.7322 12.082 17.3069 12.082H25.6349C26.2096 12.082 26.6759 12.5484 26.6759 13.123Z" fill="#694338"/>
<path fill-rule="evenodd" clip-rule="evenodd" d="M20.4341 18.3281V22.4922C20.4341 23.0668 20.9005 23.5332 21.4751 23.5332C22.0497 23.5332 22.5161 23.0668 22.5161 22.4922V18.3281C22.5161 17.7535 22.0497 17.2871 21.4751 17.2871C20.9005 17.2871 20.4341 17.7535 20.4341 18.3281Z" fill="#694338"/>
<path fill-rule="evenodd" clip-rule="evenodd" d="M19.3889 21.4512H23.5529C24.1276 21.4512 24.594 20.9848 24.594 20.4101C24.594 19.8355 24.1276 19.3691 23.5529 19.3691H19.3889C18.8143 19.3691 18.3479 19.8355 18.3479 20.4101C18.3479 20.9848 18.8143 21.4512 19.3889 21.4512Z" fill="#694338"/>
<path fill-rule="evenodd" clip-rule="evenodd" d="M16.2659 26.6562H26.6759C27.2506 26.6562 27.717 26.1899 27.717 25.6152C27.717 25.0406 27.2506 24.5742 26.6759 24.5742H16.2659C15.6912 24.5742 15.2249 25.0406 15.2249 25.6152C15.2249 26.1899 15.6912 26.6562 16.2659 26.6562Z" fill="#694338"/>
<path fill-rule="evenodd" clip-rule="evenodd" d="M18.3479 29.7793H24.5939C25.1686 29.7793 25.635 29.3129 25.635 28.7383C25.635 28.1636 25.1686 27.6973 24.5939 27.6973H18.3479C17.7733 27.6973 17.3069 28.1636 17.3069 28.7383C17.3069 29.3129 17.7733 29.7793 18.3479 29.7793Z" fill="#694338"/>
</svg>
