<svg width="42" height="42" viewBox="0 0 42 42" fill="none" xmlns="http://www.w3.org/2000/svg">
<rect opacity="0.4" width="42" height="42" rx="21" fill="#FFD0A6"/>
<path d="M21.9609 25.9101H23.8398V27.789H21.9609V29.6679H20.082V27.789H18.203V25.9101H20.082V24.0312H21.9609V25.9101ZM21.574 12.902C21.7152 11.5362 22.2643 10.4018 23.12 9.70798C23.7763 9.17587 24.589 8.93053 25.409 9.017C26.3791 9.11945 27.2123 9.65316 27.7547 10.52C28.2757 11.3525 28.486 12.4225 28.3627 13.6145C28.2083 15.1084 27.5475 16.4614 26.5951 17.2336C26.0337 17.6888 25.4053 17.9249 24.7628 17.9249C24.6705 17.9249 24.578 17.92 24.4854 17.9102C22.5833 17.7095 21.3044 15.5096 21.574 12.902ZM24.6826 16.0417C24.9171 16.0663 25.1623 15.9764 25.4118 15.7741C25.9764 15.3163 26.3911 14.4147 26.4938 13.4213C26.6383 12.0232 26.0005 10.9256 25.108 10.8786C24.8287 10.8786 24.5402 10.9755 24.3034 11.1674C23.8381 11.5447 23.5325 12.2293 23.4429 13.0952C23.2782 14.6894 23.9615 15.9656 24.6826 16.0417ZM32.7333 20.8367C32.3935 21.7102 31.8342 22.4514 31.1585 22.9239C30.6464 23.2821 30.0893 23.4663 29.5519 23.4663C29.2719 23.4663 28.9974 23.4164 28.7371 23.315C27.2612 22.7399 26.7038 20.7506 27.468 18.7861C27.8153 17.8932 28.3619 17.2078 29.0485 16.8042C29.7762 16.3763 30.594 16.3032 31.3512 16.5982C32.8763 17.1925 33.4575 18.975 32.7333 20.8367ZM30.669 18.3489C30.5859 18.3166 30.5015 18.3004 30.416 18.3004C30.2797 18.3004 30.1408 18.3416 30.0007 18.4239C29.6866 18.6086 29.4089 18.9791 29.219 19.4673C28.8027 20.5375 29.0595 21.4241 29.4192 21.5643C29.6538 21.6557 29.9607 21.4688 30.0818 21.3841C30.4506 21.1262 30.7787 20.6784 30.9821 20.1555C31.3172 19.2942 31.1884 18.5513 30.669 18.3489ZM13.8216 13.6145C13.6984 12.4225 13.9087 11.3524 14.4297 10.52C14.9722 9.65316 15.8053 9.11945 16.7755 9.017C17.5955 8.93057 18.4081 9.17587 19.0644 9.70798C19.9202 10.4018 20.4692 11.5362 20.6104 12.902C20.88 15.5096 19.6012 17.7095 17.699 17.9102C17.6064 17.92 17.5138 17.9249 17.4216 17.9249C16.779 17.9249 16.1508 17.6888 15.5892 17.2336C14.6369 16.4613 13.9761 15.1084 13.8216 13.6145ZM15.6906 13.4213C15.7933 14.4147 16.2079 15.3163 16.7726 15.7741C17.0222 15.9764 17.2679 16.0665 17.5018 16.0417C18.2229 15.9656 18.9062 14.6894 18.7414 13.0952C18.6519 12.2293 18.3463 11.5447 17.881 11.1674C17.6075 10.9456 17.3017 10.8507 16.9727 10.8856C16.0734 10.9805 15.5461 12.0232 15.6906 13.4213ZM13.3057 23.315C13.0455 23.4164 12.7709 23.4663 12.491 23.4663C11.9535 23.4663 11.3965 23.2821 10.8843 22.9239C10.2086 22.4514 9.64929 21.7102 9.30953 20.8367C8.5853 18.975 9.16655 17.1925 10.6916 16.5982C11.4487 16.3032 12.2666 16.3763 12.9943 16.8042C13.6809 17.2079 14.2275 17.8932 14.5748 18.7861C15.3391 20.7506 14.7816 22.7399 13.3057 23.315ZM12.8237 19.4673C12.6338 18.9791 12.3562 18.6086 12.042 18.4239C11.9021 18.3416 11.7631 18.3003 11.6267 18.3003C11.5413 18.3003 11.4569 18.3165 11.3737 18.3489C10.8543 18.5513 10.7255 19.2942 11.0606 20.1554C11.264 20.6783 11.5922 21.1261 11.961 21.384C12.082 21.4687 12.3888 21.6554 12.6234 21.5642C12.9832 21.4241 13.24 20.5375 12.8237 19.4673ZM26.1831 22.9772C27.6163 25.0331 29.1477 27.932 29.1477 29.9028C29.1477 30.7595 28.883 31.4533 28.3607 31.9648C27.4614 32.8458 26.019 33 24.2 33C23.7324 33 23.2403 32.9898 22.7257 32.9792C22.1751 32.9678 21.6059 32.9561 21.0214 32.9561C20.4369 32.9561 19.8676 32.9678 19.317 32.9792C16.8005 33.0312 14.8126 33.0723 13.682 31.9648C13.1598 31.4533 12.895 30.7595 12.895 29.9028C12.895 27.9321 14.4265 25.0331 15.8596 22.9772C16.6857 21.7922 17.55 20.7657 18.3593 20.0086C19.3851 19.0488 20.2558 18.5823 21.0214 18.5823C21.7869 18.5823 22.6577 19.0488 23.6835 20.0086C24.4927 20.7657 25.357 21.7922 26.1831 22.9772ZM27.2689 29.9028C27.2689 28.6571 26.2131 26.3058 24.6418 24.0517C23.9005 22.9883 23.1043 22.0397 22.3998 21.3806C21.5937 20.6263 21.1315 20.4612 21.0214 20.4612C20.9114 20.4612 20.4491 20.6264 19.643 21.3806C18.9385 22.0397 18.1423 22.9883 17.401 24.0517C15.8297 26.3057 14.774 28.6571 14.774 29.9028C14.774 30.3522 14.9012 30.5289 14.9969 30.6226C15.5634 31.1775 17.368 31.1403 19.2782 31.1007C19.8384 31.0891 20.4175 31.0771 21.0214 31.0771C21.6253 31.0771 22.2045 31.0891 22.7646 31.1007C24.6749 31.1403 26.4795 31.1775 27.0459 30.6226C27.1417 30.5289 27.2689 30.3522 27.2689 29.9028Z" fill="#694338" stroke="#694338" stroke-width="0.3"/>
</svg>
