<svg width="42" height="42" viewBox="0 0 42 42" fill="none" xmlns="http://www.w3.org/2000/svg">
<rect opacity="0.4" width="42" height="42" rx="21" fill="#FFD0A6"/>
<g clip-path="url(#clip0_69_285)">
<path d="M20.6324 25.0884C19.9462 25.0884 19.3906 25.6603 19.3906 26.3465C19.3906 27.0164 19.9298 27.6046 20.6324 27.6046C21.335 27.6046 21.8905 27.0164 21.8905 26.3465C21.8905 25.6603 21.3187 25.0884 20.6324 25.0884Z" fill="#694338"/>
<path d="M20.8448 15.5625C18.639 15.5625 17.626 16.8696 17.626 17.7519C17.626 18.3892 18.1651 18.6833 18.6063 18.6833C19.4886 18.6833 19.1292 17.4252 20.7958 17.4252C21.6127 17.4252 22.2663 17.7847 22.2663 18.5363C22.2663 19.4186 21.3513 19.9251 20.8121 20.3826C20.3383 20.7911 19.7174 21.461 19.7174 22.8662C19.7174 23.7158 19.9461 23.9609 20.616 23.9609C21.4167 23.9609 21.58 23.6015 21.58 23.291C21.58 22.4414 21.5964 21.9512 22.4951 21.2486C22.9362 20.9055 24.3251 19.7944 24.3251 18.2585C24.3251 16.7226 22.9362 15.5625 20.8448 15.5625Z" fill="#694338"/>
<path d="M21 9C14.3679 9 9 14.367 9 21V32.0625C9 32.5803 9.41972 33 9.9375 33H21C27.632 33 33 27.633 33 21C33 14.3679 27.633 9 21 9ZM21 31.125H10.875V21C10.875 15.4042 15.4035 10.875 21 10.875C26.5958 10.875 31.125 15.4035 31.125 21C31.125 26.5958 26.5965 31.125 21 31.125Z" fill="#694338"/>
</g>
<defs>
<clipPath id="clip0_69_285">
<rect width="24" height="24" fill="white" transform="translate(9 9)"/>
</clipPath>
</defs>
</svg>
