<svg width="42" height="42" viewBox="0 0 42 42" fill="none" xmlns="http://www.w3.org/2000/svg">
<rect width="42" height="42" rx="21" fill="#FFD0A6"/>
<path d="M27.6875 24.1696V20.7812C27.6875 17.645 25.6682 14.972 22.8616 13.9928C23.0741 13.6076 23.1953 13.1654 23.1953 12.6953C23.1953 11.2091 21.9862 10 20.5 10C19.0138 10 17.8047 11.2091 17.8047 12.6953C17.8047 13.1654 17.9259 13.6076 18.1384 13.9928C15.3318 14.972 13.3125 17.645 13.3125 20.7812V24.1696C12.2667 24.5404 11.5156 25.5396 11.5156 26.7109C11.5156 28.1971 12.7247 29.4062 14.2109 29.4062H17.8047V30.3047C17.8047 31.7909 19.0138 33 20.5 33C21.9862 33 23.1953 31.7909 23.1953 30.3047V29.4062H26.7891C28.2753 29.4062 29.4844 28.1971 29.4844 26.7109C29.4844 25.5396 28.7333 24.5404 27.6875 24.1696ZM19.6016 12.6953C19.6016 12.1999 20.0046 11.7969 20.5 11.7969C20.9954 11.7969 21.3984 12.1999 21.3984 12.6953C21.3984 13.1907 20.9954 13.5938 20.5 13.5938C20.0046 13.5938 19.6016 13.1907 19.6016 12.6953ZM21.3984 30.3047C21.3984 30.8001 20.9954 31.2031 20.5 31.2031C20.0046 31.2031 19.6016 30.8001 19.6016 30.3047V29.4062H21.3984V30.3047ZM26.7891 27.6094H14.2109C13.7155 27.6094 13.3125 27.2063 13.3125 26.7109C13.3125 26.2155 13.7155 25.8125 14.2109 25.8125C14.7071 25.8125 15.1094 25.4103 15.1094 24.9141V20.7812C15.1094 17.8089 17.5276 15.3906 20.5 15.3906C23.4724 15.3906 25.8906 17.8089 25.8906 20.7812V24.9141C25.8906 25.4103 26.2929 25.8125 26.7891 25.8125C27.2845 25.8125 27.6875 26.2155 27.6875 26.7109C27.6875 27.2063 27.2845 27.6094 26.7891 27.6094Z" fill="#694338"/>
</svg>
