<svg width="42" height="42" viewBox="0 0 42 42" fill="none" xmlns="http://www.w3.org/2000/svg">
<rect opacity="0.4" width="42" height="42" rx="21" fill="#FFD0A6"/>
<path d="M17.8572 24.4288C17.8572 25.4059 18.5943 26.1431 19.5715 26.1431C20.1175 26.1431 20.6926 25.9374 21.29 25.5328C21.8789 25.9374 22.454 26.1431 23 26.1431C23.9772 26.1431 24.7143 25.4059 24.7143 24.4288C24.7143 22.2662 23.0163 20.1431 21.2857 20.1431C19.5552 20.1431 17.8572 22.2662 17.8572 24.4288ZM21.2857 21.8574C21.9303 21.8574 23 23.1028 23 24.4288C22.8157 24.4288 22.5475 24.3165 22.262 24.1202C21.9655 23.9162 21.6252 23.8142 21.2857 23.8142C20.9463 23.8142 20.606 23.9162 20.3095 24.1202C20.024 24.3165 19.7557 24.4288 19.5715 24.4288C19.5715 23.1028 20.6412 21.8574 21.2857 21.8574Z" fill="#694338" stroke="#694338" stroke-width="0.4"/>
<path d="M19.0571 18.4284C19.0571 17.9553 19.4411 17.5713 19.9143 17.5713C20.3874 17.5713 20.7714 17.9553 20.7714 18.4284C20.7714 18.9016 20.3874 19.2856 19.9143 19.2856C19.4411 19.2856 19.0571 18.9016 19.0571 18.4284Z" fill="#694338" stroke="#694338" stroke-width="0.4"/>
<path d="M21.8 18.4284C21.8 17.9553 22.184 17.5713 22.6572 17.5713C23.1303 17.5713 23.5143 17.9553 23.5143 18.4284C23.5143 18.9016 23.1303 19.2856 22.6572 19.2856C22.184 19.2856 21.8 18.9016 21.8 18.4284Z" fill="#694338" stroke="#694338" stroke-width="0.4"/>
<path d="M17 19.8C17 19.3269 17.384 18.9429 17.8571 18.9429C18.3303 18.9429 18.7143 19.3269 18.7143 19.8C18.7143 20.2732 18.3303 20.6572 17.8571 20.6572C17.384 20.6572 17 20.2732 17 19.8Z" fill="#694338" stroke="#694338" stroke-width="0.4"/>
<path d="M23.8572 19.8C23.8572 19.3269 24.2412 18.9429 24.7143 18.9429C25.1875 18.9429 25.5715 19.3269 25.5715 19.8C25.5715 20.2732 25.1875 20.6572 24.7143 20.6572C24.2412 20.6572 23.8572 20.2732 23.8572 19.8Z" fill="#694338" stroke="#694338" stroke-width="0.4"/>
<path d="M29.8571 13.1469V10.7143C29.8571 9.76886 29.0883 9 28.1429 9H14.4286C13.4831 9 12.7143 9.76886 12.7143 10.7143V13.1469C11.0746 18.1106 11.0051 20.874 11 30.4191C11 31.1057 11.2666 31.7529 11.7509 32.2406C12.2377 32.7309 12.884 33 13.5714 33H29C29.6874 33 30.3346 32.7309 30.8206 32.2406C31.3049 31.7529 31.5714 31.1066 31.5714 30.42C31.5663 20.8749 31.4969 18.1106 29.8571 13.1469ZM28.1429 10.7143V12.4286H14.4286V10.7143H28.1429ZM29.6043 31.0329C29.4423 31.1957 29.2271 31.2857 29 31.2857H13.5714C13.3434 31.2857 13.1291 31.1957 12.9671 31.0329C12.8043 30.8683 12.7143 30.6514 12.7143 30.4209C12.7194 21.4046 12.7846 18.5811 14.1963 14.1429H28.376C29.7877 18.5811 29.8529 21.4046 29.8571 30.4209C29.8571 30.6514 29.7671 30.8683 29.6043 31.0329Z" fill="#694338" stroke="#694338" stroke-width="0.4"/>
<path d="M27.2856 28.7141C27.2856 29.1872 26.9016 29.5712 26.4285 29.5712H16.1428C15.6696 29.5712 15.2856 29.1872 15.2856 28.7141C15.2856 28.2409 15.6696 27.8569 16.1428 27.8569H26.4285C26.9016 27.8569 27.2856 28.2409 27.2856 28.7141Z" fill="#694338" stroke="#694338" stroke-width="0.4"/>
</svg>
