<svg width="24" height="23" viewBox="0 0 24 23" fill="none" xmlns="http://www.w3.org/2000/svg">
<g clip-path="url(#clip0_60_508)">
<path d="M20.0009 0H3.38968C1.62632 0.00175476 0.197067 1.43101 0.195312 3.19437V19.8056C0.197067 21.569 1.62632 22.9982 3.38968 23H20.0009C21.7643 22.9982 23.1936 21.569 23.1953 19.8056V3.19437C23.1936 1.43101 21.7643 0.00175476 20.0009 0ZM17.4453 14.0556H12.3342V16.9854L13.1602 16.1594C13.4141 15.9143 13.8186 15.9213 14.0637 16.1752C14.3027 16.4228 14.3027 16.8153 14.0637 17.0629L12.147 18.9795C11.8976 19.229 11.4933 19.2292 11.244 18.9798C11.2438 18.9798 11.2436 18.9797 11.2436 18.9795L9.32691 17.0629C9.08177 16.809 9.08879 16.4046 9.3427 16.1594C9.5903 15.9204 9.98267 15.9204 10.2303 16.1594L11.0564 16.9856V14.0556H5.94531C5.59243 14.0556 5.3064 13.7694 5.3064 13.4167C5.3064 13.0638 5.59243 12.7778 5.94531 12.7778H17.4453C17.7982 12.7778 18.0842 13.0638 18.0842 13.4167C18.0842 13.7694 17.7982 14.0556 17.4453 14.0556ZM17.4453 10.2222H5.94531C5.59243 10.2222 5.3064 9.93616 5.3064 9.58327C5.3064 9.23057 5.59243 8.94437 5.94531 8.94437H11.0564V6.01462L10.2304 6.84058C9.97652 7.08572 9.57205 7.0787 9.32691 6.82479C9.08791 6.57719 9.08791 6.18483 9.32691 5.93723L11.2436 4.02051C11.4928 3.77116 11.8971 3.77081 12.1466 4.02016C12.1468 4.02016 12.147 4.02033 12.1472 4.02051L14.0637 5.93723C14.3176 6.1822 14.3246 6.58685 14.0795 6.84058C13.8344 7.09432 13.4299 7.10134 13.1762 6.8562C13.1707 6.85111 13.1655 6.84585 13.1604 6.84058L12.3342 6.01462V8.94437H17.4453C17.7982 8.94437 18.0842 9.23057 18.0842 9.58327C18.0842 9.93616 17.7982 10.2222 17.4453 10.2222Z" fill="#694338"/>
</g>
<defs>
<clipPath id="clip0_60_508">
<rect width="23" height="23" fill="white" transform="translate(0.195312)"/>
</clipPath>
</defs>
</svg>
