<svg width="24" height="23" viewBox="0 0 24 23" fill="none" xmlns="http://www.w3.org/2000/svg">
<path d="M18.0664 1.4375H5.12891C4.17578 1.4375 3.2617 1.81613 2.58774 2.49009C1.91378 3.16404 1.53516 4.07813 1.53516 5.03125V17.9688C1.53516 18.9219 1.91378 19.836 2.58774 20.5099C3.2617 21.1839 4.17578 21.5625 5.12891 21.5625H18.0664C19.0195 21.5625 19.9336 21.1839 20.6076 20.5099C21.2815 19.836 21.6602 18.9219 21.6602 17.9688V5.03125C21.6602 4.07813 21.2815 3.16404 20.6076 2.49009C19.9336 1.81613 19.0195 1.4375 18.0664 1.4375ZM18.512 8.79031L15.2777 11.3419C15.1512 11.4433 14.9942 11.4991 14.832 11.5C14.7916 11.5074 14.7502 11.5074 14.7098 11.5C14.6096 11.4826 14.5142 11.4442 14.43 11.3872C14.3457 11.3302 14.2745 11.2559 14.2211 11.1694C13.9598 10.6992 13.5804 10.3054 13.1203 10.0268C12.6602 9.74822 12.1354 9.59453 11.5977 9.58094C11.0614 9.59308 10.5375 9.7446 10.0775 10.0206C9.61753 10.2966 9.2373 10.6875 8.97422 11.155C8.92079 11.2416 8.84959 11.3158 8.76534 11.3728C8.68108 11.4298 8.58569 11.4682 8.48547 11.4856C8.3861 11.5058 8.28347 11.5034 8.18517 11.4785C8.08688 11.4536 7.99545 11.4069 7.91766 11.3419L4.68328 8.79031C4.60818 8.73208 4.54537 8.65954 4.49849 8.57688C4.45161 8.49422 4.42159 8.40309 4.41016 8.30875C4.39896 8.21452 4.40653 8.11901 4.43244 8.02772C4.45834 7.93643 4.50207 7.85118 4.56109 7.77687C5.56098 6.60987 6.8017 5.6732 8.19797 5.03125C9.27117 4.57154 10.4265 4.3345 11.5941 4.3345C12.7616 4.3345 13.917 4.57154 14.9902 5.03125C16.3892 5.67828 17.6303 6.62262 18.627 7.79844C18.6861 7.87274 18.7298 7.95799 18.7557 8.04928C18.7816 8.14057 18.7892 8.23608 18.778 8.33031C18.7513 8.51199 18.6562 8.67658 18.512 8.79031ZM8.77297 6.33219C7.81035 6.77913 6.93246 7.38951 6.17828 8.13625L8.22672 9.75344C8.90021 8.9422 9.84031 8.397 10.8789 8.21531V7.1875C10.8789 6.99688 10.9546 6.81406 11.0894 6.67927C11.2242 6.54448 11.407 6.46875 11.5977 6.46875C11.7883 6.46875 11.9711 6.54448 12.1059 6.67927C12.2407 6.81406 12.3164 6.99688 12.3164 7.1875V8.21531C13.355 8.397 14.2951 8.9422 14.9686 9.75344L17.017 8.13625C16.2629 7.38951 15.385 6.77913 14.4223 6.33219C13.5295 5.9506 12.5686 5.75387 11.5977 5.75387C10.6267 5.75387 9.6658 5.9506 8.77297 6.33219Z" fill="#694338"/>
</svg>
