<svg width="79" height="79" viewBox="0 0 79 79" fill="none" xmlns="http://www.w3.org/2000/svg">
<circle opacity="0.5" cx="39.5" cy="39.5" r="39.5" fill="#FFD0A6"/>
<circle cx="39.5" cy="39.5" r="32.5" fill="#FFD0A6"/>
<g clip-path="url(#clip0_14_1218)">
<path d="M39.0003 34.375C37.9666 34.375 37.1252 35.2164 37.1252 36.25V38.125H40.8753V36.25C40.8753 35.2164 40.0339 34.375 39.0003 34.375Z" fill="#141415"/>
<path d="M51.0606 25.1843C50.4096 24.8721 49.6388 24.9618 49.0747 25.4141C46.732 27.2973 42.515 27.2964 40.1758 25.415C39.4892 24.862 38.5114 24.8629 37.8247 25.4141C35.483 27.2973 31.2642 27.2963 28.9259 25.4149C28.3627 24.9618 27.5893 24.872 26.9409 25.1842C26.2902 25.4955 25.8754 26.1538 25.8754 26.8752L25.8745 41.8753C25.8745 47.7522 30.5858 52.6306 38.4766 54.9259C38.6478 54.9753 38.8236 55 39.0004 55C39.177 55 39.3529 54.9753 39.5241 54.9259C47.415 52.6306 52.1254 47.7531 52.1254 41.8753V26.8752C52.1254 26.1538 51.7116 25.4955 51.0606 25.1843ZM44.6254 43.7499C44.6254 44.7858 43.7859 45.6249 42.7503 45.6249H35.2503C34.2147 45.6249 33.3753 44.7858 33.3753 43.7499V39.9999C33.3753 38.9644 34.2147 38.1248 35.2503 38.1248V36.2498C35.2503 34.1826 36.9321 32.4998 39.0003 32.4998C41.0685 32.4998 42.7503 34.1826 42.7503 36.2498V38.1248C43.7859 38.1248 44.6254 38.9644 44.6254 39.9999V43.7499Z" fill="#141415"/>
<path d="M39.0004 40.9375C38.4826 40.9375 38.0629 41.3573 38.0629 41.875C38.0629 42.3932 38.4826 42.8125 39.0004 42.8125C39.5181 42.8125 39.9379 42.3932 39.9379 41.875C39.9379 41.3573 39.5181 40.9375 39.0004 40.9375Z" fill="#141415"/>
</g>
<defs>
<clipPath id="clip0_14_1218">
<rect width="30" height="30" fill="white" transform="translate(24 25)"/>
</clipPath>
</defs>
</svg>
