<svg width="23" height="23" viewBox="0 0 23 23" fill="none" xmlns="http://www.w3.org/2000/svg">
<g clip-path="url(#clip0_60_489)">
<path d="M11.9962 5.90162C12.3699 5.90162 12.6738 5.59764 12.6738 5.224C12.6738 4.85036 12.3699 4.54639 11.9962 4.54639C11.6225 4.54639 11.3186 4.85036 11.3186 5.224C11.3186 5.59759 11.6225 5.90162 11.9962 5.90162Z" fill="#694338"/>
<path d="M7.64969 16.5591C7.46873 16.5591 7.29855 16.6296 7.17062 16.7576C6.90635 17.0218 6.90635 17.4517 7.17058 17.7159C7.2986 17.8439 7.46877 17.9144 7.64974 17.9144C7.8308 17.9144 8.00088 17.8439 8.1289 17.7159C8.25688 17.5879 8.32735 17.4177 8.32735 17.2367C8.32735 17.0558 8.25688 16.8856 8.1289 16.7576C8.00083 16.6296 7.83075 16.5591 7.64969 16.5591Z" fill="#694338"/>
<path d="M6.69149 7.37298C6.87251 7.37298 7.04263 7.30251 7.17061 7.17453C7.29859 7.0465 7.36911 6.87638 7.36911 6.69536C7.36911 6.51435 7.29859 6.34422 7.17061 6.21625C7.03852 6.08416 6.86496 6.01807 6.69149 6.01807C6.51802 6.01807 6.34442 6.08416 6.21233 6.21625C5.9481 6.48043 5.9481 6.9103 6.21233 7.17453C6.34035 7.30251 6.51048 7.37298 6.69149 7.37298Z" fill="#694338"/>
<path d="M5.2201 11.3228C4.84646 11.3228 4.54248 11.6267 4.54248 12.0003C4.54248 12.374 4.84646 12.6779 5.2201 12.6779C5.59373 12.6779 5.89771 12.374 5.89771 12.0003C5.89771 11.6267 5.59369 11.3228 5.2201 11.3228Z" fill="#694338"/>
<path d="M22.5693 8.38534C22.0399 6.49756 21.0231 4.76277 19.6287 3.36838C17.4566 1.19626 14.5686 4.51743e-05 11.4968 0C11.4966 0 11.497 0 11.4968 0C8.42514 0 5.53678 1.19635 3.3648 3.36833C1.1963 5.53679 0.00279631 8.42659 0.00415154 11.5054C0.00550677 14.5842 1.20154 17.473 3.3719 19.6396C4.7648 21.03 6.4971 22.0443 8.38141 22.5728C9.39584 22.8573 10.4466 23 11.4982 23C12.3394 22.9999 13.1813 22.9086 14.0048 22.7253C14.9746 22.5095 15.7197 21.8102 15.9978 20.8546C16.2771 19.8952 16.0223 18.9009 15.3163 18.195C14.5238 17.4024 14.5238 16.1127 15.3164 15.3201C16.1063 14.5302 17.3899 14.5276 18.1832 15.312L18.1916 15.3203C18.8976 16.0264 19.8925 16.2814 20.853 16.0023C21.806 15.7254 22.5037 14.9837 22.7194 14.0183C23.1341 12.1626 23.0821 10.2147 22.5693 8.38534ZM11.9964 3.1912C13.1174 3.1912 14.0293 4.10314 14.0293 5.22405C14.0293 6.34496 13.1174 7.25689 11.9964 7.25689C10.8755 7.25689 9.96364 6.34491 9.96364 5.22405C9.96364 4.10309 10.8755 3.1912 11.9964 3.1912ZM5.2544 5.25811C6.04694 4.46548 7.33666 4.46544 8.12929 5.25811C8.92188 6.05069 8.92188 7.34037 8.12929 8.13296C7.73298 8.52927 7.21239 8.7274 6.69185 8.7274C6.1713 8.7274 5.65071 8.52927 5.25444 8.13296C4.46177 7.34033 4.46177 6.05065 5.2544 5.25811ZM3.18749 12.0001C3.18749 10.8792 4.09943 9.96735 5.22034 9.96735C6.34125 9.96735 7.25318 10.8792 7.25318 12.0001C7.25318 13.1211 6.3412 14.033 5.22034 14.033C4.09938 14.033 3.18749 13.1211 3.18749 12.0001ZM9.08753 18.6742C8.70355 19.0581 8.19308 19.2696 7.65008 19.2696C7.10709 19.2696 6.59662 19.0581 6.21268 18.6742C5.42005 17.8815 5.42005 16.5919 6.21268 15.7993C6.59662 15.4153 7.10713 15.2038 7.65008 15.2038C8.19308 15.2038 8.70355 15.4153 9.08753 15.7993C9.88016 16.5919 9.88016 17.8815 9.08753 18.6742ZM13.7436 12.9889C13.262 13.4706 12.6291 13.7114 11.9964 13.7114C11.3636 13.7114 10.731 13.4707 10.2492 12.9889C9.28584 12.0255 9.28584 10.458 10.2492 9.49455C11.2126 8.53117 12.7802 8.53121 13.7436 9.49455C14.707 10.458 14.707 12.0255 13.7436 12.9889ZM18.6705 9.09119C18.2742 9.48751 17.7536 9.68569 17.233 9.68569C16.7125 9.68569 16.1919 9.48751 15.7956 9.09119C15.4116 8.70726 15.2002 8.19679 15.2002 7.65379C15.2002 7.11075 15.4117 6.60033 15.7956 6.21639C16.5882 5.42372 17.878 5.42381 18.6705 6.21639C19.0544 6.60033 19.2659 7.1108 19.2659 7.65379C19.2659 8.19679 19.0545 8.70726 18.6705 9.09119Z" fill="#694338"/>
<path d="M17.2325 6.97656C17.059 6.97656 16.8856 7.04265 16.7534 7.17474C16.6254 7.30277 16.5549 7.47289 16.5549 7.65386C16.5549 7.83487 16.6254 8.005 16.7534 8.13298C16.8814 8.261 17.0516 8.33148 17.2325 8.33148C17.4136 8.33148 17.5837 8.261 17.7118 8.13298C17.8397 8.005 17.9102 7.83483 17.9102 7.65386C17.9102 7.47285 17.8397 7.30272 17.7118 7.17474C17.5796 7.04265 17.4061 6.97656 17.2325 6.97656Z" fill="#694338"/>
</g>
<defs>
<clipPath id="clip0_60_489">
<rect width="23" height="23" fill="white"/>
</clipPath>
</defs>
</svg>
