<svg width="17" height="17" viewBox="0 0 17 17" fill="none" xmlns="http://www.w3.org/2000/svg">
<g clip-path="url(#clip0_66_2745)">
<path d="M12.7365 0H4.25C1.91587 0 0 1.91587 0 4.26349V12.75C0 15.0841 1.91587 17 4.25 17H12.7365C15.0841 17 17 15.0841 17 12.7365V4.26349C17 1.91587 15.0841 0 12.7365 0ZM8.04127 3.49444C8.06825 3.07619 8.45952 3.2246 8.6619 3.19762C11.1984 3.27857 13.3841 5.55873 13.3571 8.01429C13.3571 8.25714 13.4381 8.60794 13.0738 8.60794C12.723 8.60794 12.8175 8.24365 12.777 8.00079C12.4397 5.39683 11.2254 4.16905 8.58095 3.76429C8.36508 3.7373 8.02778 3.77778 8.04127 3.49444ZM11.8325 8.12222C11.4278 8.17619 11.5087 7.8254 11.4683 7.59603C11.1984 6.00397 10.6317 5.42381 8.99921 5.07302C8.75635 5.01905 8.37857 5.05952 8.44603 4.69524C8.5 4.34444 8.8373 4.46587 9.09365 4.49286C10.7262 4.68175 12.0619 6.07143 12.0484 7.59603C12.0214 7.75794 12.1294 8.06825 11.8325 8.12222ZM10.8206 7.28571C10.8206 7.50159 10.7937 7.70397 10.5508 7.73095C10.3754 7.75794 10.2675 7.60952 10.2405 7.43413C10.173 6.78651 9.82222 6.39524 9.14762 6.2873C8.94524 6.26032 8.75635 6.19286 8.85079 5.92302C8.91825 5.74762 9.08016 5.72064 9.25556 5.72064C9.98413 5.70714 10.8206 6.55714 10.8206 7.28571ZM13.3841 12.2643C13.1008 13.0333 12.1429 13.8159 11.3198 13.8024C11.1984 13.7754 10.969 13.7349 10.7667 13.654C7.15079 12.1294 4.51984 9.61984 3.03571 6.03095C2.53651 4.83016 3.0627 3.80476 4.31746 3.4C4.54683 3.31905 4.7627 3.31905 4.99206 3.4C5.53175 3.58889 6.89444 5.4373 6.92143 5.97698C6.94841 6.39524 6.65159 6.6246 6.36825 6.81349C5.81508 7.17778 5.81508 7.63651 6.05794 8.1627C6.58413 9.32302 7.4881 10.1325 8.6619 10.6452C9.08016 10.8341 9.49841 10.8206 9.78175 10.3889C10.2944 9.61984 10.9286 9.66032 11.6167 10.1325C11.9675 10.3754 12.3183 10.6048 12.6421 10.8611C13.0873 11.2254 13.654 11.5222 13.3841 12.2643Z" fill="#694338"/>
</g>
<defs>
<clipPath id="clip0_66_2745">
<rect width="17" height="17" fill="white"/>
</clipPath>
</defs>
</svg>
