<svg width="42" height="42" viewBox="0 0 42 42" fill="none" xmlns="http://www.w3.org/2000/svg">
<rect width="42" height="42" rx="21" fill="#FFD0A6"/>
<path d="M20.4998 31.4635C20.2961 31.4637 20.0984 31.3945 19.9392 31.2673L12.9242 25.6689C12.5572 25.3774 12.261 25.0065 12.0577 24.5842C11.8545 24.1618 11.7494 23.6989 11.7505 23.2302V15.4382C11.7506 15.3039 11.7808 15.1713 11.8389 15.0501C11.897 14.929 11.9815 14.8224 12.0862 14.7382C12.2472 14.6088 16.0759 11.5757 20.4998 11.5757C23.5924 11.6675 26.5656 12.7905 28.9466 14.7662C29.0417 14.8504 29.1179 14.9539 29.17 15.0697C29.2222 15.1856 29.2492 15.3112 29.2492 15.4382V23.2288C29.2505 23.6978 29.1455 24.161 28.9421 24.5837C28.7387 25.0063 28.4421 25.3773 28.0747 25.6689L21.0605 31.2673C20.9013 31.3945 20.7036 31.4637 20.4998 31.4635ZM13.5474 15.8939V23.2288C13.547 23.4277 13.5916 23.6241 13.6778 23.8033C13.7641 23.9826 13.8898 24.14 14.0455 24.2638L20.4998 29.4158L26.9535 24.2638C27.1094 24.1402 27.2353 23.9828 27.3217 23.8036C27.4081 23.6243 27.4528 23.4278 27.4523 23.2288V15.8688C25.4513 14.3326 23.0209 13.4589 20.4998 13.3697C17.4006 13.3697 14.5091 15.2111 13.5474 15.8939Z" fill="#694338"/>
<path d="M20.1354 23.1173C19.9577 23.1173 19.784 23.0646 19.6362 22.9659C19.4884 22.8672 19.3732 22.7269 19.3052 22.5627C19.2372 22.3985 19.2194 22.2178 19.2541 22.0435C19.2888 21.8692 19.3744 21.7091 19.5 21.5834L23.3748 17.7079C23.5442 17.5442 23.7712 17.4536 24.0067 17.4556C24.2423 17.4576 24.4677 17.552 24.6343 17.7185C24.8009 17.8851 24.8955 18.1104 24.8976 18.3459C24.8997 18.5815 24.8092 18.8085 24.6456 18.978L20.7694 22.8542C20.6862 22.9376 20.5874 23.0037 20.4786 23.0489C20.3698 23.094 20.2532 23.1172 20.1354 23.1173Z" fill="#694338"/>
<path d="M20.1357 23.1173C20.0177 23.1174 19.9009 23.0942 19.7918 23.0491C19.6828 23.004 19.5838 22.9377 19.5004 22.8543L17.5339 20.8878C17.4481 20.8049 17.3797 20.7057 17.3326 20.5961C17.2856 20.4864 17.2608 20.3685 17.2598 20.2493C17.2588 20.13 17.2816 20.0117 17.3268 19.9013C17.372 19.7909 17.4387 19.6906 17.5231 19.6062C17.6075 19.5219 17.7078 19.4552 17.8182 19.4101C17.9287 19.3649 18.047 19.3422 18.1663 19.3433C18.2856 19.3444 18.4034 19.3692 18.513 19.4163C18.6226 19.4634 18.7218 19.5319 18.8046 19.6177L20.7711 21.5835C20.8968 21.7092 20.9824 21.8693 21.0171 22.0436C21.0518 22.2179 21.034 22.3985 20.9659 22.5627C20.8979 22.7269 20.7827 22.8672 20.635 22.966C20.4872 23.0647 20.3135 23.1174 20.1357 23.1173Z" fill="#694338"/>
</svg>
