<svg width="18" height="18" viewBox="0 0 18 18" fill="none" xmlns="http://www.w3.org/2000/svg">
<g clip-path="url(#clip0_80_842)">
<path d="M12.0369 9.53978C11.2269 8.27621 9.84743 7.52173 8.3467 7.52173C6.84597 7.52173 5.4665 8.27621 4.65667 9.53978L2.70495 12.5845C2.38113 13.0896 2.23171 13.6732 2.27277 14.2719C2.31383 14.8706 2.54166 15.4282 2.93154 15.8847C3.32169 16.3407 3.83723 16.6525 4.42238 16.7862C5.00754 16.92 5.6074 16.8629 6.15699 16.6213L6.19379 16.6049C7.5767 16.0092 9.15694 16.0147 10.5363 16.6213C10.8921 16.7777 11.2691 16.8568 11.6495 16.8568C11.8563 16.8568 12.0643 16.8333 12.2705 16.7864C12.8556 16.6527 13.3712 16.341 13.7614 15.8848C14.1515 15.4287 14.3794 14.871 14.4206 14.2721C14.4618 13.6732 14.3124 13.0897 13.9886 12.5844L12.0369 9.53978Z" fill="#694338"/>
<path d="M3.23068 9.53575C3.81131 9.31273 4.25241 8.84485 4.47268 8.21822C4.68239 7.62194 4.66522 6.94875 4.42421 6.32253C4.18306 5.69672 3.74443 5.18586 3.18907 4.88387C2.6057 4.56678 1.96478 4.51514 1.38512 4.73858C0.218917 5.18696 -0.316254 6.62809 0.192275 7.9518C0.598495 9.00539 1.54593 9.67047 2.5038 9.67047C2.74838 9.67047 2.99365 9.62708 3.23068 9.53575Z" fill="#694338"/>
<path d="M7.01775 7.15031C8.47563 7.15031 9.66174 5.79899 9.66174 4.138C9.66174 2.47659 8.47563 1.125 7.01775 1.125C5.56 1.125 4.37402 2.47659 4.37402 4.138C4.37402 5.79899 5.56 7.15031 7.01775 7.15031Z" fill="#694338"/>
<path d="M11.5838 7.8903H11.584C11.8082 7.96473 12.037 8.0003 12.2649 8.0003C13.3281 8.0003 14.3642 7.22645 14.7596 6.03718C14.9873 5.3526 14.9723 4.62874 14.7174 3.99908C14.4507 3.3399 13.9565 2.86145 13.3256 2.65175C12.6946 2.44205 12.0122 2.52952 11.4039 2.89784C10.8229 3.24968 10.3777 3.82055 10.1503 4.50514C9.6703 5.94929 10.3134 7.46788 11.5838 7.8903Z" fill="#694338"/>
<path d="M17.1519 7.53888L17.1515 7.53847C16.1461 6.79579 14.6425 7.11769 13.7994 8.25642C12.9572 9.3957 13.0889 10.9273 14.0927 11.6706C14.4589 11.9418 14.8914 12.0714 15.3342 12.0714C16.1059 12.0714 16.9087 11.6776 17.4454 10.9533C18.2875 9.81401 18.1559 8.28238 17.1519 7.53888Z" fill="#694338"/>
</g>
<defs>
<clipPath id="clip0_80_842">
<rect width="18" height="18" fill="white"/>
</clipPath>
</defs>
</svg>
