<svg width="23" height="23" viewBox="0 0 23 23" fill="none" xmlns="http://www.w3.org/2000/svg">
<g clip-path="url(#clip0_43_764)">
<path d="M12.1624 5.26251C11.2408 4.34098 10.0156 3.83345 8.71234 3.8335C8.13491 3.8335 7.66687 4.30158 7.66687 4.87896C7.66696 5.45639 8.13496 5.92443 8.71238 5.92443C9.4571 5.92443 10.1572 6.21436 10.6838 6.74102C11.2104 7.26764 11.5004 7.96775 11.5004 8.71242C11.5003 9.2898 11.9684 9.75793 12.5458 9.75793C12.5459 9.75793 12.5459 9.75793 12.5459 9.75793C13.1232 9.75793 13.5913 9.28993 13.5913 8.71255C13.5914 7.40932 13.084 6.18403 12.1624 5.26251Z" fill="#141415"/>
<path d="M22.6938 21.2153L15.5653 14.0869C16.7297 12.6054 17.425 10.7386 17.425 8.71246C17.4249 3.90843 13.5165 0 8.71242 0C8.71228 0 8.71242 0 8.71228 0C6.38519 0 4.19723 0.906299 2.55183 2.55174C0.906209 4.19737 0 6.38524 0 8.71246C0 13.5165 3.90838 17.4249 8.71242 17.4249C10.7385 17.4249 12.6054 16.7297 14.0868 15.5653L21.2153 22.6938C21.4194 22.8979 21.687 23 21.9545 23C22.2221 23 22.4897 22.898 22.6937 22.6938C23.1021 22.2856 23.1021 21.6235 22.6938 21.2153ZM8.71242 15.334C5.06135 15.334 2.09093 12.3636 2.09093 8.71246C2.09093 6.94375 2.77968 5.28093 4.0303 4.0303C5.28093 2.77959 6.94371 2.09093 8.71242 2.09093C12.3636 2.09093 15.334 5.06135 15.334 8.71251C15.334 12.3637 12.3636 15.334 8.71242 15.334Z" fill="#141415"/>
</g>
<defs>
<clipPath id="clip0_43_764">
<rect width="23" height="23" fill="white"/>
</clipPath>
</defs>
</svg>
