<svg width="42" height="42" viewBox="0 0 42 42" fill="none" xmlns="http://www.w3.org/2000/svg">
<rect opacity="0.4" width="42" height="42" rx="21" fill="#FFD0A6"/>
<path d="M34.3728 21.9814L33.6944 21.388C31.6475 19.5973 29.3197 19.8469 27.811 21.2308L24.245 24.3949C22.2157 24.0842 20.7546 23.3602 19.3307 22.6541C16.0088 21.0067 13.3736 20.001 7.4662 22.9547L7 23.1878V29.6124H7.84334C9.91998 29.6124 11.9993 30.1033 13.8567 31.0321C20.4285 34.3179 22.6657 33.0077 25.4745 30.6038C25.8649 30.2696 26.2669 29.9255 26.7019 29.5942C27.8297 29.4581 28.7309 28.5769 28.8985 27.4589L34.3728 21.9814ZM28.9359 22.4876L28.9479 22.4767C29.2844 22.1663 30.3795 21.3444 31.8384 22.1312L28.4292 25.5424C28.0057 24.9799 27.3483 24.6033 26.6029 24.5576L28.9359 22.4876ZM26.3967 27.9258C24.0259 27.9258 23.9394 27.8994 22.4941 27.4591C21.6692 27.2077 20.4226 26.8279 18.1679 26.2643L17.7589 27.9006C19.972 28.4539 21.194 28.8262 22.0025 29.0725C22.9281 29.3545 23.3982 29.4905 24.1049 29.5553C21.9903 31.3521 20.3823 32.409 14.611 29.5234C12.7721 28.6039 10.74 28.0658 8.68668 27.9496V24.2356C13.8045 21.7967 15.9219 22.8462 18.5813 24.1651C20.5415 25.1372 22.7633 26.2391 26.3967 26.2391C26.4024 26.2414 27.2401 26.2349 27.2401 27.0297C27.2377 27.0354 27.2424 27.9258 26.3967 27.9258Z" fill="#694338" stroke="#694338" stroke-width="0.4"/>
<path d="M18.7981 19.476H22.4776C22.943 19.476 23.3204 19.0986 23.3204 18.6332V16.9205H25.033C25.4985 16.9205 25.8758 16.5432 25.8758 16.0778V12.3982C25.8758 11.9328 25.4985 11.5555 25.033 11.5555H23.3204V9.84278C23.3204 9.37734 22.943 9 22.4776 9H18.7981C18.3327 9 17.9553 9.37734 17.9553 9.84278V11.5555H16.2427C15.7772 11.5555 15.3999 11.9328 15.3999 12.3982V16.0778C15.3999 16.5432 15.7772 16.9205 16.2427 16.9205H17.9553V18.6332C17.9553 19.0986 18.3327 19.476 18.7981 19.476ZM17.0855 15.2349V13.241H18.7981C19.2635 13.241 19.6409 12.8636 19.6409 12.3982V10.6856H21.6348V12.3982C21.6348 12.8637 22.0122 13.241 22.4776 13.241H24.1902V15.235H22.4776C22.0122 15.235 21.6348 15.6123 21.6348 16.0778V17.7904H19.6409V16.0778C19.6409 15.6123 19.2635 15.235 18.7981 15.235H17.0855V15.2349Z" fill="#694338" stroke="#694338" stroke-width="0.4"/>
</svg>
