<svg width="48" height="48" viewBox="0 0 48 48" fill="none" xmlns="http://www.w3.org/2000/svg">
<path d="M36.7795 18.4409L24.2795 12.1909C24.1927 12.1476 24.097 12.125 24 12.125C23.903 12.125 23.8073 12.1476 23.7205 12.1909L11.2205 18.4409C11.1167 18.4928 11.0294 18.5727 10.9684 18.6714C10.9073 18.7701 10.875 18.8839 10.875 19V21.5C10.8752 21.6066 10.9025 21.7114 10.9544 21.8045C11.0063 21.8976 11.0811 21.976 11.1716 22.0322C11.2626 22.0871 11.366 22.1183 11.4722 22.123C11.5783 22.1277 11.684 22.1057 11.7795 22.0591L24 15.9483L36.2205 22.0591C36.3158 22.1068 36.4217 22.1294 36.5281 22.1247C36.6346 22.1199 36.7381 22.088 36.8288 22.032C36.9194 21.9759 36.9942 21.8976 37.0461 21.8045C37.0979 21.7114 37.1251 21.6066 37.125 21.5V19C37.125 18.8839 37.0927 18.7701 37.0316 18.6714C36.9706 18.5727 36.8833 18.4928 36.7795 18.4409Z" fill="#AEAEAE"/>
<path d="M12.75 22.9716V35.25C12.75 35.3321 12.7661 35.4134 12.7975 35.4892C12.8289 35.5651 12.8749 35.634 12.9329 35.6921C12.991 35.7501 13.0599 35.7961 13.1358 35.8275C13.2116 35.8589 13.2929 35.8751 13.375 35.875H34.625C34.7071 35.8751 34.7884 35.8589 34.8642 35.8275C34.9401 35.7961 35.009 35.7501 35.0671 35.6921C35.1251 35.634 35.1711 35.5651 35.2025 35.4892C35.2339 35.4134 35.25 35.3321 35.25 35.25V22.9713L24 17.3459L12.75 22.9716ZM21.652 22.549C22.3472 22.427 23.0399 23.0874 23.2113 24.0553V24.0565C23.3816 25.0245 22.9648 25.8815 22.2623 26.006C22.2062 26.0157 22.1494 26.0206 22.0926 26.0206C21.4498 26.0206 20.8584 25.3895 20.7022 24.4984C20.5312 23.5305 20.9483 22.6736 21.652 22.549ZM20.0712 27.5884C20.0355 27.7763 19.9536 27.9523 19.8329 28.1006C19.7122 28.249 19.5564 28.3649 19.3796 28.4379C19.2717 28.4766 19.158 28.4964 19.0433 28.4965C18.4623 28.4965 17.8641 27.9973 17.5827 27.2247C17.2458 26.2994 17.5083 25.3839 18.1796 25.1385C18.3619 25.0817 18.5555 25.0708 18.743 25.1067C18.9305 25.1427 19.1063 25.2245 19.2546 25.3447C19.5831 25.6082 19.8329 25.9567 19.9769 26.3523C20.1209 26.748 20.1534 27.1754 20.0712 27.5884ZM28.0234 26.3518C28.1613 25.9532 28.4122 25.6033 28.7453 25.3447C28.8937 25.2244 29.0694 25.1427 29.2569 25.1067C29.4445 25.0707 29.638 25.0816 29.8203 25.1384C30.4917 25.3838 30.7542 26.2994 30.4172 27.2246C30.1359 27.9974 29.5377 28.4965 28.9566 28.4965C28.8422 28.4964 28.7286 28.4766 28.6209 28.4379C28.444 28.365 28.2881 28.2491 28.1672 28.1008C28.0464 27.9524 27.9644 27.7763 27.9288 27.5883C27.8397 27.1757 27.8726 26.746 28.0234 26.3518ZM24 32.7639C21.6972 32.7639 20.322 31.9277 20.322 30.5276C20.322 29.0494 21.9285 27.3307 24.0002 27.3307C26.0718 27.3307 27.6783 29.0494 27.6783 30.5277C27.6781 31.9277 26.3028 32.7639 24 32.7639ZM24.7886 24.0566V24.0554C24.9595 23.0886 25.6417 22.4245 26.3474 22.5491C27.0517 22.6737 27.4686 23.5306 27.2977 24.4998C27.1415 25.3897 26.5494 26.0208 25.908 26.0208C25.8513 26.0208 25.7947 26.0159 25.7389 26.0062C25.0352 25.8816 24.6183 25.0246 24.7886 24.0566Z" fill="#AEAEAE"/>
</svg>
