<svg width="30" height="30" viewBox="0 0 30 30" fill="none" xmlns="http://www.w3.org/2000/svg">
<g clip-path="url(#clip0_18_33)">
<path d="M26.114 11.3594C26.5443 11.7748 26.93 12.2125 27.2701 12.6682C28.6633 11.1771 29.1675 8.98549 28.4326 6.96646L27.2302 3.66283C26.1804 0.778728 22.9799 -0.713713 20.0956 0.335994C19.4438 0.573299 18.8442 0.932654 18.3273 1.38746C22.6471 2.74314 25.8416 6.66523 26.114 11.3594Z" fill="#AEAEAE"/>
<path d="M3.88604 11.3594C4.15839 6.66521 7.35292 2.74312 11.6727 1.38743C11.1558 0.932688 10.5562 0.573274 9.90432 0.33597C7.02005 -0.713679 3.8196 0.778704 2.76983 3.66286L1.56743 6.9665C0.832548 8.98552 1.33669 11.1772 2.72987 12.6682C3.07001 12.2125 3.45573 11.7748 3.88604 11.3594Z" fill="#AEAEAE"/>
<path d="M15 26.2524C14.9733 26.2739 14.946 26.2953 14.9185 26.3168C13.9448 27.0736 12.7683 27.5657 11.5261 27.7498C12.1229 29.0748 13.455 30.0002 15 30.0002C16.545 30.0002 17.8772 29.0748 18.4739 27.7497C17.2317 27.5656 16.0552 27.0736 15.0816 26.3167C15.054 26.2953 15.0268 26.2739 15 26.2524Z" fill="#AEAEAE"/>
<path d="M19.1016 12.3047C19.587 12.3047 19.9805 11.9112 19.9805 11.4258C19.9805 10.9404 19.587 10.5469 19.1016 10.5469C18.6162 10.5469 18.2227 10.9404 18.2227 11.4258C18.2227 11.9112 18.6162 12.3047 19.1016 12.3047Z" fill="#AEAEAE"/>
<path d="M15 17.5781C13.5352 17.5781 13.5352 17.9413 13.5352 18.2617C13.5352 19.2483 14.3565 20.5078 15 20.5078C15.6435 20.5078 16.4648 19.2483 16.4648 18.2617C16.4648 17.9413 16.4648 17.5781 15 17.5781Z" fill="#AEAEAE"/>
<path d="M24.375 12.1576V12.0117C24.375 6.83408 20.1777 2.63672 15 2.63672C9.82236 2.63672 5.625 6.83402 5.625 12.0117V12.1576C3.80109 13.6907 2.69531 15.6731 2.69531 17.8425C2.69531 21.2261 4.54529 24.1615 8.16293 25.6298C10.0489 26.3954 12.2326 26.1779 13.8396 24.9287C13.9381 24.8521 14.0318 24.7734 14.121 24.6932V22.0917C13.5615 21.8674 13.045 21.4304 12.6175 20.8061C12.0914 20.0378 11.7773 19.0866 11.7773 18.2617C11.7773 17.0874 12.4017 16.504 12.9254 16.2215C13.4328 15.9478 14.092 15.8203 15 15.8203C15.908 15.8203 16.5672 15.9478 17.0746 16.2215C17.5983 16.504 18.2227 17.0873 18.2227 18.2617C18.2227 19.0866 17.9086 20.0378 17.3825 20.8061C16.955 21.4305 16.4384 21.8674 15.8789 22.0917V24.6932C15.9681 24.7735 16.0618 24.8522 16.1603 24.9288C17.7674 26.178 19.951 26.3954 21.837 25.6299C25.4546 24.1615 27.3047 21.2261 27.3047 17.8425C27.3047 15.6731 26.1989 13.6907 24.375 12.1576ZM10.8984 14.0624C9.44455 14.0624 8.26172 12.8796 8.26172 11.4257C8.26172 9.97184 9.44455 8.789 10.8984 8.789C12.3523 8.789 13.5352 9.97184 13.5352 11.4257C13.5352 12.8796 12.3523 14.0624 10.8984 14.0624ZM19.1016 14.0624C17.6477 14.0624 16.4648 12.8796 16.4648 11.4257C16.4648 9.97184 17.6477 8.789 19.1016 8.789C20.5554 8.789 21.7383 9.97184 21.7383 11.4257C21.7383 12.8796 20.5554 14.0624 19.1016 14.0624Z" fill="#AEAEAE"/>
<path d="M10.8984 12.3047C11.3838 12.3047 11.7773 11.9112 11.7773 11.4258C11.7773 10.9404 11.3838 10.5469 10.8984 10.5469C10.413 10.5469 10.0195 10.9404 10.0195 11.4258C10.0195 11.9112 10.413 12.3047 10.8984 12.3047Z" fill="#AEAEAE"/>
</g>
<defs>
<clipPath id="clip0_18_33">
<rect width="30" height="30" fill="white"/>
</clipPath>
</defs>
</svg>
