<svg width="30" height="30" viewBox="0 0 30 30" fill="none" xmlns="http://www.w3.org/2000/svg">
<path d="M27.7795 9.44091L15.2795 3.19091C15.1927 3.14756 15.097 3.125 15 3.125C14.903 3.125 14.8073 3.14756 14.7205 3.19091L2.22047 9.44091C2.11666 9.49285 2.02937 9.57266 1.96835 9.6714C1.90734 9.77015 1.87501 9.88393 1.875 10V12.5C1.87519 12.6066 1.90252 12.7114 1.95442 12.8045C2.00632 12.8976 2.08107 12.976 2.17163 13.0322C2.26265 13.0871 2.36597 13.1183 2.47216 13.123C2.57835 13.1277 2.68402 13.1057 2.77953 13.0591L15 6.94825L27.2205 13.0591C27.3158 13.1068 27.4217 13.1294 27.5281 13.1247C27.6346 13.1199 27.7381 13.088 27.8288 13.032C27.9194 12.9759 27.9942 12.8976 28.0461 12.8045C28.0979 12.7114 28.1251 12.6066 28.125 12.5V10C28.125 9.88393 28.0927 9.77015 28.0316 9.6714C27.9706 9.57266 27.8833 9.49285 27.7795 9.44091Z" fill="#AEAEAE"/>
<path d="M3.75 13.9713V26.2498C3.74995 26.3319 3.76608 26.4132 3.79747 26.489C3.82887 26.5649 3.8749 26.6338 3.93295 26.6918C3.99099 26.7499 4.05991 26.7959 4.13576 26.8273C4.21162 26.8587 4.29291 26.8748 4.375 26.8748H25.625C25.7071 26.8748 25.7884 26.8587 25.8642 26.8273C25.9401 26.7959 26.009 26.7499 26.0671 26.6918C26.1251 26.6338 26.1711 26.5649 26.2025 26.489C26.2339 26.4132 26.25 26.3319 26.25 26.2498V13.971L15 8.3457L3.75 13.9713ZM12.652 13.5488C13.3472 13.4267 14.0399 14.0871 14.2113 15.055V15.0563C14.3816 16.0243 13.9648 16.8813 13.2623 17.0057C13.2062 17.0154 13.1494 17.0203 13.0926 17.0204C12.4498 17.0204 11.8584 16.3893 11.7022 15.4982C11.5312 14.5303 11.9483 13.6733 12.652 13.5488ZM11.0712 18.5881C11.0355 18.776 10.9536 18.9521 10.8329 19.1004C10.7122 19.2487 10.5564 19.3647 10.3796 19.4377C10.2717 19.4764 10.158 19.4962 10.0433 19.4963C9.46228 19.4963 8.86412 18.997 8.58275 18.2244C8.24584 17.2991 8.50831 16.3836 9.17962 16.1382C9.36194 16.0814 9.55546 16.0705 9.743 16.1065C9.93054 16.1425 10.1063 16.2242 10.2546 16.3445C10.5831 16.6079 10.8329 16.9565 10.9769 17.3521C11.1209 17.7477 11.1534 18.1752 11.0712 18.5881ZM19.0234 17.3515C19.1613 16.9529 19.4122 16.6031 19.7453 16.3445C19.8937 16.2242 20.0694 16.1425 20.2569 16.1065C20.4445 16.0705 20.638 16.0814 20.8203 16.1382C21.4917 16.3836 21.7542 17.2991 21.4172 18.2244C21.1359 18.9971 20.5377 19.4963 19.9566 19.4963C19.8422 19.4962 19.7286 19.4764 19.6209 19.4377C19.444 19.3647 19.2881 19.2489 19.1672 19.1005C19.0464 18.9522 18.9644 18.7761 18.9288 18.5881C18.8397 18.1754 18.8726 17.7458 19.0234 17.3515ZM15 23.7636C12.6972 23.7636 11.322 22.9275 11.322 21.5273C11.322 20.0492 12.9285 18.3305 15.0002 18.3305C17.0718 18.3305 18.6783 20.0492 18.6783 21.5275C18.6781 22.9275 17.3028 23.7636 15 23.7636ZM15.7886 15.0564V15.0551C15.9595 14.0884 16.6417 13.4243 17.3474 13.5489C18.0517 13.6734 18.4686 14.5304 18.2977 15.4996C18.1415 16.3895 17.5494 17.0206 16.908 17.0206C16.8513 17.0205 16.7947 17.0156 16.7389 17.0059C16.0352 16.8813 15.6183 16.0244 15.7886 15.0564Z" fill="#AEAEAE"/>
</svg>
