<svg width="42" height="42" viewBox="0 0 42 42" fill="none" xmlns="http://www.w3.org/2000/svg">
<rect opacity="0.4" width="42" height="42" rx="21" fill="#FFD0A6"/>
<mask id="mask0_69_283" style="mask-type:luminance" maskUnits="userSpaceOnUse" x="11" y="11" width="21" height="21">
<path d="M32 11H11V32H32V11Z" fill="white"/>
</mask>
<g mask="url(#mask0_69_283)">
<path d="M23.5098 16.9497H20.6797" stroke="#694338" stroke-width="1.5" stroke-miterlimit="10" stroke-linecap="round" stroke-linejoin="round"/>
<mask id="mask1_69_283" style="mask-type:luminance" maskUnits="userSpaceOnUse" x="11" y="11" width="21" height="21">
<path d="M11 11H32V32H11V11Z" fill="white"/>
</mask>
<g mask="url(#mask1_69_283)">
<path d="M26.832 24.5762V13.9941C26.832 12.7936 27.8053 11.8203 29.0059 11.8203" stroke="#694338" stroke-width="1.5" stroke-miterlimit="10" stroke-linecap="round"/>
<path d="M29.0469 11.8203H14.2812C12.9221 11.8203 11.8203 12.9221 11.8203 14.2813V28.7188C11.8203 30.0779 12.9221 31.1797 14.2812 31.1797H24.3711C25.7302 31.1797 26.832 30.0779 26.832 28.7188" stroke="#694338" stroke-width="1.5" stroke-miterlimit="10" stroke-linecap="round"/>
<path d="M15.1016 16.5804L16.0286 17.5166C16.222 17.7039 16.5317 17.6829 16.699 17.4712L18.1367 15.4297" stroke="#694338" stroke-width="1.5" stroke-miterlimit="10" stroke-linecap="round" stroke-linejoin="round"/>
<path d="M23.5098 21.915H20.6797" stroke="#694338" stroke-width="1.5" stroke-miterlimit="10" stroke-linecap="round" stroke-linejoin="round"/>
<path d="M15.1016 21.5457L16.0286 22.4819C16.222 22.6692 16.5317 22.6482 16.699 22.4365L18.1367 20.395" stroke="#694338" stroke-width="1.5" stroke-miterlimit="10" stroke-linecap="round" stroke-linejoin="round"/>
<path d="M26.873 19.0801H28.7224C30.0815 19.0801 31.1833 17.9783 31.1833 16.6191V13.9941C31.1833 12.7936 30.21 11.8203 29.0095 11.8203" stroke="#694338" stroke-width="1.5" stroke-miterlimit="10"/>
<path d="M23.5098 26.8369H20.6797" stroke="#694338" stroke-width="1.5" stroke-miterlimit="10" stroke-linecap="round" stroke-linejoin="round"/>
<path d="M15.1016 26.4676L16.0286 27.4038C16.222 27.5911 16.5317 27.5701 16.699 27.3584L18.1367 25.3169" stroke="#694338" stroke-width="1.5" stroke-miterlimit="10" stroke-linecap="round" stroke-linejoin="round"/>
</g>
</g>
</svg>
