<svg width="30" height="30" viewBox="0 0 30 30" fill="none" xmlns="http://www.w3.org/2000/svg">
<g clip-path="url(#clip0_18_5)">
<path d="M25.3125 5.625V6.5625H0.9375V5.625C0.9375 4.07438 2.19937 2.8125 3.75 2.8125H4.6875V1.875C4.6875 1.35656 5.1075 0.9375 5.625 0.9375C6.1425 0.9375 6.5625 1.35656 6.5625 1.875V2.8125H12.1875V1.875C12.1875 1.35656 12.6075 0.9375 13.125 0.9375C13.6425 0.9375 14.0625 1.35656 14.0625 1.875V2.8125H19.6875V1.875C19.6875 1.35656 20.1075 0.9375 20.625 0.9375C21.1425 0.9375 21.5625 1.35656 21.5625 1.875V2.8125H22.5C24.0506 2.8125 25.3125 4.07438 25.3125 5.625ZM29.0625 22.5C29.0625 26.1234 26.1244 29.0625 22.5 29.0625C18.8756 29.0625 15.9375 26.1234 15.9375 22.5C15.9375 18.8766 18.8756 15.9375 22.5 15.9375C26.1244 15.9375 29.0625 18.8766 29.0625 22.5ZM26.25 22.5C26.25 21.9816 25.83 21.5625 25.3125 21.5625H23.4375V19.6875C23.4375 19.1691 23.0175 18.75 22.5 18.75C21.9825 18.75 21.5625 19.1691 21.5625 19.6875V22.5C21.5625 23.0184 21.9825 23.4375 22.5 23.4375H25.3125C25.83 23.4375 26.25 23.0184 26.25 22.5ZM25.3125 8.4375V14.55C24.4313 14.2313 23.4844 14.0625 22.5 14.0625C17.85 14.0625 14.0625 17.85 14.0625 22.5C14.0625 23.4844 14.2313 24.4313 14.55 25.3125H3.75C2.20312 25.3125 0.9375 24.0469 0.9375 22.5V8.4375H25.3125ZM9.375 20.625C9.375 20.1066 8.955 19.6875 8.4375 19.6875H6.5625C6.045 19.6875 5.625 20.1066 5.625 20.625C5.625 21.1434 6.045 21.5625 6.5625 21.5625H8.4375C8.955 21.5625 9.375 21.1434 9.375 20.625ZM9.375 16.875C9.375 16.3566 8.955 15.9375 8.4375 15.9375H6.5625C6.045 15.9375 5.625 16.3566 5.625 16.875C5.625 17.3934 6.045 17.8125 6.5625 17.8125H8.4375C8.955 17.8125 9.375 17.3934 9.375 16.875ZM9.375 13.125C9.375 12.6066 8.955 12.1875 8.4375 12.1875H6.5625C6.045 12.1875 5.625 12.6066 5.625 13.125C5.625 13.6434 6.045 14.0625 6.5625 14.0625H8.4375C8.955 14.0625 9.375 13.6434 9.375 13.125ZM15 13.125C15 12.6066 14.58 12.1875 14.0625 12.1875H12.1875C11.67 12.1875 11.25 12.6066 11.25 13.125C11.25 13.6434 11.67 14.0625 12.1875 14.0625H14.0625C14.58 14.0625 15 13.6434 15 13.125Z" fill="#AEAEAE"/>
</g>
<defs>
<clipPath id="clip0_18_5">
<rect width="30" height="30" fill="white"/>
</clipPath>
</defs>
</svg>
