<svg width="48" height="48" viewBox="0 0 48 48" fill="none" xmlns="http://www.w3.org/2000/svg">
<g clip-path="url(#clip0_47_225)">
<path d="M34.3125 14.625V15.5625H9.9375V14.625C9.9375 13.0744 11.1994 11.8125 12.75 11.8125H13.6875V10.875C13.6875 10.3566 14.1075 9.9375 14.625 9.9375C15.1425 9.9375 15.5625 10.3566 15.5625 10.875V11.8125H21.1875V10.875C21.1875 10.3566 21.6075 9.9375 22.125 9.9375C22.6425 9.9375 23.0625 10.3566 23.0625 10.875V11.8125H28.6875V10.875C28.6875 10.3566 29.1075 9.9375 29.625 9.9375C30.1425 9.9375 30.5625 10.3566 30.5625 10.875V11.8125H31.5C33.0506 11.8125 34.3125 13.0744 34.3125 14.625ZM38.0625 31.5C38.0625 35.1234 35.1244 38.0625 31.5 38.0625C27.8756 38.0625 24.9375 35.1234 24.9375 31.5C24.9375 27.8766 27.8756 24.9375 31.5 24.9375C35.1244 24.9375 38.0625 27.8766 38.0625 31.5ZM35.25 31.5C35.25 30.9816 34.83 30.5625 34.3125 30.5625H32.4375V28.6875C32.4375 28.1691 32.0175 27.75 31.5 27.75C30.9825 27.75 30.5625 28.1691 30.5625 28.6875V31.5C30.5625 32.0184 30.9825 32.4375 31.5 32.4375H34.3125C34.83 32.4375 35.25 32.0184 35.25 31.5ZM34.3125 17.4375V23.55C33.4313 23.2313 32.4844 23.0625 31.5 23.0625C26.85 23.0625 23.0625 26.85 23.0625 31.5C23.0625 32.4844 23.2313 33.4313 23.55 34.3125H12.75C11.2031 34.3125 9.9375 33.0469 9.9375 31.5V17.4375H34.3125ZM18.375 29.625C18.375 29.1066 17.955 28.6875 17.4375 28.6875H15.5625C15.045 28.6875 14.625 29.1066 14.625 29.625C14.625 30.1434 15.045 30.5625 15.5625 30.5625H17.4375C17.955 30.5625 18.375 30.1434 18.375 29.625ZM18.375 25.875C18.375 25.3566 17.955 24.9375 17.4375 24.9375H15.5625C15.045 24.9375 14.625 25.3566 14.625 25.875C14.625 26.3934 15.045 26.8125 15.5625 26.8125H17.4375C17.955 26.8125 18.375 26.3934 18.375 25.875ZM18.375 22.125C18.375 21.6066 17.955 21.1875 17.4375 21.1875H15.5625C15.045 21.1875 14.625 21.6066 14.625 22.125C14.625 22.6434 15.045 23.0625 15.5625 23.0625H17.4375C17.955 23.0625 18.375 22.6434 18.375 22.125ZM24 22.125C24 21.6066 23.58 21.1875 23.0625 21.1875H21.1875C20.67 21.1875 20.25 21.6066 20.25 22.125C20.25 22.6434 20.67 23.0625 21.1875 23.0625H23.0625C23.58 23.0625 24 22.6434 24 22.125Z" fill="#AEAEAE"/>
</g>
<defs>
<clipPath id="clip0_47_225">
<rect width="30" height="30" fill="white" transform="translate(9 9)"/>
</clipPath>
</defs>
</svg>
