<svg width="30" height="26" viewBox="0 0 30 26" fill="none" xmlns="http://www.w3.org/2000/svg">
<path d="M10.741 10.3085C10.9158 9.58439 11.0716 8.88354 11.2549 8.19002C11.7028 6.49197 12.3242 4.86541 13.336 3.41361C13.919 2.57772 14.629 1.86954 15.5461 1.40211C16.7798 0.772747 18.0856 0.705534 19.3644 1.15158C21.3197 1.83349 22.7807 3.08671 23.4046 5.14221C23.6685 6.0117 23.6691 6.90625 23.5402 7.79957C23.5262 7.90039 23.4455 8.05193 23.3667 8.0727C22.6945 8.24868 22.3347 8.73261 22.0921 9.3247C21.9656 9.63021 21.8959 9.96322 21.8031 10.284C21.7786 10.3677 21.7603 10.4533 21.7328 10.5657C21.6143 10.1618 21.5269 9.78725 21.3943 9.42918C20.8853 8.05987 19.6834 7.60099 18.4656 8.40143C16.9063 9.42491 15.9225 10.8345 15.9525 12.7947C15.9525 12.8448 15.9525 12.8949 15.9525 12.9683C15.9018 12.9602 15.8518 12.9488 15.8028 12.934C15.0194 12.6218 14.3131 12.7733 13.7595 13.4027C12.733 14.5704 12.1097 17.2577 13.8463 19.0138C14.34 19.5124 14.8239 19.7769 15.6683 19.9749C15.6433 20.0507 15.6243 20.1265 15.5938 20.1967C14.7713 22.0732 15.493 23.8629 17.3872 24.6413C17.6743 24.7599 17.6743 24.7599 17.6316 25.1357C17.2546 25.088 16.8745 25.0513 16.4987 24.9909C12.6853 24.3798 9.15111 23.0453 5.96399 20.8462C4.08263 19.5478 2.42369 18.016 1.20285 16.0588C0.567995 15.0409 0.0865041 13.9587 0.0107366 12.7391C-0.0815286 11.2574 0.415854 10.0549 1.69718 9.22205C2.52818 8.68251 3.39034 8.21752 4.35943 7.97738C5.97071 7.57838 7.47139 7.8729 8.84193 8.77172C9.43279 9.15972 9.95706 9.64854 10.51 10.0934C10.5864 10.1533 10.653 10.2278 10.741 10.3085Z" fill="#AEAEAE"/>
<path d="M15.9337 21.8372C15.9288 20.6323 16.458 19.8569 17.1943 19.2288C17.9464 18.5878 18.5569 17.8515 19.0964 17.0291C20.2213 15.3133 22.5548 15.0805 23.9644 16.5268C24.2089 16.7767 24.3977 17.0902 24.5663 17.3993C24.9067 18.0269 25.3417 18.5603 25.9295 18.9709C26.6016 19.4432 27.1106 20.0537 27.3722 20.8455C27.7663 22.0389 27.3434 23.1589 26.2503 23.7938C25.2024 24.4048 24.0781 24.4573 22.9508 24.1084C22.0886 23.8408 21.2741 23.8524 20.4162 24.1164C19.2027 24.4903 18.0228 24.3748 16.9547 23.6349C16.2747 23.162 15.9264 22.5014 15.9337 21.8372Z" fill="#AEAEAE"/>
<path d="M26.8206 12.321C26.8347 13.6084 26.4125 14.4028 25.6542 15.0132C24.7987 15.7024 23.6029 15.4409 22.9088 14.4406C22.5074 13.8632 22.332 13.2131 22.3119 12.522C22.285 11.6262 22.3485 10.7354 22.6027 9.87076C22.954 8.67498 23.7887 8.3493 24.8024 9.07642C25.9963 9.93797 26.784 11.0733 26.8206 12.321Z" fill="#AEAEAE"/>
<path d="M21.1937 12.1417C21.1521 13.1585 20.9413 14.0885 20.1898 14.8217C19.4064 15.5861 18.3683 15.6032 17.5801 14.837C16.7246 14.0047 16.4338 12.9599 16.713 11.8215C17.0185 10.5805 17.7664 9.61023 18.8638 8.94543C19.6624 8.4615 20.3431 8.70102 20.7214 9.55096C20.7968 9.70619 20.8521 9.87048 20.8857 10.0398C20.9969 10.7388 21.0923 11.4409 21.1937 12.1417Z" fill="#AEAEAE"/>
<path d="M29.9998 16.7389C29.9998 17.5944 29.4572 18.5066 28.3684 19.0731C27.1995 19.6841 26.0263 19.0156 25.8277 17.6579C25.6854 16.6833 26.0385 15.8322 26.531 15.0403C26.8115 14.5893 27.1482 14.1463 27.5478 13.8035C28.234 13.2157 28.936 13.3722 29.4126 14.1482C29.8281 14.824 29.9784 15.5749 29.9998 16.7389Z" fill="#AEAEAE"/>
<path d="M15.7111 19.2871C14.8557 19.182 14.1603 18.5912 13.7461 17.674C13.1894 16.4416 13.4002 15.2415 14.0638 14.1221C14.5337 13.3278 15.2779 13.2184 15.958 13.8453C16.9032 14.7172 17.5002 15.8006 17.6365 17.1015C17.6872 17.5848 17.5595 18.051 17.331 18.4812C17.053 19.0067 16.5379 19.289 15.7111 19.2871Z" fill="#AEAEAE"/>
</svg>
