<svg width="48" height="48" viewBox="0 0 48 48" fill="none" xmlns="http://www.w3.org/2000/svg">
<g clip-path="url(#clip0_47_254)">
<path d="M35.1139 20.3594C35.5443 20.7748 35.93 21.2125 36.2701 21.6681C37.6633 20.1771 38.1674 17.9855 37.4326 15.9664L36.2302 12.6628C35.1803 9.7787 31.9799 8.28626 29.0956 9.33596C28.4438 9.57327 27.8442 9.93262 27.3273 10.3874C31.6471 11.7431 34.8415 15.6652 35.1139 20.3594Z" fill="#AEAEAE"/>
<path d="M12.8861 20.3594C13.1584 15.6652 16.3529 11.7431 20.6727 10.3874C20.1558 9.93269 19.5563 9.57327 18.9043 9.33597C16.0201 8.28632 12.8196 9.7787 11.7698 12.6629L10.5674 15.9665C9.83256 17.9855 10.3367 20.1772 11.7299 21.6682C12.07 21.2125 12.4557 20.7748 12.8861 20.3594Z" fill="#AEAEAE"/>
<path d="M24 35.2523C23.9732 35.2737 23.946 35.2952 23.9184 35.3166C22.9448 36.0735 21.7683 36.5656 20.5261 36.7497C21.1229 38.0747 22.4549 39 24 39C25.545 39 26.8771 38.0747 27.4739 36.7496C26.2317 36.5655 25.0552 36.0734 24.0816 35.3166C24.054 35.2952 24.0268 35.2737 24 35.2523Z" fill="#AEAEAE"/>
<path d="M28.1016 21.3047C28.587 21.3047 28.9805 20.9112 28.9805 20.4258C28.9805 19.9404 28.587 19.5469 28.1016 19.5469C27.6162 19.5469 27.2227 19.9404 27.2227 20.4258C27.2227 20.9112 27.6162 21.3047 28.1016 21.3047Z" fill="#AEAEAE"/>
<path d="M24 26.5781C22.5352 26.5781 22.5352 26.9413 22.5352 27.2617C22.5352 28.2483 23.3565 29.5078 24 29.5078C24.6435 29.5078 25.4648 28.2483 25.4648 27.2617C25.4648 26.9413 25.4648 26.5781 24 26.5781Z" fill="#AEAEAE"/>
<path d="M33.375 21.1577V21.0118C33.375 15.8341 29.1777 11.6368 24 11.6368C18.8224 11.6368 14.625 15.8341 14.625 21.0118V21.1577C12.8011 22.6907 11.6953 24.6731 11.6953 26.8426C11.6953 30.2261 13.5453 33.1616 17.1629 34.6299C19.0489 35.3954 21.2326 35.178 22.8396 33.9288C22.9381 33.8522 23.0318 33.7735 23.121 33.6932V31.0917C22.5615 30.8674 22.045 30.4305 21.6175 29.8062C21.0914 29.0378 20.7773 28.0866 20.7773 27.2617C20.7773 26.0875 21.4017 25.5041 21.9254 25.2216C22.4328 24.9478 23.092 24.8203 24 24.8203C24.908 24.8203 25.5672 24.9478 26.0746 25.2216C26.5983 25.5041 27.2227 26.0874 27.2227 27.2617C27.2227 28.0867 26.9086 29.0379 26.3825 29.8062C25.955 30.4305 25.4384 30.8675 24.8789 31.0918V33.6933C24.9681 33.7736 25.0618 33.8522 25.1603 33.9288C26.7674 35.178 28.951 35.3955 30.837 34.63C34.4546 33.1616 36.3047 30.2261 36.3047 26.8426C36.3047 24.6731 35.1989 22.6907 33.375 21.1577ZM19.8984 23.0625C18.4446 23.0625 17.2617 21.8797 17.2617 20.4258C17.2617 18.9719 18.4446 17.7891 19.8984 17.7891C21.3523 17.7891 22.5352 18.9719 22.5352 20.4258C22.5352 21.8797 21.3523 23.0625 19.8984 23.0625ZM28.1016 23.0625C26.6477 23.0625 25.4648 21.8797 25.4648 20.4258C25.4648 18.9719 26.6477 17.7891 28.1016 17.7891C29.5554 17.7891 30.7383 18.9719 30.7383 20.4258C30.7383 21.8797 29.5554 23.0625 28.1016 23.0625Z" fill="#AEAEAE"/>
<path d="M19.8984 21.3047C20.3838 21.3047 20.7773 20.9112 20.7773 20.4258C20.7773 19.9404 20.3838 19.5469 19.8984 19.5469C19.413 19.5469 19.0195 19.9404 19.0195 20.4258C19.0195 20.9112 19.413 21.3047 19.8984 21.3047Z" fill="#AEAEAE"/>
</g>
<defs>
<clipPath id="clip0_47_254">
<rect width="30" height="30" fill="white" transform="translate(9 9)"/>
</clipPath>
</defs>
</svg>
