<svg width="48" height="48" viewBox="0 0 48 48" fill="none" xmlns="http://www.w3.org/2000/svg">
<path d="M19.741 21.4437C19.9158 20.7196 20.0716 20.0188 20.2549 19.3253C20.7028 17.6272 21.3242 16.0007 22.336 14.5489C22.919 13.713 23.629 13.0048 24.5461 12.5374C25.7798 11.908 27.0856 11.8408 28.3644 12.2868C30.3197 12.9687 31.7807 14.222 32.4046 16.2775C32.6685 17.147 32.6691 18.0415 32.5402 18.9348C32.5262 19.0356 32.4455 19.1872 32.3667 19.208C31.6945 19.3839 31.3347 19.8679 31.0921 20.46C30.9656 20.7655 30.8959 21.0985 30.8031 21.4193C30.7786 21.503 30.7603 21.5885 30.7328 21.701C30.6143 21.2971 30.5269 20.9225 30.3943 20.5644C29.8853 19.1951 28.6834 18.7362 27.4656 19.5367C25.9063 20.5602 24.9225 21.9698 24.9525 23.93C24.9525 23.9801 24.9525 24.0302 24.9525 24.1035C24.9018 24.0955 24.8518 24.0841 24.8028 24.0693C24.0194 23.7571 23.3131 23.9086 22.7595 24.538C21.733 25.7056 21.1097 28.3929 22.8463 30.149C23.34 30.6476 23.8239 30.9122 24.6683 31.1102C24.6433 31.1859 24.6243 31.2617 24.5938 31.332C23.7713 33.2084 24.493 34.9981 26.3872 35.7766C26.6743 35.8951 26.6743 35.8951 26.6316 36.2709C26.2546 36.2233 25.8745 36.1866 25.4987 36.1261C21.6853 35.5151 18.1511 34.1806 14.964 31.9815C13.0826 30.6831 11.4237 29.1512 10.2029 27.1941C9.56799 26.1761 9.0865 25.094 9.01074 23.8744C8.91847 22.3926 9.41585 21.1901 10.6972 20.3573C11.5282 19.8178 12.3903 19.3528 13.3594 19.1126C14.9707 18.7136 16.4714 19.0081 17.8419 19.907C18.4328 20.295 18.9571 20.7838 19.51 21.2286C19.5864 21.2885 19.653 21.3631 19.741 21.4437Z" fill="#AEAEAE"/>
<path d="M24.9335 32.9726C24.9286 31.7676 25.4578 30.9922 26.1941 30.3641C26.9463 29.7231 27.5567 28.9868 28.0962 28.1644C29.2211 26.4486 31.5546 26.2158 32.9643 27.6621C33.2087 27.912 33.3975 28.2255 33.5661 28.5347C33.9065 29.1622 34.3415 29.6956 34.9293 30.1062C35.6015 30.5786 36.1104 31.189 36.372 31.9809C36.7661 33.1742 36.3433 34.2942 35.2501 34.9291C34.2022 35.5401 33.0779 35.5926 31.9506 35.2438C31.0884 34.9761 30.2739 34.9877 29.416 35.2517C28.2025 35.6256 27.0226 35.5102 25.9546 34.7702C25.2745 34.2973 24.9262 33.6367 24.9335 32.9726Z" fill="#AEAEAE"/>
<path d="M35.8208 23.4564C35.8349 24.7439 35.4127 25.5382 34.6544 26.1486C33.7989 26.8378 32.6031 26.5763 31.909 25.5761C31.5076 24.9987 31.3322 24.3485 31.312 23.6574C31.2852 22.7617 31.3487 21.8708 31.6029 21.0062C31.9542 19.8104 32.7889 19.4847 33.8026 20.2119C34.9965 21.0734 35.7842 22.2087 35.8208 23.4564Z" fill="#AEAEAE"/>
<path d="M30.1939 23.2768C30.1523 24.2935 29.9415 25.2235 29.1899 25.9568C28.4066 26.7212 27.3685 26.7383 26.5802 25.972C25.7248 25.1398 25.434 24.095 25.7132 22.9566C26.0187 21.7156 26.7666 20.7453 27.864 20.0805C28.6626 19.5966 29.3433 19.8361 29.7215 20.686C29.797 20.8413 29.8523 21.0055 29.8859 21.1749C29.9971 21.8739 30.0924 22.5759 30.1939 23.2768Z" fill="#AEAEAE"/>
<path d="M39 27.8742C39 28.7296 38.4574 29.6419 37.3686 30.2083C36.1997 30.8193 35.0265 30.1508 34.8279 28.7931C34.6855 27.8185 35.0387 26.9674 35.5312 26.1755C35.8117 25.7246 36.1483 25.2816 36.5479 24.9388C37.2341 24.351 37.9362 24.5074 38.4128 25.2834C38.8283 25.9592 38.9786 26.7101 39 27.8742Z" fill="#AEAEAE"/>
<path d="M24.7111 30.4221C23.8557 30.317 23.1603 29.7262 22.746 28.809C22.1894 27.5766 22.4002 26.3765 23.0638 25.2571C23.5336 24.4628 24.2779 24.3534 24.958 24.9803C25.9032 25.8523 26.5002 26.9356 26.6365 28.2365C26.6872 28.7198 26.5595 29.186 26.3309 29.6162C26.0529 30.1417 25.5378 30.424 24.7111 30.4221Z" fill="#AEAEAE"/>
</svg>
