<svg width="22" height="22" viewBox="0 0 22 22" fill="none" xmlns="http://www.w3.org/2000/svg">
<path d="M5.90608 8.04977H8.13251V14.6545C8.13251 15.3246 8.67583 15.8672 9.34525 15.8672H12.6555C13.3249 15.8672 13.8682 15.3246 13.8682 14.6545V8.04977H16.0939C16.4626 8.04977 16.7941 7.82776 16.9359 7.48703C17.0762 7.14768 16.9981 6.75538 16.7376 6.49486L11.6439 1.40056C11.2882 1.04552 10.7118 1.04552 10.3553 1.40056L5.26249 6.49486C5.00193 6.75538 4.92386 7.14701 5.06493 7.48703C5.20662 7.8271 5.53736 8.04977 5.90608 8.04977Z" fill="white"/>
<path d="M20.9061 10.5254C20.3025 10.5254 19.8129 11.0151 19.8129 11.6193V16.1931C19.8129 17.5633 18.6975 18.6779 17.3273 18.6779H4.67258C3.30236 18.6779 2.18774 17.5633 2.18774 16.1931V11.6193C2.18774 11.0151 1.69737 10.5254 1.09387 10.5254C0.48965 10.5254 0 11.0151 0 11.6193V16.1932C0 18.7696 2.09608 20.8657 4.67258 20.8657H17.3273C19.9038 20.8657 22 18.7696 22 16.1932V11.6193C22 11.0151 21.5103 10.5254 20.9061 10.5254Z" fill="white"/>
</svg>
