<svg width="42" height="42" viewBox="0 0 42 42" fill="none" xmlns="http://www.w3.org/2000/svg">
<rect opacity="0.4" width="42" height="42" rx="21" fill="#FFD0A6"/>
<path d="M18.3361 17.4689C18.3361 19.5313 16.6641 19.9585 14.6016 19.9585C12.5392 19.9585 10.8672 19.5313 10.8672 17.4689C10.8672 15.4064 12.5392 13.7344 14.6016 13.7344C16.6641 13.7344 18.3361 15.4064 18.3361 17.4689Z" stroke="#694338" stroke-width="2" stroke-miterlimit="10" stroke-linecap="round" stroke-linejoin="round"/>
<path d="M12.7344 13.2988C12.7344 14.33 11.8984 15.166 10.8672 15.166C9.83602 15.166 9 14.33 9 13.2988C9 12.2675 9.83602 11.4316 10.8672 11.4316C11.8984 11.4316 12.7344 12.2675 12.7344 13.2988Z" stroke="#694338" stroke-width="2" stroke-miterlimit="10" stroke-linecap="round" stroke-linejoin="round"/>
<path d="M16.469 13.2988C16.469 14.33 17.305 15.166 18.3362 15.166C19.3674 15.166 20.2034 14.33 20.2034 13.2988C20.2034 12.2675 19.3674 11.4316 18.3362 11.4316C17.305 11.4316 16.469 12.2675 16.469 13.2988Z" stroke="#694338" stroke-width="2" stroke-miterlimit="10" stroke-linecap="round" stroke-linejoin="round"/>
<path d="M16.4688 11.8672C16.4688 12.8984 15.6328 13.7344 14.6016 13.7344C13.5704 13.7344 12.7344 12.8984 12.7344 11.8672C12.7344 10.8359 13.5704 9.99994 14.6016 9.99994C15.6328 9.99994 16.4688 10.8359 16.4688 11.8672Z" stroke="#694338" stroke-width="2" stroke-miterlimit="10" stroke-linecap="round" stroke-linejoin="round"/>
<path d="M32.2528 12.6899L27.9406 10.2002C27.2261 9.78776 26.3126 10.0325 25.9001 10.747C25.4876 11.4614 25.7324 12.375 26.4468 12.7875L30.759 15.2772C31.4735 15.6897 32.387 15.4448 32.7995 14.7304C33.212 14.0159 32.9673 13.1023 32.2528 12.6899Z" stroke="#694338" stroke-width="2" stroke-miterlimit="10" stroke-linecap="round" stroke-linejoin="round"/>
<path d="M29.1985 18.9757L24.0239 15.9882L17.302 27.631C16.8894 28.3455 17.1343 29.259 17.8487 29.6716L20.436 31.1654C21.1505 31.5778 22.064 31.3331 22.4765 30.6186L29.1985 18.9757Z" stroke="#694338" stroke-width="2" stroke-miterlimit="10" stroke-linecap="round" stroke-linejoin="round"/>
<path d="M29.8966 14.7793L27.3093 13.2855L25.3176 16.7352L27.9049 18.229L29.8966 14.7793Z" stroke="#694338" stroke-width="2" stroke-miterlimit="10" stroke-linecap="round" stroke-linejoin="round"/>
<path d="M18.0488 26.3376L19.3425 27.0845" stroke="#694338" stroke-width="2" stroke-miterlimit="10" stroke-linecap="round" stroke-linejoin="round"/>
<path d="M19.5427 23.7503L21.6988 24.9951" stroke="#694338" stroke-width="2" stroke-miterlimit="10" stroke-linecap="round" stroke-linejoin="round"/>
<path d="M21.0364 21.1633L26.211 24.1509" stroke="#694338" stroke-width="2" stroke-miterlimit="10" stroke-linecap="round" stroke-linejoin="round"/>
<path d="M22.5303 18.5755L24.6863 19.8203" stroke="#694338" stroke-width="2" stroke-miterlimit="10" stroke-linecap="round" stroke-linejoin="round"/>
<path d="M19.1423 30.4187L17.0747 34" stroke="#694338" stroke-width="2" stroke-miterlimit="10" stroke-linecap="round" stroke-linejoin="round"/>
<path d="M30.4923 19.7227L22.7305 15.2413" stroke="#694338" stroke-width="2" stroke-miterlimit="10" stroke-linecap="round" stroke-linejoin="round"/>
</svg>
