<svg width="16" height="16" viewBox="0 0 16 16" fill="none" xmlns="http://www.w3.org/2000/svg">
<path d="M13.8714 0.165C13.7764 0.06 13.6424 0 13.5004 0H2.50043C2.35943 0 2.22443 0.06 2.12943 0.165C2.03543 0.269 1.98843 0.409 2.00243 0.55L3.50243 15.55C3.52843 15.806 3.74343 16 4.00043 16H12.0004C12.2574 16 12.4724 15.806 12.4974 15.55L13.9974 0.55C14.0124 0.409 13.9664 0.269 13.8714 0.165ZM12.5404 5.078C11.2694 5.489 9.61543 5.679 8.31743 4.614C6.69043 3.279 4.69643 3.509 3.34443 3.911L3.05343 1H12.9474L12.5404 5.078Z" fill="#694338"/>
</svg>
