<svg width="23" height="22" viewBox="0 0 23 22" fill="none" xmlns="http://www.w3.org/2000/svg">
<path d="M18.375 13.5535V10.3125C18.375 7.31264 16.4435 4.75578 13.7589 3.81919C13.9622 3.45078 14.0781 3.02779 14.0781 2.57812C14.0781 1.15655 12.9216 0 11.5 0C10.0784 0 8.92188 1.15655 8.92188 2.57812C8.92188 3.02779 9.03785 3.45078 9.24109 3.81919C6.55653 4.75578 4.625 7.31264 4.625 10.3125V13.5535C3.62464 13.9082 2.90625 14.864 2.90625 15.9844C2.90625 17.406 4.0628 18.5625 5.48438 18.5625H8.92188V19.4219C8.92188 20.8435 10.0784 22 11.5 22C12.9216 22 14.0781 20.8435 14.0781 19.4219V18.5625H17.5156C18.9372 18.5625 20.0938 17.406 20.0938 15.9844C20.0938 14.864 19.3754 13.9082 18.375 13.5535ZM10.6406 2.57812C10.6406 2.10427 11.0261 1.71875 11.5 1.71875C11.9739 1.71875 12.3594 2.10427 12.3594 2.57812C12.3594 3.05198 11.9739 3.4375 11.5 3.4375C11.0261 3.4375 10.6406 3.05198 10.6406 2.57812ZM12.3594 19.4219C12.3594 19.8957 11.9739 20.2812 11.5 20.2812C11.0261 20.2812 10.6406 19.8957 10.6406 19.4219V18.5625H12.3594V19.4219ZM17.5156 16.8438H5.48438C5.01052 16.8438 4.625 16.4582 4.625 15.9844C4.625 15.5105 5.01052 15.125 5.48438 15.125C5.95901 15.125 6.34375 14.7403 6.34375 14.2656V10.3125C6.34375 7.46934 8.65684 5.15625 11.5 5.15625C14.3432 5.15625 16.6562 7.46934 16.6562 10.3125V14.2656C16.6562 14.7403 17.041 15.125 17.5156 15.125C17.9895 15.125 18.375 15.5105 18.375 15.9844C18.375 16.4582 17.9895 16.8438 17.5156 16.8438Z" fill="black"/>
</svg>
