<svg width="20" height="20" viewBox="0 0 20 20" fill="none" xmlns="http://www.w3.org/2000/svg">
<path d="M1.17187 1.17187H4.6875V0H0V4.6875H1.17187V1.17187Z" fill="#141415"/>
<path d="M15.3125 0V1.17187H18.8281V4.6875H20V0H15.3125Z" fill="#141415"/>
<path d="M18.8281 18.8281H15.3125V20H20V15.3125H18.8281V18.8281Z" fill="#141415"/>
<path d="M1.17187 15.3125H0V20H4.6875V18.8281H1.17187V15.3125Z" fill="#141415"/>
<path d="M2.38281 2.34375V8.20312H8.24219V4.6875H9.41406V3.51562H8.24219V2.34375H2.38281ZM7.07031 7.03125H3.55469V3.51562H7.07031V7.03125Z" fill="#141415"/>
<path d="M17.6172 17.5781V11.7187H15.2734V10.5469H14.1016V11.7187H10.5859V12.8906H11.7578V14.0625H10.5859V15.2344H11.7578V17.5781H17.6172ZM12.9297 12.8906H16.4453V16.4062H12.9297V12.8906Z" fill="#141415"/>
<path d="M5.89844 10.5469H8.24219V9.375H2.38281V10.5469H4.72656V11.7187H3.55469V12.8906H4.72656V15.2344H3.55469V16.4062H4.72656V17.5781H10.5859V16.4062H9.41406V15.2344H8.24219V16.4062H5.89844V15.2344H7.07031V14.0625H5.89844V10.5469Z" fill="#141415"/>
<path d="M4.72656 4.6875H5.89844V5.85937H4.72656V4.6875Z" fill="#141415"/>
<path d="M14.1016 4.6875H15.2734V5.85937H14.1016V4.6875Z" fill="#141415"/>
<path d="M15.2734 8.20312H17.6172V2.34375H11.7578V8.20312H14.1016V9.375H15.2734V8.20312ZM12.9297 7.03125V3.51562H16.4453V7.03125H12.9297Z" fill="#141415"/>
<path d="M17.6172 10.5469V9.375C17.3337 9.375 15.5589 9.375 15.2734 9.375V10.5469H17.6172Z" fill="#141415"/>
<path d="M14.1016 14.0625H15.2734V15.2344H14.1016V14.0625Z" fill="#141415"/>
<path d="M9.41406 12.8906H10.5859V14.0625H9.41406V12.8906Z" fill="#141415"/>
<path d="M7.07031 14.0625H8.24219C8.24219 13.779 8.24219 12.0042 8.24219 11.7188H7.07031V14.0625Z" fill="#141415"/>
<path d="M8.24219 10.5469H9.41406V11.7187H8.24219V10.5469Z" fill="#141415"/>
<path d="M3.55469 12.8906H2.38281V15.2344H3.55469C3.55469 14.9509 3.55469 13.1761 3.55469 12.8906Z" fill="#141415"/>
<path d="M2.38281 16.4062H3.55469V17.5781H2.38281V16.4062Z" fill="#141415"/>
<path d="M9.41406 2.34375H10.5859V3.51562H9.41406V2.34375Z" fill="#141415"/>
<path d="M9.41406 7.03125H10.5859C10.5859 6.74774 10.5859 4.97299 10.5859 4.6875H9.41406V7.03125Z" fill="#141415"/>
<path d="M10.5859 9.375V8.20312H9.41406V10.5469H14.1016V9.375H10.5859Z" fill="#141415"/>
</svg>
