<svg width="29" height="29" viewBox="0 0 29 29" fill="none" xmlns="http://www.w3.org/2000/svg">
<g clip-path="url(#clip0_127_1006)">
<path d="M16.77 27.3008H26.6164V28.2201C26.6164 28.6505 26.2675 29 25.8365 29H17.55C17.1189 29 16.77 28.6505 16.77 28.2201V27.3008Z" fill="#694338"/>
<path d="M29 19.9058C29 21.507 28.0451 22.944 26.6166 23.5846V25.6016H16.7702V23.5846C15.3417 22.944 14.3867 21.507 14.3867 19.9058C14.3816 17.6328 16.291 15.7925 18.5623 15.8786C19.3235 14.9361 20.4614 14.3867 21.6934 14.3867C22.9253 14.3867 24.0632 14.9361 24.8245 15.8786C27.0958 15.7925 29.0051 17.6328 29 19.9058Z" fill="#694338"/>
<path d="M22.4863 1.69922H19.0086V3.51172C19.0086 3.9807 18.628 4.36133 18.159 4.36133C17.69 4.36133 17.3094 3.9807 17.3094 3.51172V1.69922H14.6813V3.51172C14.6813 3.9807 14.3006 4.36133 13.8316 4.36133C13.3627 4.36133 12.982 3.9807 12.982 3.51172V1.69922H10.3539V3.51172C10.3539 3.9807 9.97328 4.36133 9.5043 4.36133C9.03531 4.36133 8.65469 3.9807 8.65469 3.51172V1.69922H6.02656V3.51172C6.02656 3.9807 5.64594 4.36133 5.17695 4.36133C4.70797 4.36133 4.32734 3.9807 4.32734 3.51172V1.69922H0.849609C0.380625 1.69922 0 2.07984 0 2.54883V21.0137H7.13672C7.6057 21.0137 7.98633 21.3943 7.98633 21.8633V29H15.1967C15.1151 28.7547 15.0709 28.4925 15.0709 28.2201V24.5565C13.5949 23.4928 12.6875 21.7681 12.6875 19.9058C12.6852 18.3827 13.28 16.9469 14.3624 15.8622C15.302 14.9203 16.5062 14.3454 17.8027 14.2083C18.8528 13.2335 20.232 12.6875 21.6934 12.6875C22.2581 12.6875 22.8103 12.7691 23.3359 12.9254V2.54883C23.3359 2.07984 22.9553 1.69922 22.4863 1.69922ZM4.24805 14.8965C3.77906 14.8965 3.39844 14.5159 3.39844 14.0469C3.39844 13.5779 3.77906 13.1973 4.24805 13.1973C4.71703 13.1973 5.09766 13.5779 5.09766 14.0469C5.09766 14.5159 4.71703 14.8965 4.24805 14.8965ZM4.24805 11.498C3.77906 11.498 3.39844 11.1174 3.39844 10.6484C3.39844 10.1795 3.77906 9.79883 4.24805 9.79883C4.71703 9.79883 5.09766 10.1795 5.09766 10.6484C5.09766 11.1174 4.71703 11.498 4.24805 11.498ZM4.24805 8.09961C3.77906 8.09961 3.39844 7.71898 3.39844 7.25C3.39844 6.78102 3.77906 6.40039 4.24805 6.40039C4.71703 6.40039 5.09766 6.78102 5.09766 7.25C5.09766 7.71898 4.71703 8.09961 4.24805 8.09961ZM11.954 14.8965H7.64648C7.1775 14.8965 6.79688 14.5159 6.79688 14.0469C6.79688 13.5779 7.1775 13.1973 7.64648 13.1973H11.954C12.423 13.1973 12.8036 13.5779 12.8036 14.0469C12.8036 14.5159 12.423 14.8965 11.954 14.8965ZM16.2559 11.498H7.64648C7.1775 11.498 6.79688 11.1174 6.79688 10.6484C6.79688 10.1795 7.1775 9.79883 7.64648 9.79883H16.2559C16.7248 9.79883 17.1055 10.1795 17.1055 10.6484C17.1055 11.1174 16.7248 11.498 16.2559 11.498ZM19.0879 8.09961H7.64648C7.1775 8.09961 6.79688 7.71898 6.79688 7.25C6.79688 6.78102 7.1775 6.40039 7.64648 6.40039H19.0879C19.5569 6.40039 19.9375 6.78102 19.9375 7.25C19.9375 7.71898 19.5569 8.09961 19.0879 8.09961ZM6.28711 28.5021V22.7129H0.497871L6.28711 28.5021Z" fill="#694338"/>
<path d="M19.0083 0.849609V1.69922H17.3091V0.849609C17.3091 0.380625 17.6897 0 18.1587 0C18.6277 0 19.0083 0.380625 19.0083 0.849609Z" fill="#694338"/>
<path d="M14.6812 0.849609V1.69922H12.9819V0.849609C12.9819 0.380625 13.3626 0 13.8315 0C14.3005 0 14.6812 0.380625 14.6812 0.849609Z" fill="#694338"/>
<path d="M10.3535 0.849609V1.69922H8.6543V0.849609C8.6543 0.380625 9.03492 0 9.50391 0C9.97289 0 10.3535 0.380625 10.3535 0.849609Z" fill="#694338"/>
<path d="M6.02637 0.849609V1.69922H4.32715V0.849609C4.32715 0.380625 4.70777 0 5.17676 0C5.64574 0 6.02637 0.380625 6.02637 0.849609Z" fill="#694338"/>
</g>
<defs>
<clipPath id="clip0_127_1006">
<rect width="29" height="29" fill="white"/>
</clipPath>
</defs>
</svg>
