<svg width="17" height="17" viewBox="0 0 17 17" fill="none" xmlns="http://www.w3.org/2000/svg">
<g clip-path="url(#clip0_122_77)">
<path d="M17 6.72917C17.0017 6.28511 16.8841 5.84874 16.6594 5.46568C16.4348 5.08262 16.1114 4.76693 15.723 4.55159C15.3347 4.33626 14.8956 4.22919 14.4517 4.24157C14.0078 4.25395 13.5754 4.38533 13.1997 4.62198C12.8239 4.85863 12.5186 5.19186 12.3157 5.58684C12.1128 5.98183 12.0196 6.42407 12.0461 6.86735C12.0725 7.31062 12.2175 7.73867 12.466 8.10673C12.7144 8.4748 13.0571 8.76939 13.4583 8.95971V11.3333C13.4583 12.2726 13.0852 13.1735 12.421 13.8377C11.7568 14.5019 10.856 14.875 9.91667 14.875C8.97736 14.875 8.07652 14.5019 7.41233 13.8377C6.74814 13.1735 6.375 12.2726 6.375 11.3333V11.2264C7.57404 10.9799 8.65143 10.3275 9.42559 9.37929C10.1998 8.43107 10.6234 7.24495 10.625 6.02083V3.89583C10.6239 2.86294 10.2131 1.87267 9.48269 1.14231C8.75233 0.411939 7.76206 0.00112495 6.72917 0C6.44737 0 6.17712 0.111942 5.97787 0.311199C5.77861 0.510456 5.66667 0.780707 5.66667 1.0625C5.66667 1.34429 5.77861 1.61454 5.97787 1.8138C6.17712 2.01306 6.44737 2.125 6.72917 2.125C6.96172 2.125 7.19199 2.1708 7.40684 2.2598C7.62168 2.34879 7.8169 2.47923 7.98134 2.64367C8.14577 2.8081 8.27621 3.00332 8.3652 3.21816C8.4542 3.43301 8.5 3.66328 8.5 3.89583V6.02083C8.5 6.86621 8.16418 7.67696 7.5664 8.27474C6.96863 8.87251 6.15788 9.20833 5.3125 9.20833C4.46712 9.20833 3.65637 8.87251 3.0586 8.27474C2.46082 7.67696 2.125 6.86621 2.125 6.02083V3.89583C2.125 3.42618 2.31157 2.97576 2.64367 2.64367C2.97576 2.31157 3.42618 2.125 3.89583 2.125C4.17763 2.125 4.44788 2.01306 4.64713 1.8138C4.84639 1.61454 4.95833 1.34429 4.95833 1.0625C4.95833 0.780707 4.84639 0.510456 4.64713 0.311199C4.44788 0.111942 4.17763 0 3.89583 0C2.86294 0.00112495 1.87267 0.411939 1.14231 1.14231C0.411939 1.87267 0.00112495 2.86294 0 3.89583L0 6.02083C0.00164194 7.24495 0.425242 8.43107 1.19941 9.37929C1.97357 10.3275 3.05096 10.9799 4.25 11.2264V11.3333C4.25 12.8362 4.84702 14.2776 5.90973 15.3403C6.97243 16.403 8.41377 17 9.91667 17C11.4196 17 12.8609 16.403 13.9236 15.3403C14.9863 14.2776 15.5833 12.8362 15.5833 11.3333V8.95971C16.0058 8.75933 16.3629 8.44358 16.6136 8.04891C16.8643 7.65423 16.9982 7.19671 17 6.72917Z" fill="#694338"/>
</g>
<defs>
<clipPath id="clip0_122_77">
<rect width="17" height="17" fill="white"/>
</clipPath>
</defs>
</svg>
